<?xml version="1.0" encoding="utf-8"?>
<!-- Generator: Adobe Illustrator 18.1.1, SVG Export Plug-In . SVG Version: 6.00 Build 0)  -->
<svg version="1.1" id="Layer_1" xmlns="http://www.w3.org/2000/svg" xmlns:xlink="http://www.w3.org/1999/xlink" x="0px" y="0px"
	 viewBox="0 0 652 425.2" enable-background="new 0 0 652 425.2" xml:space="preserve">
<g>
	<g>
		<path fill="#2897DE" d="M361.6,145.6c-7.3-4.1-18.5-8.1-33.6-8.1c-16.5,0-29.1,7.4-29.1,18.8c0,13.2,14,18,35,24.4
			c25.7,7.6,45.6,17.3,45.6,40.1c0,13.2-7,22.8-18.2,30.7c4.8,3.6,10.6,11.9,10.6,22.3c0,26.6-27.1,38.1-53.1,38.1
			c-17.1,0-28.3-3.6-39-10.7l6.7-14.5c6.7,4.3,15.5,10.4,32,10.4c17.9,0,31.3-7.4,31.3-20.8c0-11.9-8.1-18.3-34.1-26.4
			c-28.8-8.9-48.7-18.3-48.7-40.1c0-9.6,5.6-21.1,20.4-29.7c-5.6-4.1-10.1-12.7-10.3-21.3c0-22.3,22.9-36,51.7-36
			c15.7,0,29.1,3.6,38.6,8.4L361.6,145.6z M316.5,231.1c14.3,4.6,25.4,8.4,31.9,12.2c7-4.6,10.6-11.7,10.6-19.5
			c0-9.6-6.7-17.8-24.9-23.6c-11.2-3.8-25.4-8.1-34.4-12.9c-8.9,5.8-12.9,12.2-12.9,19.8C286.9,216.2,294.4,223.8,316.5,231.1z"/>
		<path fill="#2897DE" d="M318.8,320.7c-18,0-31.2-3.6-43.9-12.2l-6.3-4.2l14.2-30.5l9.3,6c6.2,4,13.1,8.5,26.4,8.5
			c10.4,0,22.5-3.1,22.5-12c0-4.3,0-9.2-27.9-17.9c-27.8-8.6-54.9-19.4-54.9-48.5c0-11.6,5.8-22.6,16.1-31.3
			c-3.6-5.7-5.8-12.6-6-19.4c0-26.7,24.9-45.2,60.6-45.2c15.6,0,30.7,3.3,42.6,9.3l7.3,3.7L366,158.2l-8.7-4.9
			c-5.7-3.2-15.4-7-29.2-7c-11.5,0-20.2,4.3-20.2,9.9c0,6.2,8.5,9.8,28.7,15.9c26.9,8,51.9,19.4,51.9,48.6
			c0,12.2-4.7,22.7-14.2,31.7c3.8,5.7,6.7,13.2,6.7,21.3C380.8,297.1,361.6,320.7,318.8,320.7z M278.9,199.7
			c-2,3.3-3.1,6.7-3.1,10.1c0,13.9,10.7,21.9,42.4,31.6c22.1,6.9,40.4,14.3,40.4,34.8c0,7.3-2.7,13.5-7.5,18.4
			c7-4.5,11.9-11.2,11.9-21c0-7.3-4.2-13.1-7.1-15.2l-6.8-5.1l-0.5,0.3l-4.7-2.8c-5.9-3.5-18.1-7.5-30.1-11.4
			C297.1,234,278,225.3,278,207C278,204.5,278.3,202,278.9,199.7z M299.3,177l4.6,2.5c6.6,3.6,17.2,7.1,26.5,10.2
			c2.2,0.7,4.4,1.5,6.5,2.2c20.5,6.6,30.9,17.3,30.9,32c0,4-0.7,7.8-2,11.4c3.2-4.4,4.7-9.1,4.7-14.4c0-14.6-10.6-23.1-39.2-31.6
			c-20.3-6.1-41.3-12.5-41.3-32.8c0-6.1,2.2-11.5,6.1-15.9c-6.2,4.4-10.2,10.5-10.2,18.4c0.2,5.9,3.6,11.9,6.7,14.1l6.1,4.4
			L299.3,177z M300.7,197.6c-4.3,3.8-5,6.9-5,9.5c0,5.2,7.9,10.5,23.6,15.7c12.4,4,21.3,7,27.8,10c2-2.5,3-5.5,3-8.9
			c0-2.3,0-9.1-18.7-15.2c-2.2-0.7-4.3-1.5-6.6-2.2C316.9,203.8,308,200.8,300.7,197.6z"/>
	</g>
</g>
<g>
	<path fill="#929498" d="M326,377.1c-90.7,0-164.5-73.8-164.5-164.5S235.3,48.1,326,48.1c90.7,0,164.5,73.8,164.5,164.5
		S416.7,377.1,326,377.1z M326,59.9c-84.2,0-152.7,68.5-152.7,152.7c0,84.2,68.5,152.7,152.7,152.7s152.7-68.5,152.7-152.7
		C478.7,128.4,410.2,59.9,326,59.9z"/>
</g>
<g>
	<g>
		<g>
			<path fill="#929498" d="M321.7,309.9c-18.3,0-34.9-4.1-45.5-11.2l-2.1-1.4l9.2-19.8l2.8,1.8c7.5,4.8,20.7,9.9,35.3,9.9
				c13.1,0,28.4-4.7,28.4-17.8c0-9.2-4.8-15.1-32-23.6c-25.7-7.9-50.7-17.7-50.7-42.9c0-11.3,6.7-22.2,18.5-30.1
				c-4.8-5.2-8.2-13.2-8.4-20.8c0-23,22.5-39.1,54.7-39.1c14.7,0,28.9,3.1,39.9,8.7l2.4,1.2L366,145l-2.9-1.6
				c-6.3-3.5-17-7.7-32.1-7.7c-15.4,0-26.1,6.5-26.1,15.8c0,10.5,10.5,14.8,32.9,21.5c24.8,7.3,47.7,17.6,47.7,42.9
				c0,12.1-5.4,22.2-16.5,30.9c4.8,5,8.9,13,8.9,22.1C377.8,297.2,349.7,309.9,321.7,309.9z M302.9,185.8c-7,4.9-10.1,10-10.1,16.4
				c0,5.6,3.1,13.2,27.6,21.3c14.8,4.7,24.4,8.1,30.8,11.5c5.1-3.9,7.9-9.5,7.9-16.1c0-5.8-2.4-14.2-22.8-20.8
				c-2.1-0.7-4.3-1.4-6.5-2.2C320.6,192.9,310.4,189.5,302.9,185.8z"/>
		</g>
		<g>
			<path fill="#CECFD2" d="M331.8,117.9c15.7,0,29.1,3.6,38.6,8.4l-5.9,14.5c-7.3-4.1-18.5-8.1-33.6-8.1c-16.5,0-29.1,7.4-29.1,18.8
				c0,13.2,14,18,35,24.4c25.7,7.6,45.6,17.3,45.6,40.1c0,13.2-7,22.8-18.2,30.7c4.8,3.6,10.6,11.9,10.6,22.3
				c0,26.6-27.1,38.1-53.1,38.1c-17.1,0-33.3-3.6-43.9-10.7l6.7-14.5c6.7,4.3,20.4,10.4,36.9,10.4c17.9,0,31.3-7.4,31.3-20.8
				c0-11.9-8.1-18.3-34.1-26.4c-28.8-8.9-48.7-18.3-48.7-40.1c0-9.6,5.6-21.1,20.4-29.7c-5.6-4.1-10.1-12.7-10.3-21.3
				C280.1,131.6,303,117.9,331.8,117.9 M351.4,238.4c7-4.6,10.6-11.7,10.6-19.5c0-9.6-6.7-17.8-24.9-23.6
				c-11.2-3.8-25.4-8.1-34.4-12.9c-8.9,5.8-12.9,12.2-12.9,19.8c0,9.1,7.5,16.7,29.6,24.1C333.8,230.8,345,234.6,351.4,238.4
				 M331.8,112c-33.9,0-57.6,17.2-57.6,41.9c0.2,7.4,2.9,14.8,7.1,20.3c-11,8.3-17.1,19.2-17.1,30.7c0,27.2,26.1,37.5,52.8,45.7
				c27.8,8.7,30,14.1,30,20.7c0,11-13.7,14.9-25.4,14.9c-14,0-26.6-4.9-33.7-9.5l-5.7-3.7l-2.8,6.1l-6.7,14.5l-2.1,4.6l4.2,2.8
				c11.2,7.5,28,11.7,47.2,11.7c40.8,0,59-22.1,59-44c0-8.6-3.4-16.3-7.7-21.8c10.2-8.9,15.2-19.1,15.2-31.3
				c0-27.3-23.9-38.1-49.8-45.7c-20.9-6.3-30.7-10.2-30.7-18.7c0-7.5,9.8-12.9,23.2-12.9c14.4,0,24.7,4,30.7,7.4l5.8,3.3l2.5-6.2
				l5.9-14.5l2-5l-4.8-2.5C361.6,115.2,347,112,331.8,112L331.8,112z M350.8,231.4c-6.5-3.2-15.8-6.4-29.5-10.8
				c-22.9-7.6-25.5-14.2-25.5-18.5c0-3.4,0.9-7.8,7.5-12.9c7.4,3.5,17,6.7,25.6,9.5c2.2,0.7,4.4,1.4,6.4,2.1
				c18.7,6,20.9,13.2,20.9,18C356.1,223.8,354.2,228.2,350.8,231.4L350.8,231.4z"/>
		</g>
	</g>
</g>
</svg>
