<?xml version="1.0" encoding="utf-8"?>
<!-- Generator: Adobe Illustrator 18.1.1, SVG Export Plug-In . SVG Version: 6.00 Build 0)  -->
<svg version="1.1" id="Layer_1" xmlns="http://www.w3.org/2000/svg" xmlns:xlink="http://www.w3.org/1999/xlink" x="0px" y="0px"
	 viewBox="0 0 652 425.2" enable-background="new 0 0 652 425.2" xml:space="preserve">
<g>
	<defs>
		<path id="SVGID_1_" d="M325.4,369.1c-86.3,0-156.5-70.2-156.5-156.5c0-86.3,70.2-156.5,156.5-156.5c86.3,0,156.5,70.2,156.5,156.5
			C481.9,298.9,411.7,369.1,325.4,369.1z"/>
	</defs>
	<clipPath id="SVGID_2_">
		<use xlink:href="#SVGID_1_"  overflow="visible"/>
	</clipPath>
	<g clip-path="url(#SVGID_2_)">
		<g>
			<path fill="#929498" d="M168,305.6c0-61.4,56.6-83.8,56.6-83.8s56.6,21.8,56.6,83.8s-15.9,50.8-58.9,50.8S168,305.6,168,305.6z"
				/>
		</g>
		<g>
			<path fill="#CECFD2" d="M178.7,333.9C178.7,333.9,178.7,333.9,178.7,333.9c-1.6,0-2.8-1.3-2.8-2.9c0.5-32.1,5.7-49.3,5.9-50
				c0.5-1.5,2-2.3,3.5-1.8c1.5,0.5,2.3,2,1.9,3.5c-0.1,0.2-5.2,17.2-5.7,48.5C181.5,332.7,180.2,333.9,178.7,333.9z"/>
		</g>
		<g>
			<path fill="#CECFD2" d="M268.5,329.1C268.4,329.1,268.4,329.1,268.5,329.1c-1.6,0-2.8-1.3-2.8-2.9c0.5-33.4-4.7-44.7-4.8-44.9
				c-0.7-1.4-0.1-3.1,1.3-3.7c1.4-0.7,3.1-0.1,3.7,1.3c0.2,0.5,5.9,12.3,5.3,47.4C271.2,327.9,270,329.1,268.5,329.1z"/>
		</g>
		<g>
			<circle fill="#929498" cx="224.6" cy="205.8" r="31.1"/>
		</g>
	</g>
	<g clip-path="url(#SVGID_2_)">
		<g>
			<path fill="#929498" d="M365.1,309.6c0-61.4,56.6-83.8,56.6-83.8s56.6,21.8,56.6,83.8s-15.9,50.8-58.9,50.8
				S365.1,309.6,365.1,309.6z"/>
		</g>
		<g>
			<path fill="#CECFD2" d="M375.7,337.9C375.7,337.9,375.7,337.9,375.7,337.9c-1.6,0-2.8-1.3-2.8-2.8c0.5-32.1,5.7-49.3,5.9-50
				c0.5-1.5,2-2.3,3.5-1.8c1.5,0.5,2.3,2,1.9,3.5c-0.1,0.2-5.2,17.2-5.6,48.5C378.5,336.6,377.3,337.9,375.7,337.9z"/>
		</g>
		<g>
			<path fill="#CECFD2" d="M465.5,333.1C465.5,333.1,465.5,333.1,465.5,333.1c-1.6,0-2.8-1.3-2.8-2.9c0.5-33.4-4.7-44.7-4.8-44.9
				c-0.7-1.4-0.1-3.1,1.3-3.7c1.4-0.7,3.1-0.1,3.7,1.3c0.2,0.5,5.9,12.3,5.3,47.4C468.3,331.8,467,333.1,465.5,333.1z"/>
		</g>
		<g>
			<circle fill="#929498" cx="421.7" cy="209.7" r="31.1"/>
		</g>
	</g>
	<g clip-path="url(#SVGID_2_)">
		<g>
			<path fill="#2897DE" d="M237.3,343c0-95.6,88-130.4,88-130.4s88,33.8,88,130.4s-24.7,79-91.7,79S237.3,343,237.3,343z"/>
			<path fill="#CECFD2" d="M366.6,428.9c-5.6,0-11.8-0.3-18.4-0.5c-7.9-0.3-16.8-0.7-26.4-0.7c-70.7,0-89.7-82.6-89.9-83.4l-0.1-1.2
				c0-98.3,90.6-135.3,91.6-135.6l2-0.8l2,0.8c0.9,0.4,91.6,36.4,91.6,135.6C419,417,403.6,428.9,366.6,428.9z M243,342.3
				c0.8,3.3,5.4,20.5,16.4,37.4c15.8,24.3,36.8,36.7,62.4,36.7c9.9,0,18.9,0.4,26.9,0.7c6.5,0.3,12.6,0.5,17.9,0.5
				c27.8,0,41.2-3.2,41.2-74.7c0-83.6-69.6-118.6-82.4-124.3C312.1,224.6,243.3,259.2,243,342.3z"/>
		</g>
		<g>
			<path fill="#CECFD2" d="M253.9,385.4C253.9,385.4,253.9,385.4,253.9,385.4c-1.6,0-2.8-1.3-2.8-2.9c0.7-49.8,8.8-76.3,9.1-77.4
				c0.5-1.5,2-2.3,3.5-1.8c1.5,0.5,2.3,2,1.9,3.5c-0.1,0.3-8.2,27-8.9,75.8C256.7,384.2,255.4,385.4,253.9,385.4z"/>
		</g>
		<g>
			<path fill="#CECFD2" d="M393.6,378C393.5,378,393.5,378,393.6,378c-1.6,0-2.8-1.3-2.8-2.9c0.8-52.5-7.5-70.3-7.6-70.5
				c-0.7-1.4-0.1-3.1,1.3-3.7c1.4-0.7,3.1-0.1,3.7,1.3c0.4,0.7,9,18.8,8.1,73C396.3,376.8,395.1,378,393.6,378z"/>
		</g>
		<g>
			<circle fill="#2897DE" cx="325.4" cy="187.7" r="48.3"/>
		</g>
	</g>
	<g clip-path="url(#SVGID_2_)">
		<path fill="none" stroke="#CECFD2" stroke-width="2.8346" stroke-linecap="round" stroke-miterlimit="10" d="M267.4,296.5"/>
	</g>
	<g clip-path="url(#SVGID_2_)">
		<path fill="none" stroke="#CECFD2" stroke-width="2.8346" stroke-linecap="round" stroke-miterlimit="10" d="M256.1,382.6"/>
	</g>
	<g clip-path="url(#SVGID_2_)">
		<path fill="#929498" d="M325.4,369.1c-86.3,0-156.5-70.2-156.5-156.5c0-86.3,70.2-156.5,156.5-156.5
			c86.3,0,156.5,70.2,156.5,156.5C481.9,298.9,411.7,369.1,325.4,369.1z M325.4,67.3c-80.1,0-145.3,65.2-145.3,145.3
			s65.2,145.3,145.3,145.3s145.3-65.2,145.3-145.3S405.5,67.3,325.4,67.3z"/>
	</g>
</g>
</svg>
