<?xml version="1.0" encoding="utf-8"?>
<!-- Generator: Adobe Illustrator 18.1.1, SVG Export Plug-In . SVG Version: 6.00 Build 0)  -->
<svg version="1.1" id="Layer_1" xmlns="http://www.w3.org/2000/svg" xmlns:xlink="http://www.w3.org/1999/xlink" x="0px" y="0px"
	 viewBox="0 0 652 425.2" enable-background="new 0 0 652 425.2" xml:space="preserve">
<g>
	<path fill="#E1E1E1" d="M320.9,170.6l-38.4,19.5l-16.2,29.2v56.4l-21.6,11.5c0,0-18.2-20.9-16.8-24.3
		c1.3-3.4-27.5-101.1-27.5-101.1l3.2-22.2L234,92.5l31-19.5h105.8l9.4,31L320.9,170.6z"/>
</g>
<g>
	<path fill="#E1E1E1" d="M400.6,190.6l-31.2,52.7c0,0-0.5,21.5,11.3,34.1s11.8,12.6,11.8,12.6l1.3,36L378,361.7l36.6-14.2l22.4-9.7
		l20-23l20.1-62.2l9.3-24.2l-48.3-32.1L400.6,190.6z"/>
</g>
<g>
	<defs>
		<circle id="SVGID_1_" cx="336.8" cy="212.6" r="160.8"/>
	</defs>
	<clipPath id="SVGID_2_">
		<use xlink:href="#SVGID_1_"  overflow="visible"/>
	</clipPath>
	<g clip-path="url(#SVGID_2_)">
		<path fill="none" stroke="#929498" stroke-width="2.8346" stroke-miterlimit="10" d="M423.6,10.5"/>
	</g>
	<g clip-path="url(#SVGID_2_)">
		<path fill="none" stroke="#929498" stroke-width="2.8346" stroke-miterlimit="10" d="M153.1,343.8"/>
	</g>
	<g clip-path="url(#SVGID_2_)">
		<g>
			<path fill="#2897DE" d="M529.2,227.3c-24.1,16-48.9,28.5-73.8,37.6c-1.6-33.5-10.6-67.9-27.8-97c-5.5-9.4-14.1-21.5-26-33.1
				c36.9-1.6,77,4.7,118.9,19l3.7-10.8c-47.7-16.4-93.4-22.5-134.9-18.8c-12-9.2-26.5-17.3-44-22.3c-0.1,4.1-1,8-2.6,11.5
				c10.5,2.9,20.4,7.2,29.6,12.9c-29.6,4.7-56.7,14.8-80.4,30.2c3,2.5,5.4,5.5,7.3,9c25.3-16.1,54.6-26,86.8-29.5
				c12.1,9.9,22.7,22.5,31.7,37.8c16.8,28.6,25.5,62.4,26.7,95c-26.3,8.5-52.5,13.2-78.1,13.8c0.2,1.5,0.4,3.1,0.4,4.7
				c0,2.3-0.3,4.6-0.8,6.7c25.7-0.5,52.1-5,78.5-13.2c-1,45-16.6,86-45.3,105.5l6.4,9.5c32.3-22,49.6-68.5,50-118.7
				c27-9.5,53.9-22.9,80-40.1L529.2,227.3z"/>
		</g>
		<g>
			<path fill="#2897DE" d="M293.6,272.4c-22.1-7.1-42.3-17.9-60.6-31.9c6.6-13.2,14.3-25.3,23.1-36.2c-3.2-2.2-6-4.9-8.1-8.1
				c-9.1,11.2-17.1,23.5-24,37c-30.1-26.1-54.3-61.8-71.4-106.4l-10.7,4.1c18.2,47.5,44.2,85.5,76.9,113
				c-13.8,30.5-22.5,66.2-25.5,106.3l11.4,0.9c2.8-37.7,10.7-71.1,23.3-99.9c18.8,14.1,39.5,25,62.1,32.2c5.5,1.8,11.1,3.2,16.8,4.6
				c0-0.2,0-0.5,0-0.7c0-3.7,0.7-7.3,2-10.6C303.7,275.3,298.6,274,293.6,272.4z"/>
		</g>
		<g>
			<path fill="#2897DE" d="M286.7,109.8c-0.8-2.7-1.3-5.6-1.3-8.6c0-1.1,0.1-2.2,0.2-3.2c-24.3,3-52.1,11.4-83.8,27.4l5.2,10.2
				C235.2,121.4,262,112.8,286.7,109.8z"/>
		</g>
	</g>
	<g clip-path="url(#SVGID_2_)">
		<g>
			<path fill="#929498" d="M336.8,374.1c-89,0-161.5-72.4-161.5-161.5S247.7,51.1,336.8,51.1s161.5,72.4,161.5,161.5
				S425.8,374.1,336.8,374.1z M336.8,62.6c-82.7,0-150,67.3-150,150s67.3,150,150,150s150-67.3,150-150S419.5,62.6,336.8,62.6z"/>
		</g>
	</g>
</g>
<g>
	<path fill="#2897DE" d="M272.7,166.6c-7,0-12.8,5.7-12.8,12.8s5.7,12.8,12.8,12.8s12.8-5.7,12.8-12.8S279.7,166.6,272.7,166.6z"/>
	<path fill="#2897DE" d="M328.2,101.2c0-7-5.7-12.8-12.8-12.8c-7,0-12.8,5.7-12.8,12.8s5.7,12.8,12.8,12.8
		C322.4,114,328.2,108.3,328.2,101.2z"/>
	<path fill="#2897DE" d="M336.8,274.4c-7,0-12.8,5.7-12.8,12.8s5.7,12.8,12.8,12.8s12.8-5.7,12.8-12.8S343.8,274.4,336.8,274.4z"/>
</g>
</svg>
