<?xml version="1.0" encoding="utf-8"?>
<!-- Generator: Adobe Illustrator 18.1.1, SVG Export Plug-In . SVG Version: 6.00 Build 0)  -->
<svg version="1.1" id="Layer_1" xmlns="http://www.w3.org/2000/svg" xmlns:xlink="http://www.w3.org/1999/xlink" x="0px" y="0px"
	 viewBox="0 0 652 425.2" enable-background="new 0 0 652 425.2" xml:space="preserve">
<g>
	<g>
		<path fill="#939599" d="M182.3,213.2c-0.8,0-1.6-0.2-2.4-0.7c-2.2-1.3-2.9-4.2-1.6-6.4l53.1-89.5c0.6-1.1,1.7-1.9,2.9-2.2
			c1.2-0.3,2.5-0.1,3.6,0.6l53.1,34.7c2.1,1.4,2.8,4.3,1.3,6.4c-1.4,2.1-4.3,2.8-6.4,1.3l-49.1-32.1L186.3,211
			C185.4,212.4,183.9,213.2,182.3,213.2z"/>
	</g>
	<g>
		<polygon fill="#E1AA3C" points="430,154.7 371.3,183.9 415.9,254.8 471.6,224.8 		"/>
	</g>
	<g>
		<path fill="#939599" d="M415.9,259.5c-1.5,0-3.1-0.8-3.9-2.2l-54.6-86.9c-1.3-2.1-0.7-5,1.4-6.4l55.2-36.1
			c1.1-0.7,2.4-0.9,3.6-0.6s2.3,1.1,2.9,2.2l55.2,92.9c0.6,1.1,0.8,2.4,0.5,3.6c-0.3,1.2-1.2,2.3-2.3,2.9L418.2,259
			C417.4,259.3,416.6,259.5,415.9,259.5z M367.6,169.3l49.9,79.3l47.6-25.7l-50.2-84.6L367.6,169.3z"/>
	</g>
	<g>
		<path fill="#939599" d="M382.3,235.9c-8.3,0-17.7-2.2-24.6-10.3c-3.7-4.3-5.3-9.4-4.7-14.8c1.6-13.9,17.6-25.8,18.2-26.3
			c2.1-1.5,5-1.1,6.5,1s1.1,5-1,6.5c-3.7,2.8-13.6,11.7-14.5,19.9c-0.3,2.8,0.5,5.4,2.5,7.7c10.8,12.7,32.5,4.4,32.7,4.4
			c2.4-0.9,5.1,0.3,6,2.7s-0.3,5.1-2.7,6C400.2,232.8,392.1,235.9,382.3,235.9z"/>
	</g>
	<g>
		<path fill="#939599" d="M297.8,175.8c-1.7,0-3.4-1-4.2-2.6l-7.6-15.6c-1.1-2.3-0.1-5.1,2.2-6.2c2.3-1.1,5.1-0.1,6.2,2.2l7.6,15.6
			c1.1,2.3,0.1,5.1-2.2,6.2C299.2,175.7,298.5,175.8,297.8,175.8z"/>
	</g>
	<g>
		<path fill="#939599" d="M187.6,218.2c-0.4,0-0.8-0.1-1.2-0.3c-1.1-0.7-1.5-2.1-0.8-3.2l51.5-86.2c0.6-1.1,2-1.5,3.2-0.8l54.8,31.4
			c1.1,0.6,1.5,2.1,0.9,3.2c-0.6,1.1-2.1,1.5-3.2,0.9L240,132.9l-50.3,84.2C189.1,217.8,188.4,218.2,187.6,218.2z"/>
	</g>
	<g>
		<path fill="#939599" d="M191.5,230.5c-1.7,0-3.3-0.9-4.1-2.5l-9.2-17.3c-1.2-2.3-0.3-5.1,1.9-6.3c2.3-1.2,5.1-0.3,6.3,1.9
			l9.2,17.3c1.2,2.3,0.3,5.1-1.9,6.3C193,230.3,192.2,230.5,191.5,230.5z"/>
	</g>
	<g>
		<g>
			<path fill="#939599" d="M339.4,262.4c-0.9,0-1.8-0.3-2.6-0.8L313,245.2c-1.2-0.8-2-2.2-2-3.7s0.7-2.9,1.9-3.8l13.5-10.1
				l-0.2-11.5c0-1.4,0.6-2.8,1.7-3.7l30.4-25c1-0.9,2.4-1.2,3.7-1c1.3,0.2,2.5,1,3.2,2.2l19.9,33.1c0.8,1.4,0.9,3.2,0.1,4.6
				l-9.8,18.2c-0.7,1.4-2.1,2.3-3.7,2.4l-16.5,1.5L342.8,261C341.9,261.9,340.7,262.4,339.4,262.4z M323.6,241.1l15.2,10.5
				l10.8-11.1c0.8-0.8,1.8-1.3,2.9-1.4l15.8-1.4l7.4-13.6L360,197.9L335.5,218l0.2,11.6c0,1.5-0.7,2.9-1.9,3.8L323.6,241.1z"/>
		</g>
		<g>
			<path fill="#939599" d="M219.2,352.9c-2.2,0-4.1-1.5-4.5-3.7c-0.5-2.5,1.1-5,3.6-5.5l39.1-8l54.1-55.8l-18.2-16l-50.7,38
				c-0.7,0.6-1.6,0.9-2.5,0.9l-63.1,3.5c-2.5,0.1-4.8-1.8-4.9-4.4c-0.1-2.6,1.8-4.8,4.4-4.9l61.7-3.4l52.6-39.4
				c1.8-1.3,4.2-1.2,5.9,0.2l24.7,21.7c1,0.8,1.5,2,1.6,3.3s-0.4,2.5-1.3,3.4l-58.5,60.3c-0.7,0.7-1.5,1.1-2.4,1.3l-40.6,8.3
				C219.8,352.9,219.5,352.9,219.2,352.9z"/>
		</g>
	</g>
	<g>
		<path fill="#939599" d="M428,347.7c-0.3,0-0.7,0-1-0.1l-50.3-11.4c-0.8-0.2-1.5-0.5-2-1l-113.5-99.6l-16.8-1.5
			c-1.3-0.1-2.6-0.8-3.4-1.9l-13.1-18.1c-1.2-1.6-1.2-3.8,0-5.4l23.1-33.1c0.7-1.1,1.9-1.8,3.2-1.9c1.3-0.2,2.6,0.2,3.6,1l30.4,25
			c1.2,1,1.8,2.6,1.7,4.1l-1.5,12.7l104.2,72l76.2,1.1c2.6,0,4.6,2.1,4.6,4.7s-2.1,4.7-4.7,4.6l-77.6-1.1c-0.9,0-1.8-0.3-2.6-0.8
			l-107.7-74.4c-1.4-1-2.2-2.7-2-4.4l1.5-13L255.8,185l-18.4,26.2l9.9,13.8l16.2,1.5c1,0.1,1.9,0.5,2.6,1.1l113.6,99.8l49.1,11.1
			c2.5,0.6,4.1,3.1,3.5,5.6C432,346.3,430.1,347.7,428,347.7z"/>
	</g>
	<g>
		<polygon fill="#E95B4D" points="244.6,229.5 231.5,211.4 254.7,178.3 280.1,199.2 297.8,171.2 244.6,136.4 191.5,225.9 
			245.2,254.8 260.2,230.9 		"/>
		<path fill="#939599" d="M245.2,259.5c-0.7,0-1.5-0.2-2.2-0.6L189.3,230c-1.1-0.6-1.9-1.6-2.3-2.8c-0.3-1.2-0.2-2.5,0.5-3.6
			l53.1-89.5c0.6-1.1,1.7-1.9,2.9-2.2c1.2-0.3,2.5-0.1,3.6,0.6l53.1,34.7c2.1,1.4,2.7,4.2,1.4,6.4l-17.7,28.1
			c-0.7,1.1-1.9,1.9-3.2,2.1c-1.3,0.2-2.7-0.2-3.7-1l-21.6-17.7l-18.2,26.2l9.9,13.8l13.5,1.2c1.6,0.1,3,1.1,3.7,2.6
			c0.7,1.4,0.6,3.2-0.2,4.5l-15,23.9C248.2,258.7,246.7,259.5,245.2,259.5z M198,224.1l45.6,24.6l8.7-13.8l-8-0.7
			c-1.3-0.1-2.6-0.8-3.4-1.9l-13.1-18.1c-1.2-1.6-1.2-3.8,0-5.4l23.1-33.1c0.7-1.1,1.9-1.8,3.2-1.9c1.3-0.2,2.6,0.2,3.6,1l21.4,17.6
			l12.4-19.8L246.2,143L198,224.1z"/>
	</g>
	<g>
		<path fill="#939599" d="M321.2,387c-96.2,0-174.4-78.2-174.4-174.4S225,38.2,321.2,38.2s174.4,78.2,174.4,174.4
			S417.3,387,321.2,387z M321.2,47.5c-91,0-165.1,74.1-165.1,165.1s74.1,165.1,165.1,165.1s165.1-74.1,165.1-165.1
			S412.2,47.5,321.2,47.5z"/>
	</g>
</g>
</svg>
