<?xml version="1.0" encoding="utf-8"?>
<!-- Generator: Adobe Illustrator 18.1.1, SVG Export Plug-In . SVG Version: 6.00 Build 0)  -->
<svg version="1.1" id="Layer_1" xmlns="http://www.w3.org/2000/svg" xmlns:xlink="http://www.w3.org/1999/xlink" x="0px" y="0px"
	 viewBox="81 0 490 425.2" enable-background="new 81 0 490 425.2" xml:space="preserve">
<g>
	<g>
		<path fill="#E1E1E1" d="M187.1,213.2c-0.8,0-1.6-0.2-2.4-0.7c-2.2-1.3-2.9-4.2-1.6-6.4l53.1-89.5c0.6-1.1,1.7-1.9,2.9-2.2
			c1.2-0.3,2.5-0.1,3.6,0.6l53.1,34.7c2.1,1.4,2.8,4.3,1.3,6.4c-1.4,2.1-4.3,2.8-6.4,1.3l-49.1-32.1L191.1,211
			C190.2,212.4,188.7,213.2,187.1,213.2z"/>
	</g>
	<g>
		<polygon fill="#E1AA3C" points="434.8,154.7 376.1,183.9 420.7,254.8 476.4,224.8 		"/>
	</g>
	<g>
		<path fill="#E1E1E1" d="M420.7,259.5c-1.5,0-3.1-0.8-3.9-2.2l-54.6-86.9c-1.3-2.1-0.7-5,1.4-6.4l55.2-36.1
			c1.1-0.7,2.4-0.9,3.6-0.6c1.2,0.3,2.3,1.1,2.9,2.2l55.2,92.9c0.6,1.1,0.8,2.4,0.5,3.6c-0.3,1.2-1.2,2.3-2.3,2.9l-55.7,30.1
			C422.2,259.3,421.4,259.5,420.7,259.5z M372.4,169.3l49.9,79.3l47.6-25.7l-50.2-84.6L372.4,169.3z"/>
	</g>
	<g>
		<path fill="#E1E1E1" d="M387.1,235.9c-8.3,0-17.7-2.2-24.6-10.3c-3.7-4.3-5.3-9.4-4.7-14.8c1.6-13.9,17.6-25.8,18.2-26.3
			c2.1-1.5,5-1.1,6.5,1c1.5,2.1,1.1,5-1,6.5c-3.7,2.8-13.6,11.7-14.5,19.9c-0.3,2.8,0.5,5.4,2.5,7.7c10.8,12.7,32.5,4.4,32.7,4.4
			c2.4-0.9,5.1,0.3,6,2.7c0.9,2.4-0.3,5.1-2.7,6C405,232.8,396.9,235.9,387.1,235.9z"/>
	</g>
	<g>
		<path fill="#E1E1E1" d="M302.6,175.8c-1.7,0-3.4-1-4.2-2.6l-7.6-15.6c-1.1-2.3-0.1-5.1,2.2-6.2c2.3-1.1,5.1-0.1,6.2,2.2l7.6,15.6
			c1.1,2.3,0.1,5.1-2.2,6.2C304,175.7,303.3,175.8,302.6,175.8z"/>
	</g>
	<g>
		<path fill="#E1E1E1" d="M192.4,218.2c-0.4,0-0.8-0.1-1.2-0.3c-1.1-0.7-1.5-2.1-0.8-3.2l51.5-86.2c0.6-1.1,2-1.5,3.2-0.8l54.8,31.4
			c1.1,0.6,1.5,2.1,0.9,3.2c-0.6,1.1-2.1,1.5-3.2,0.9l-52.8-30.3l-50.3,84.2C193.9,217.8,193.2,218.2,192.4,218.2z"/>
	</g>
	<g>
		<path fill="#E1E1E1" d="M196.3,230.5c-1.7,0-3.3-0.9-4.1-2.5l-9.2-17.3c-1.2-2.3-0.3-5.1,1.9-6.3c2.3-1.2,5.1-0.3,6.3,1.9
			l9.2,17.3c1.2,2.3,0.3,5.1-1.9,6.3C197.8,230.3,197,230.5,196.3,230.5z"/>
	</g>
	<g>
		<g>
			<path fill="#E1E1E1" d="M344.2,262.4c-0.9,0-1.8-0.3-2.6-0.8l-23.8-16.4c-1.2-0.8-2-2.2-2-3.7c0-1.5,0.7-2.9,1.9-3.8l13.5-10.1
				l-0.2-11.5c0-1.4,0.6-2.8,1.7-3.7l30.4-25c1-0.9,2.4-1.2,3.7-1c1.3,0.2,2.5,1,3.2,2.2l19.9,33.1c0.8,1.4,0.9,3.2,0.1,4.6
				l-9.8,18.2c-0.7,1.4-2.1,2.3-3.7,2.4l-16.5,1.5L347.6,261C346.7,261.9,345.5,262.4,344.2,262.4z M328.4,241.1l15.2,10.5
				l10.8-11.1c0.8-0.8,1.8-1.3,2.9-1.4l15.8-1.4l7.4-13.6l-15.7-26.2L340.3,218l0.2,11.6c0,1.5-0.7,2.9-1.9,3.8L328.4,241.1z"/>
		</g>
		<g>
			<path fill="#E1E1E1" d="M224,352.9c-2.2,0-4.1-1.5-4.5-3.7c-0.5-2.5,1.1-5,3.6-5.5l39.1-8l54.1-55.8l-18.2-16l-50.7,38
				c-0.7,0.6-1.6,0.9-2.5,0.9l-63.1,3.5c-2.5,0.1-4.8-1.8-4.9-4.4c-0.1-2.6,1.8-4.8,4.4-4.9l61.7-3.4l52.6-39.4
				c1.8-1.3,4.2-1.2,5.9,0.2l24.7,21.7c1,0.8,1.5,2,1.6,3.3c0.1,1.3-0.4,2.5-1.3,3.4l-58.5,60.3c-0.7,0.7-1.5,1.1-2.4,1.3l-40.6,8.3
				C224.6,352.9,224.3,352.9,224,352.9z"/>
		</g>
	</g>
	<g>
		<path fill="#E1E1E1" d="M432.8,347.7c-0.3,0-0.7,0-1-0.1l-50.3-11.4c-0.8-0.2-1.5-0.5-2-1L266,235.6l-16.8-1.5
			c-1.3-0.1-2.6-0.8-3.4-1.9l-13.1-18.1c-1.2-1.6-1.2-3.8,0-5.4l23.1-33.1c0.7-1.1,1.9-1.8,3.2-1.9c1.3-0.2,2.6,0.2,3.6,1l30.4,25
			c1.2,1,1.8,2.6,1.7,4.1l-1.5,12.7l104.2,72l76.2,1.1c2.6,0,4.6,2.1,4.6,4.7c0,2.6-2.1,4.7-4.7,4.6l-77.6-1.1
			c-0.9,0-1.8-0.3-2.6-0.8l-107.7-74.4c-1.4-1-2.2-2.7-2-4.4l1.5-13l-24.5-20.2l-18.4,26.2l9.9,13.8l16.2,1.5c1,0.1,1.9,0.5,2.6,1.1
			l113.6,99.8l49.1,11.1c2.5,0.6,4.1,3.1,3.5,5.6C436.8,346.3,434.9,347.7,432.8,347.7z"/>
	</g>
	<g>
		<polygon fill="#E95B4D" points="249.4,229.5 236.3,211.4 259.5,178.3 284.9,199.2 302.6,171.2 249.4,136.4 196.3,225.9 250,254.8 
			265,230.9 		"/>
		<path fill="#E1E1E1" d="M250,259.5c-0.7,0-1.5-0.2-2.2-0.6L194.1,230c-1.1-0.6-1.9-1.6-2.3-2.8c-0.3-1.2-0.2-2.5,0.5-3.6
			l53.1-89.5c0.6-1.1,1.7-1.9,2.9-2.2c1.2-0.3,2.5-0.1,3.6,0.6l53.1,34.7c2.1,1.4,2.7,4.2,1.4,6.4l-17.7,28.1
			c-0.7,1.1-1.9,1.9-3.2,2.1c-1.3,0.2-2.7-0.2-3.7-1l-21.6-17.7L242,211.3l9.9,13.8l13.5,1.2c1.6,0.1,3,1.1,3.7,2.6
			c0.7,1.4,0.6,3.2-0.2,4.5l-15,23.9C253,258.7,251.5,259.5,250,259.5z M202.8,224.1l45.6,24.6l8.7-13.8l-8-0.7
			c-1.3-0.1-2.6-0.8-3.4-1.9l-13.1-18.1c-1.2-1.6-1.2-3.8,0-5.4l23.1-33.1c0.7-1.1,1.9-1.8,3.2-1.9c1.3-0.2,2.6,0.2,3.6,1l21.4,17.6
			l12.4-19.8L251,143L202.8,224.1z"/>
	</g>
	<g>
		<path fill="#939599" d="M326,387c-96.2,0-174.4-78.2-174.4-174.4S229.8,38.2,326,38.2c96.2,0,174.4,78.2,174.4,174.4
			S422.1,387,326,387z M326,47.5c-91,0-165.1,74.1-165.1,165.1S235,377.7,326,377.7c91,0,165.1-74.1,165.1-165.1S417,47.5,326,47.5z
			"/>
	</g>
</g>
</svg>
