<?xml version="1.0" encoding="utf-8"?>
<!-- Generator: Adobe Illustrator 18.1.1, SVG Export Plug-In . SVG Version: 6.00 Build 0)  -->
<svg version="1.1" id="Layer_1" xmlns="http://www.w3.org/2000/svg" xmlns:xlink="http://www.w3.org/1999/xlink" x="0px" y="0px"
	 viewBox="0 0 652 425.2" enable-background="new 0 0 652 425.2" xml:space="preserve">
<g>
	<g>
		<path fill="none" d="M322.3,194.4l14-135.9c-13.6-3.2-50.2-10.9-89.5-11.5c-40.4-0.7-79.5,6.2-92.7,8.8l-32.4,315.1
			c15.7-2.9,49.4-8.3,85.7-8.3c1.9,0,3.8,0,5.8,0c39.3,0.6,75.4,8,90.6,11.5L322.3,194.4z"/>
	</g>
	<g>
		<path fill="none" d="M349.7,58.8l-32.4,315.4c14.6-2.5,45.4-6.8,83.3-6.8c2.6,0,5.3,0,8,0.1c42.6,0.7,76.3,6.9,90.8,9.9
			l32.5-315.9c-11.4-2.8-41.5-9-89.6-9.8C392.6,51,360.9,56.5,349.7,58.8z"/>
	</g>
	<g>
		<path fill="#939599" d="M541.2,50.2c-1.4-0.4-34-10.7-98.8-11.8c-57.4-0.9-91,6.2-98.9,8.1c-8.9-2.3-50.4-12.2-96.6-12.9
			c-51-0.8-98.7,9.6-100.6,10.1c-2.8,0.6-4.9,3-5.2,5.9l-33.8,329.1c-0.2,2.1,0.6,4.3,2.2,5.7s3.8,2,5.9,1.5
			c0.5-0.1,48.2-10.5,97.4-9.8c49.2,0.8,94.6,12.8,95,12.9c0,0,0,0,0,0c0.3,0.1,0.5,0.1,0.8,0.2c0.1,0,0.2,0,0.3,0
			c0.2,0,0.3,0,0.5,0c0,0,0.1,0,0.1,0c0.1,0,0.1,0,0.2,0c0.2,0,0.4,0,0.6,0c0.1,0,0.2,0,0.3,0c0.1,0,0.2,0,0.3,0
			c0.4-0.1,42.9-9,97.3-8.1c54.3,0.9,94.8,11.2,95.2,11.3c0.6,0.1,1.1,0.2,1.7,0.2c1.4,0,2.7-0.4,3.8-1.2c1.6-1.1,2.6-2.9,2.8-4.8
			l33.8-329.1C546.2,54.1,544.3,51.1,541.2,50.2z M207.4,362.6c-36.3,0-70.1,5.4-85.7,8.3l32.4-315.1c13.2-2.6,52.3-9.5,92.7-8.8
			c39.2,0.6,75.9,8.4,89.5,11.5l-14,135.9l-18.5,179.7c-15.3-3.5-51.3-10.8-90.6-11.5C211.3,362.6,209.3,362.6,207.4,362.6z
			 M499.4,377.4c-14.5-3.1-48.2-9.2-90.8-9.9c-2.7,0-5.4-0.1-8-0.1c-38,0-68.8,4.3-83.3,6.8l32.4-315.4c11.1-2.3,42.9-7.8,92.5-7
			c48.1,0.8,78.2,6.9,89.6,9.8L499.4,377.4z"/>
	</g>
</g>
<g>
	<g>
		<g>
			<path fill="#4480C2" d="M192.7,91.2c-0.3,2.6-0.7,4.8-1.2,6.8c-0.5,1.9-1.4,3.7-2.5,5.4c-1.4,2-3.1,3.7-5.1,5
				c-2,1.3-4.2,2.2-6.6,2.6c-2.7,0.5-5.1,0.3-7.1-0.7c-2-0.9-3.4-2.5-4.3-4.6c-0.4-1.2-0.7-2.6-0.8-4.1c-0.1-1.5,0-3.2,0.1-5.1
				c0.2-2.4,0.6-4.6,1.1-6.5c0.5-2,1.1-3.7,1.8-5.2c1.3-2.5,3-4.6,5.1-6.2c2.1-1.6,4.6-2.7,7.3-3.2c1.8-0.3,3.5-0.3,4.9-0.1
				c1.4,0.3,2.7,0.9,3.7,1.7c1,0.8,1.9,2,2.5,3.4C192.9,82.8,193.2,86.4,192.7,91.2z M185.5,91.8c0.3-2.9,0.3-5.2,0.1-7
				c-0.2-1.8-0.7-3.1-1.5-3.8c-0.8-0.8-2.1-1-3.7-0.7c-2.3,0.4-4.1,1.8-5.2,4.1c-1.1,2.3-1.9,5.6-2.4,10c-0.3,3-0.4,5.4-0.2,7.2
				c0.2,1.8,0.7,3.1,1.5,3.9c0.8,0.8,2,1,3.6,0.8c1.6-0.3,3-1,4-2.2c1-1.2,1.8-2.7,2.4-4.7C184.7,97.4,185.1,94.9,185.5,91.8z"/>
			<path fill="#4480C2" d="M174.6,113.5c-1.9,0-3.7-0.4-5.3-1.1c-2.5-1.2-4.4-3.2-5.4-5.9c-0.5-1.4-0.8-3-0.9-4.8
				c-0.1-1.6-0.1-3.5,0.2-5.4c0.3-2.5,0.6-4.8,1.1-6.8c0.5-2.1,1.2-4,2-5.7c1.5-2.8,3.4-5.2,5.8-7c2.4-1.8,5.2-3,8.3-3.6
				c2.1-0.4,4-0.4,5.7-0.1c1.8,0.4,3.4,1.1,4.7,2.2c1.3,1.1,2.3,2.5,3.1,4.2c1.3,2.8,1.6,6.7,1.1,11.9c-0.3,2.7-0.7,5.1-1.3,7.1
				c-0.6,2.1-1.5,4.1-2.8,6c-1.6,2.3-3.5,4.2-5.8,5.7c-2.3,1.5-4.7,2.5-7.4,2.9C176.6,113.4,175.6,113.5,174.6,113.5z M183.5,77.4
				c-0.7,0-1.5,0.1-2.4,0.2c-2.4,0.4-4.5,1.4-6.4,2.7c-1.8,1.4-3.3,3.2-4.5,5.4c-0.7,1.3-1.2,2.9-1.7,4.7c-0.5,1.9-0.8,4-1,6.2
				c-0.2,1.7-0.2,3.3-0.1,4.7c0.1,1.3,0.3,2.5,0.6,3.5c0.6,1.5,1.6,2.7,3.1,3.3c1.6,0.7,3.5,0.9,5.7,0.5c2-0.4,4-1.1,5.7-2.3
				c1.8-1.2,3.3-2.6,4.5-4.4c1-1.4,1.7-3,2.2-4.7c0.5-1.8,0.9-3.9,1.1-6.4c0.4-4.4,0.2-7.6-0.7-9.6c-0.5-1.1-1.1-1.9-1.9-2.5
				c-0.7-0.6-1.6-1-2.7-1.2C184.7,77.5,184.1,77.4,183.5,77.4z M176.6,108.5L176.6,108.5c-2,0-3.3-0.8-4-1.5
				c-1.2-1.2-1.9-2.9-2.2-5.3c-0.2-2-0.2-4.5,0.2-7.7c0.5-4.7,1.3-8.2,2.6-10.8c1.4-2.9,3.8-4.7,6.8-5.3c0.6-0.1,1.1-0.2,1.6-0.2
				c2,0,3.3,0.8,4,1.5c1.2,1.2,2,2.9,2.2,5.2c0.2,2,0.2,4.4-0.1,7.5c-0.3,3.2-0.8,5.8-1.4,7.9c-0.7,2.2-1.6,4.1-2.9,5.5
				c-1.4,1.5-3.1,2.5-5.3,2.9C177.6,108.5,177.1,108.5,176.6,108.5z M181.6,82.3c-0.2,0-0.5,0-0.8,0.1c-1.6,0.3-2.8,1.2-3.6,2.9
				c-1,2-1.7,5.1-2.2,9.2c-0.3,2.8-0.3,5.1-0.2,6.7c0.2,1.7,0.6,2.3,0.9,2.5c0.1,0.1,0.3,0.2,0.9,0.2l0,0c0.2,0,0.5,0,0.8-0.1
				c1.1-0.2,2-0.7,2.7-1.5c0.8-0.9,1.5-2.2,1.9-3.8c0.5-1.8,0.9-4.2,1.2-7.1c0.3-2.7,0.3-4.9,0.1-6.5c-0.2-1.6-0.6-2.2-0.9-2.5
				C182.3,82.4,182,82.3,181.6,82.3z"/>
		</g>
		<g>
			<path fill="#4480C2" d="M209.3,103c0.9-8.6,1.3-12.9,2.2-21.6c-4.8,3.5-8,5.3-9.6,5.5c-0.7,0.1-1.4-0.1-1.9-0.6
				c-0.5-0.5-0.7-1-0.7-1.7c0.1-0.8,0.4-1.4,1-1.9c0.6-0.4,1.7-1.1,3.2-1.8c2.2-1.1,4.1-2.2,5.5-3.4c1.4-1.1,2.6-2.3,3.8-3.6
				c1.1-1.3,1.8-2.1,2.2-2.4c0.3-0.3,0.9-0.5,1.7-0.6c0.9-0.1,1.7,0.2,2.2,0.8c0.5,0.6,0.7,1.5,0.6,2.6c-1.1,10.9-1.7,16.3-2.8,27.2
				c-0.3,3.2-1.7,4.8-4.1,5c-1.1,0.1-1.9-0.2-2.5-0.8C209.4,105.2,209.2,104.3,209.3,103z"/>
			<path fill="#4480C2" d="M212.1,108.8c-1.9,0-3.1-0.8-3.7-1.4c-1.1-1.1-1.5-2.6-1.3-4.6l1.7-16.8c-3.9,2.5-5.5,3-6.6,3.2
				c-1.4,0.2-2.6-0.2-3.6-1.1c-1.1-0.9-1.6-2.2-1.4-3.6c0.1-1.4,0.8-2.6,1.9-3.5c0.7-0.5,1.9-1.2,3.5-2c2.1-1.1,3.8-2.1,5.1-3.1
				c1.3-1,2.4-2.2,3.5-3.3c1.6-1.8,2.1-2.4,2.4-2.6c0.7-0.7,1.7-1.1,3.1-1.1c1.7-0.1,3.1,0.5,4.1,1.6c0.9,1.1,1.3,2.5,1.1,4.3
				l-2.8,27.2c-0.6,5.8-4.1,6.9-6.2,7C212.5,108.8,212.3,108.8,212.1,108.8z M214.3,76.7l-2.7,26.5c-0.1,0.8,0.1,1,0.1,1
				c0.1,0.1,0.4,0.1,0.5,0.1l0.2,0c0.7,0,1.8-0.1,2.1-3l2.8-27.2c0.1-0.6,0-0.9-0.1-1c0,0-0.1,0-0.2,0c-0.3,0-0.5,0.1-0.6,0.1
				c-0.2,0.2-0.7,0.8-1.9,2.1c-1.2,1.4-2.6,2.7-4.1,3.9c-1.5,1.2-3.4,2.4-5.8,3.6c-1.8,0.9-2.6,1.4-2.9,1.6c0,0-0.1,0.1-0.1,0.1
				l0.1,0c0.4,0,2.2-0.5,8.5-5.1L214.3,76.7z"/>
		</g>
		<g>
			<path fill="#4480C2" d="M241.6,101.9c0.9-8.6,1.3-12.9,2.2-21.6c-4.8,3-8,4.6-9.5,4.6c-0.7,0-1.4-0.2-1.9-0.8
				c-0.5-0.5-0.7-1.1-0.7-1.8c0.1-0.8,0.4-1.4,1-1.8c0.6-0.4,1.7-0.9,3.2-1.5c2.2-0.9,4-1.9,5.4-2.9c1.4-1,2.6-2.1,3.7-3.3
				c1.1-1.2,1.8-2,2.2-2.2c0.3-0.3,0.9-0.4,1.7-0.4c0.9,0,1.7,0.4,2.1,1c0.5,0.7,0.7,1.6,0.6,2.7c-1.1,10.9-1.7,16.3-2.8,27.2
				c-0.3,3.2-1.7,4.7-4.1,4.7c-1.1,0-1.9-0.4-2.5-1C241.7,104.1,241.5,103.1,241.6,101.9z"/>
			<path fill="#4480C2" d="M245,108l-0.2,0c-2.1-0.1-3.4-1-4.1-1.8c-1-1.1-1.4-2.7-1.2-4.6l1.8-17.1c-4,2.3-5.7,2.6-6.8,2.6
				c0,0,0,0,0,0c-1.4,0-2.6-0.5-3.5-1.4c-1-1-1.5-2.3-1.3-3.6c0.2-1.5,0.9-2.7,2-3.5c0.7-0.5,1.9-1,3.5-1.7c2.1-0.9,3.8-1.7,5-2.6
				c1.3-0.9,2.4-1.9,3.4-3c1.6-1.7,2.1-2.2,2.4-2.4c0.7-0.6,1.7-0.9,3-0.9l0.2,0c1.6,0,3,0.7,3.9,1.9c0.8,1.1,1.2,2.6,1,4.3
				l-2.8,27.2C250.5,107.4,246.6,108,245,108z M246.6,75.9l-2.7,26.2c-0.1,0.7,0,1,0.1,1.2c0.1,0.1,0.2,0.3,0.9,0.3l0.1,2.2v-2.2
				c0.6,0,1.5,0,1.7-2.6l2.8-27.2c0.1-0.5,0-1-0.1-1.1c0-0.1-0.1-0.1-0.4-0.1c-0.2,0-0.3,0-0.4,0c-0.2,0.2-0.7,0.7-1.8,1.9
				c-1.2,1.3-2.6,2.5-4.1,3.6c-1.5,1.1-3.4,2.1-5.9,3.1c-1.8,0.7-2.5,1.1-2.8,1.3c0,0,0,0.1,0,0.1c0.1,0.1,0.2,0.1,0.3,0.1
				c0.4,0,2.1-0.3,8.4-4.3L246.6,75.9z"/>
		</g>
		<g>
			<path fill="#4480C2" d="M289.2,92c-0.3,2.6-0.7,4.8-1.2,6.6c-0.5,1.8-1.4,3.4-2.4,4.8c-1.4,1.7-3,2.9-5,3.7c-2,0.8-4.1,1-6.4,0.7
				c-2.6-0.3-5-1.2-6.9-2.8c-2-1.6-3.4-3.6-4.2-6.1c-0.4-1.4-0.7-2.8-0.7-4.4c-0.1-1.6,0-3.3,0.1-5.2c0.2-2.4,0.6-4.5,1.1-6.4
				c0.5-1.9,1.1-3.5,1.8-4.8c1.3-2.2,2.9-3.8,5-4.8c2.1-1,4.5-1.4,7.2-1.1c1.8,0.2,3.4,0.7,4.8,1.4c1.4,0.7,2.6,1.7,3.6,2.9
				c1,1.2,1.8,2.6,2.4,4.2C289.4,83.5,289.7,87.3,289.2,92z M282.1,90.5c0.3-2.9,0.3-5.3,0.2-7.2c-0.2-1.9-0.7-3.4-1.5-4.4
				c-0.8-1.1-2-1.7-3.6-1.9c-2.3-0.3-4,0.6-5.1,2.6c-1.1,2-1.9,5.2-2.3,9.6c-0.3,3-0.4,5.4-0.2,7.4c0.2,1.9,0.7,3.4,1.5,4.5
				c0.8,1.1,2,1.7,3.5,1.9c1.6,0.2,2.9-0.2,3.9-1.1c1-0.9,1.8-2.3,2.3-4.1C281.4,96,281.8,93.6,282.1,90.5z"/>
			<path fill="#4480C2" d="M275.9,110.2c-0.7,0-1.4,0-2-0.1c-3.1-0.4-5.8-1.5-8.1-3.3c-2.3-1.8-4-4.2-4.9-7.1
				c-0.5-1.6-0.8-3.2-0.9-5c-0.1-1.7,0-3.6,0.2-5.5c0.3-2.5,0.6-4.8,1.1-6.7c0.5-2.1,1.2-3.9,2-5.4c1.5-2.6,3.5-4.5,6-5.7
				c2.5-1.2,5.3-1.6,8.4-1.3c2,0.2,3.9,0.8,5.6,1.6c1.7,0.9,3.1,2,4.3,3.4c1.2,1.4,2.1,3,2.8,4.9c1.2,3.2,1.5,7.2,1,12.4
				c-0.3,2.7-0.7,5.1-1.3,7c-0.6,2.1-1.6,3.9-2.8,5.5c-1.6,2-3.6,3.5-6,4.4C279.6,109.8,277.8,110.2,275.9,110.2z M275.7,74.3
				c-1.6,0-3.1,0.3-4.4,0.9c-1.7,0.8-3,2.1-4.1,3.9c-0.6,1.1-1.2,2.6-1.6,4.3c-0.4,1.8-0.8,3.8-1,6.1c-0.2,1.7-0.2,3.3-0.1,4.8
				c0.1,1.4,0.3,2.7,0.7,3.9c0.7,2,1.8,3.6,3.4,4.9c1.6,1.3,3.5,2.1,5.8,2.3c1.9,0.2,3.7,0,5.4-0.6c1.6-0.6,3-1.6,4.1-3
				c0.9-1.1,1.6-2.5,2-4c0.5-1.7,0.9-3.8,1.1-6.2c0.5-4.4,0.2-7.9-0.7-10.4c-0.5-1.4-1.2-2.6-2-3.5c-0.8-0.9-1.8-1.7-2.9-2.3
				c-1.2-0.6-2.5-1-4-1.2C276.7,74.4,276.2,74.3,275.7,74.3z M275.4,105.3L275.4,105.3c-0.3,0-0.7,0-1.1-0.1
				c-2.2-0.3-3.9-1.2-5.1-2.7c-1.1-1.4-1.7-3.3-1.9-5.6c-0.2-2.1-0.1-4.7,0.2-7.8c0.5-4.7,1.3-8.1,2.6-10.4c1.6-2.8,4.1-4.2,7.3-3.8
				c2.2,0.3,3.9,1.2,5.1,2.7c1.1,1.4,1.7,3.3,1.9,5.6c0.2,2,0.2,4.6-0.2,7.6c-0.3,3.2-0.8,5.8-1.4,7.7c-0.7,2.2-1.7,3.9-3,5.1
				C278.7,104.7,277.2,105.3,275.4,105.3z M276.4,79.2c-1.1,0-1.8,0.5-2.4,1.5c-1,1.7-1.7,4.7-2.1,8.7c-0.3,2.8-0.3,5.1-0.2,6.9
				c0.1,1.5,0.5,2.6,1.1,3.4c0.3,0.4,0.8,0.8,2,1c0.2,0,0.4,0,0.5,0c0.9,0,1.4-0.3,1.6-0.5c0.7-0.6,1.3-1.6,1.7-3.1
				c0.5-1.7,0.9-4,1.2-6.9c0.3-2.7,0.3-5,0.2-6.7c-0.1-1.5-0.5-2.6-1-3.3c-0.3-0.4-0.8-0.9-2.1-1C276.7,79.2,276.6,79.2,276.4,79.2z
				"/>
		</g>
		<g>
			<path fill="#4480C2" d="M305.2,109.1c0.9-8.6,1.3-12.9,2.2-21.6c-4.7,2.1-7.8,3.1-9.3,2.8c-0.7-0.1-1.3-0.5-1.8-1.1
				c-0.5-0.6-0.7-1.3-0.6-2c0.1-0.8,0.4-1.4,1-1.6c0.6-0.3,1.6-0.6,3.1-0.9c2.2-0.5,3.9-1.1,5.3-1.9c1.3-0.7,2.6-1.6,3.6-2.6
				c1.1-1,1.8-1.6,2.1-1.9c0.3-0.2,0.9-0.2,1.7-0.1c0.9,0.2,1.6,0.7,2.1,1.5c0.5,0.8,0.7,1.7,0.5,2.9c-1.1,10.9-1.7,16.3-2.8,27.2
				c-0.3,3.2-1.7,4.5-4,3.9c-1-0.2-1.8-0.7-2.4-1.5C305.2,111.4,305,110.4,305.2,109.1z"/>
			<path fill="#4480C2" d="M309.2,116.1c-0.5,0-1-0.1-1.5-0.2c-1.6-0.4-2.8-1.2-3.7-2.4c-0.9-1.2-1.2-2.8-1.1-4.6l1.8-17.8
				c-3.4,1.3-5.6,1.7-7.1,1.5c-1.2-0.2-2.3-0.9-3.2-2c-0.9-1.1-1.3-2.3-1.1-3.6c0.2-1.6,1-2.8,2.3-3.4c0.8-0.4,1.9-0.7,3.5-1.1
				c2-0.5,3.6-1,4.7-1.6c1.2-0.6,2.2-1.4,3.2-2.3c1.5-1.5,2.1-1.9,2.4-2.1c0.9-0.6,2-0.7,3.5-0.4c1.5,0.3,2.7,1.2,3.5,2.5
				c0.7,1.2,1,2.6,0.9,4.3l-2.8,27.2C313.9,115.5,310.6,116.1,309.2,116.1z M310,83.9l-2.6,25.5c-0.1,0.7,0,1.2,0.2,1.5
				c0.2,0.2,0.4,0.5,1.1,0.7c0.2,0,0.3,0.1,0.5,0.1c0.5,0,0.8-1.6,0.8-2l2.8-27.2c0.1-0.6,0-1.1-0.2-1.5c-0.2-0.3-0.3-0.4-0.7-0.5
				c-0.1,0-0.1,0-0.2,0c-0.3,0.2-0.7,0.6-1.5,1.4c-1.2,1.2-2.6,2.2-4.1,3c-1.5,0.8-3.4,1.5-5.8,2.1c-1.3,0.3-2,0.5-2.3,0.7
				c0,0.1,0.1,0.2,0.2,0.3c0.2,0.3,0.4,0.3,0.5,0.3c0.9,0,2.8-0.3,7.9-2.7L310,83.9z"/>
		</g>
		<g>
			<path fill="#4480C2" d="M170.8,165.6c0.9-8.6,1.3-12.9,2.2-21.6c-4.8,3.9-8,6.1-9.6,6.4c-0.7,0.2-1.4,0-1.9-0.4
				c-0.5-0.4-0.7-1-0.7-1.7c0.1-0.8,0.4-1.5,1-2c0.6-0.5,1.7-1.2,3.2-2.1c2.2-1.3,4.1-2.6,5.4-3.9c1.4-1.2,2.6-2.6,3.8-4
				c1.1-1.4,1.8-2.3,2.2-2.6c0.3-0.3,0.9-0.6,1.8-0.7c0.9-0.2,1.7,0,2.2,0.6c0.5,0.6,0.7,1.4,0.6,2.5c-1.1,10.9-1.7,16.3-2.8,27.2
				c-0.3,3.2-1.7,5-4.1,5.4c-1.1,0.2-1.9,0-2.5-0.5C171,167.8,170.7,166.9,170.8,165.6z"/>
			<path fill="#4480C2" d="M173.3,171.1c-1.3,0-2.4-0.4-3.2-1.2c-1.2-1-1.6-2.6-1.4-4.6l1.7-16.4c-3.7,2.7-5.3,3.4-6.4,3.6
				c-1.4,0.3-2.7,0-3.7-0.8c-1.1-0.9-1.7-2.2-1.5-3.6c0.1-1.4,0.8-2.6,1.8-3.5c0.7-0.6,1.8-1.3,3.4-2.3c2.1-1.3,3.9-2.5,5.1-3.6
				c1.3-1.2,2.5-2.4,3.5-3.7c1.6-2,2.1-2.5,2.3-2.8c0.7-0.7,1.7-1.1,3-1.4c1.8-0.3,3.2,0.2,4.2,1.3c0.9,1,1.3,2.5,1.1,4.3l-2.8,27.2
				c-0.6,5.6-4,7-6,7.4C174,171.1,173.6,171.1,173.3,171.1z M175.8,138.9l-2.8,26.9c0,0.5,0,0.7,0,0.8c0,0,0.1,0,0.2,0
				c0.1,0,0.3,0,0.4,0c0.6-0.1,2-0.3,2.3-3.4l2.8-27.2c0-0.3,0-0.6,0-0.7c-0.1,0-0.1,0-0.1,0c-0.5,0.1-0.6,0.2-0.6,0.2
				c0,0-0.5,0.5-1.9,2.4c-0.8,1.1-1.8,2.1-2.8,3.1L175.8,138.9z M167.7,145.4c-0.5,0.3-0.9,0.6-1.4,0.9c-1.6,1-2.4,1.6-2.8,1.8
				C164.1,147.8,165.3,147.1,167.7,145.4z"/>
		</g>
		<g>
			<path fill="#4480C2" d="M219.2,146.6c-0.3,2.6-0.7,4.8-1.2,6.7c-0.5,1.9-1.4,3.6-2.5,5.2c-1.4,1.9-3.1,3.4-5.1,4.6
				c-2,1.1-4.2,1.8-6.5,2c-2.7,0.2-5.1-0.2-7.1-1.4c-2-1.1-3.4-2.8-4.3-5.1c-0.4-1.2-0.7-2.6-0.8-4.2c-0.1-1.6,0-3.3,0.1-5.1
				c0.2-2.4,0.6-4.6,1.1-6.5c0.5-1.9,1.1-3.6,1.8-5.1c1.3-2.4,3-4.3,5.1-5.7c2.1-1.4,4.6-2.2,7.3-2.5c1.8-0.1,3.5,0,4.9,0.4
				c1.4,0.4,2.7,1.1,3.7,2.1c1,1,1.8,2.2,2.5,3.6C219.4,138.2,219.6,141.8,219.2,146.6z M211.9,146.5c0.3-2.9,0.3-5.2,0.1-7.1
				c-0.2-1.8-0.7-3.2-1.5-4c-0.8-0.9-2.1-1.3-3.7-1.1c-2.3,0.2-4.1,1.4-5.2,3.6c-1.1,2.2-1.9,5.5-2.4,9.9c-0.3,3-0.4,5.4-0.2,7.2
				c0.2,1.9,0.7,3.2,1.5,4.1c0.8,0.9,2,1.3,3.6,1.1c1.6-0.1,3-0.7,4-1.8c1-1.1,1.8-2.6,2.4-4.5C211.2,152,211.6,149.5,211.9,146.5z"
				/>
			<path fill="#4480C2" d="M202.5,167.3c-2.6,0-4.9-0.6-6.9-1.7c-2.5-1.4-4.2-3.5-5.3-6.3c-0.5-1.5-0.8-3.1-0.9-4.8
				c-0.1-1.7-0.1-3.5,0.2-5.5c0.3-2.5,0.6-4.8,1.1-6.8c0.5-2.1,1.2-4,2-5.6c1.5-2.8,3.4-5,5.9-6.6c2.4-1.6,5.3-2.6,8.4-2.8
				c2.1-0.2,4,0,5.7,0.5c1.8,0.5,3.3,1.4,4.6,2.6c1.2,1.2,2.3,2.6,3,4.4c1.2,2.9,1.6,6.9,1.1,12.1c-0.3,2.7-0.7,5.1-1.3,7.1
				c-0.6,2.1-1.6,4.1-2.8,5.8c-1.6,2.2-3.6,3.9-5.9,5.2c-2.3,1.3-4.8,2-7.5,2.3C203.5,167.3,203,167.3,202.5,167.3z M208.6,131.6
				c-0.4,0-0.8,0-1.2,0.1c-2.4,0.2-4.5,0.9-6.3,2.1c-1.8,1.2-3.3,2.8-4.4,4.9c-0.6,1.3-1.2,2.8-1.6,4.6c-0.5,1.8-0.8,3.9-1,6.2
				c-0.2,1.7-0.2,3.3-0.1,4.7c0.1,1.4,0.3,2.6,0.7,3.6c0.6,1.7,1.7,3,3.2,3.9c1.6,0.9,3.5,1.3,5.8,1.1c2-0.2,3.9-0.7,5.6-1.7
				c1.8-1,3.2-2.3,4.4-3.9c0.9-1.3,1.7-2.8,2.2-4.5c0.5-1.7,0.9-3.9,1.1-6.3c0.4-4.4,0.2-7.7-0.7-9.9c-0.5-1.2-1.2-2.1-1.9-2.9
				c-0.8-0.7-1.7-1.2-2.8-1.6C210.6,131.8,209.6,131.6,208.6,131.6z M203.6,162.5c-2.4,0-3.9-1-4.7-1.9c-1.2-1.3-1.9-3-2.1-5.4
				c-0.2-2-0.2-4.6,0.2-7.7c0.5-4.7,1.3-8.2,2.6-10.7c1.5-2.9,3.9-4.5,7-4.8c2.9-0.2,4.6,0.9,5.5,1.8c1.2,1.2,1.9,3,2.1,5.3
				c0.2,2,0.2,4.5-0.1,7.5c-0.3,3.2-0.8,5.8-1.4,7.8c-0.7,2.2-1.6,4-2.9,5.4c-1.4,1.5-3.2,2.3-5.4,2.5
				C204.1,162.5,203.9,162.5,203.6,162.5z M207.4,136.5c-0.1,0-0.3,0-0.4,0c-1.6,0.1-2.6,0.9-3.4,2.4c-1,1.9-1.7,5-2.1,9.1
				c-0.3,2.8-0.3,5.1-0.2,6.8c0.2,1.7,0.6,2.5,0.9,2.8c0.1,0.1,0.4,0.4,1.4,0.4c0.1,0,0.3,0,0.4,0c1.1-0.1,1.9-0.4,2.6-1.1
				c0.8-0.8,1.4-2,1.9-3.6c0.5-1.8,0.9-4.1,1.2-7c0.3-2.7,0.3-4.9,0.1-6.6c-0.1-1.3-0.5-2.2-0.9-2.8
				C208.8,136.8,208.5,136.5,207.4,136.5z"/>
		</g>
		<g>
			<path fill="#4480C2" d="M235.7,160.2c0.9-8.6,1.3-12.9,2.2-21.6c-4.8,3-8,4.6-9.5,4.6c-0.7,0-1.4-0.2-1.9-0.8
				c-0.5-0.5-0.7-1.1-0.7-1.8c0.1-0.8,0.4-1.4,1-1.8c0.6-0.4,1.7-0.9,3.2-1.5c2.2-0.9,4-1.9,5.4-2.9c1.4-1,2.6-2.1,3.7-3.3
				c1.1-1.2,1.8-2,2.2-2.2c0.3-0.3,0.9-0.4,1.7-0.4c0.9,0,1.7,0.4,2.1,1c0.5,0.7,0.7,1.6,0.6,2.7c-1.1,10.9-1.7,16.3-2.8,27.2
				c-0.3,3.2-1.7,4.7-4.1,4.7c-1.1,0-1.9-0.4-2.5-1C235.7,162.4,235.5,161.4,235.7,160.2z"/>
			<path fill="#4480C2" d="M239,166.3l-0.2,0c-2.1-0.1-3.4-1-4.1-1.8c-1-1.1-1.4-2.7-1.2-4.6l1.8-17.1c-4,2.3-5.7,2.6-6.8,2.6
				c0,0,0,0,0,0c-1.4,0-2.6-0.5-3.5-1.4c-1-1-1.5-2.3-1.3-3.6c0.2-1.5,0.9-2.7,2-3.5c0.7-0.5,1.9-1,3.5-1.7c2.1-0.9,3.8-1.7,5-2.6
				c1.3-0.9,2.4-1.9,3.4-3c1.6-1.7,2.1-2.2,2.4-2.4c0.7-0.6,1.7-0.9,3-0.9l0.2,0c1.6,0,3,0.7,3.9,1.9c0.8,1.1,1.2,2.6,1,4.3
				l-2.8,27.2C244.5,165.7,240.6,166.3,239,166.3z M240.6,134.2l-2.7,26.2c-0.1,0.7,0,1,0.1,1.2c0.1,0.1,0.2,0.3,0.9,0.3l0.1,2.2
				v-2.2c0.6,0,1.5,0,1.7-2.6l2.8-27.2c0.1-0.5,0-1-0.1-1.1c0-0.1-0.1-0.1-0.4-0.1c-0.2,0-0.3,0-0.4,0c-0.2,0.2-0.7,0.7-1.8,1.9
				c-1.2,1.3-2.6,2.5-4.1,3.6c-1.5,1.1-3.4,2.1-5.9,3.1c-1.8,0.7-2.5,1.1-2.8,1.3c0,0,0,0.1,0,0.1c0.1,0.1,0.2,0.1,0.3,0.1
				c0.4,0,2.1-0.3,8.4-4.3L240.6,134.2z"/>
		</g>
		<g>
			<path fill="#4480C2" d="M283.2,150.3c-0.3,2.6-0.7,4.8-1.2,6.6c-0.5,1.8-1.4,3.4-2.4,4.8c-1.4,1.7-3,2.9-5,3.7
				c-2,0.8-4.1,1-6.4,0.7c-2.6-0.3-5-1.2-6.9-2.8c-2-1.6-3.4-3.6-4.2-6.1c-0.4-1.4-0.7-2.8-0.7-4.4c-0.1-1.6,0-3.3,0.1-5.2
				c0.2-2.4,0.6-4.5,1.1-6.4c0.5-1.9,1.1-3.5,1.8-4.8c1.3-2.2,2.9-3.8,5-4.8c2.1-1,4.5-1.4,7.2-1.1c1.8,0.2,3.4,0.7,4.8,1.4
				c1.4,0.7,2.6,1.7,3.6,2.9c1,1.2,1.8,2.6,2.4,4.2C283.4,141.7,283.7,145.5,283.2,150.3z M276.1,148.8c0.3-2.9,0.3-5.3,0.2-7.2
				c-0.2-1.9-0.7-3.4-1.5-4.4c-0.8-1.1-2-1.7-3.6-1.9c-2.3-0.3-4,0.6-5.1,2.6c-1.1,2-1.9,5.2-2.3,9.6c-0.3,3-0.4,5.4-0.2,7.4
				c0.2,1.9,0.7,3.4,1.5,4.5c0.8,1.1,2,1.7,3.5,1.9c1.6,0.2,2.9-0.2,3.9-1.1c1-0.9,1.8-2.3,2.3-4.1
				C275.4,154.3,275.8,151.8,276.1,148.8z"/>
			<path fill="#4480C2" d="M269.9,168.4c-0.7,0-1.4,0-2-0.1c-3.1-0.4-5.8-1.5-8.1-3.3c-2.3-1.8-4-4.2-4.9-7.1
				c-0.5-1.6-0.8-3.2-0.9-5c-0.1-1.7,0-3.6,0.2-5.5c0.3-2.5,0.6-4.8,1.1-6.7c0.5-2.1,1.2-3.9,2-5.4c1.5-2.6,3.5-4.5,6-5.7
				c2.5-1.2,5.3-1.6,8.4-1.3c2,0.2,3.9,0.8,5.6,1.6c1.7,0.9,3.1,2,4.3,3.4c1.2,1.4,2.1,3,2.8,4.9c1.2,3.2,1.5,7.2,1,12.4
				c-0.3,2.7-0.7,5.1-1.3,7c-0.6,2.1-1.6,3.9-2.8,5.5c-1.6,2-3.6,3.5-6,4.4C273.6,168.1,271.8,168.4,269.9,168.4z M269.7,132.6
				c-1.6,0-3.1,0.3-4.4,0.9c-1.7,0.8-3,2.1-4.1,3.9c-0.6,1.1-1.2,2.6-1.6,4.3c-0.4,1.8-0.8,3.8-1,6.1c-0.2,1.7-0.2,3.3-0.1,4.8
				c0.1,1.4,0.3,2.7,0.7,3.9c0.7,2,1.8,3.6,3.4,4.9c1.6,1.3,3.5,2.1,5.8,2.3c1.9,0.2,3.7,0,5.4-0.6c1.6-0.6,3-1.6,4.1-3
				c0.9-1.1,1.6-2.5,2-4c0.5-1.7,0.9-3.8,1.1-6.2c0.5-4.4,0.2-7.9-0.7-10.4c-0.5-1.4-1.2-2.6-2-3.5c-0.8-0.9-1.8-1.7-2.9-2.3
				c-1.2-0.6-2.5-1-4-1.2C270.8,132.7,270.2,132.6,269.7,132.6z M269.4,163.6L269.4,163.6c-0.3,0-0.7,0-1.1-0.1
				c-2.2-0.3-3.9-1.2-5.1-2.7c-1.1-1.4-1.7-3.3-1.9-5.6c-0.2-2.1-0.1-4.7,0.2-7.8c0.5-4.7,1.3-8.1,2.6-10.4c1.6-2.8,4.1-4.2,7.3-3.8
				c2.2,0.3,4,1.2,5.1,2.7c1.1,1.4,1.7,3.3,1.9,5.6c0.2,2,0.2,4.6-0.2,7.6c-0.3,3.2-0.8,5.8-1.4,7.7c-0.7,2.2-1.7,3.9-3,5.1
				C272.7,163,271.2,163.6,269.4,163.6z M270.4,137.5c-1.1,0-1.8,0.5-2.4,1.5c-1,1.7-1.7,4.7-2.1,8.7c-0.3,2.8-0.3,5.1-0.2,6.9
				c0.1,1.5,0.5,2.6,1.1,3.4c0.3,0.4,0.8,0.8,2,1c0.2,0,0.4,0,0.5,0c0.9,0,1.4-0.3,1.6-0.5c0.7-0.6,1.3-1.6,1.7-3.1
				c0.5-1.7,0.9-4,1.2-6.9c0.3-2.7,0.3-5,0.2-6.7c-0.1-1.5-0.5-2.6-1-3.3c-0.2-0.2-0.6-0.8-2.1-1
				C270.7,137.5,270.6,137.5,270.4,137.5z"/>
		</g>
		<g>
			<path fill="#4480C2" d="M314.4,156.9c-0.3,2.6-0.7,4.8-1.2,6.6c-0.5,1.8-1.3,3.3-2.4,4.6c-1.3,1.6-3,2.6-4.9,3.2
				c-1.9,0.6-4,0.6-6.3,0.1c-2.6-0.6-4.9-1.7-6.8-3.5c-1.9-1.8-3.3-3.9-4.1-6.5c-0.4-1.4-0.6-2.9-0.7-4.6c-0.1-1.6,0-3.4,0.2-5.2
				c0.2-2.4,0.6-4.5,1.1-6.4c0.5-1.9,1.1-3.4,1.8-4.7c1.2-2.1,2.9-3.6,5-4.4c2.1-0.8,4.4-0.9,7.1-0.4c1.8,0.4,3.3,1,4.7,1.9
				c1.4,0.9,2.5,1.9,3.5,3.2c1,1.3,1.8,2.8,2.3,4.5C314.6,148.3,314.9,152.2,314.4,156.9z M307.5,154.7c0.3-2.9,0.4-5.3,0.2-7.2
				c-0.2-1.9-0.7-3.5-1.5-4.6c-0.8-1.1-2-1.9-3.5-2.2c-2.3-0.5-3.9,0.2-5,2.2c-1.1,1.9-1.9,5.1-2.3,9.5c-0.3,3-0.4,5.4-0.2,7.4
				c0.2,2,0.7,3.5,1.5,4.7c0.8,1.2,1.9,1.9,3.5,2.2c1.6,0.3,2.8,0.1,3.8-0.7c1-0.8,1.8-2.1,2.3-3.9
				C306.7,160.2,307.2,157.7,307.5,154.7z"/>
			<path fill="#4480C2" d="M302.7,174c-1.1,0-2.3-0.1-3.5-0.4c-3-0.7-5.6-2-7.8-4c-2.2-2-3.8-4.6-4.7-7.5c-0.5-1.6-0.7-3.3-0.8-5.1
				c-0.1-1.7,0-3.6,0.2-5.6c0.3-2.5,0.6-4.7,1.1-6.7c0.5-2,1.2-3.8,2-5.3c1.5-2.6,3.6-4.3,6.1-5.3c2.5-1,5.3-1.1,8.4-0.5
				c2,0.4,3.8,1.2,5.4,2.2c1.6,1,3,2.3,4.1,3.8c1.1,1.5,2,3.2,2.7,5.1c1.1,3.2,1.4,7.5,0.9,12.5c-0.3,2.7-0.7,5.1-1.3,7
				c-0.6,2.1-1.6,3.9-2.8,5.4c-1.6,1.9-3.7,3.2-6,3.9C305.3,173.8,304,174,302.7,174z M299.9,137.6c-1.1,0-2.2,0.2-3.1,0.6
				c-1.6,0.6-2.9,1.8-3.9,3.4c-0.6,1.1-1.1,2.4-1.5,4.1c-0.4,1.8-0.8,3.8-1,6.1c-0.2,1.7-0.2,3.4-0.1,4.9c0.1,1.5,0.3,2.8,0.6,4.1
				c0.7,2.2,1.8,4,3.5,5.5c1.6,1.5,3.5,2.5,5.8,3c1.9,0.4,3.6,0.4,5.2-0.1c1.5-0.4,2.8-1.3,3.8-2.5c0.9-1,1.5-2.3,2-3.8
				c0.5-1.6,0.9-3.7,1.1-6.1c0.5-4.4,0.2-8-0.7-10.6c-0.5-1.5-1.2-2.8-2-3.9c-0.8-1.1-1.8-2-2.9-2.7c-1.2-0.7-2.5-1.3-4-1.6
				C301.6,137.7,300.7,137.6,299.9,137.6z M301.4,168.9L301.4,168.9c-0.6,0-1.2-0.1-1.8-0.2c-2.1-0.5-3.7-1.5-4.8-3.2
				c-1-1.5-1.6-3.4-1.8-5.7c-0.2-2.1-0.1-4.7,0.2-7.9c0.5-4.7,1.3-8.1,2.6-10.3c1.6-2.8,4.2-3.9,7.5-3.2c2.1,0.5,3.8,1.5,4.9,3.2
				c1,1.5,1.6,3.4,1.8,5.7c0.2,2.1,0.1,4.7-0.2,7.7c-0.3,3.2-0.8,5.7-1.4,7.7c-0.7,2.2-1.7,3.9-3,5
				C304.2,168.5,302.9,168.9,301.4,168.9z M301.4,142.7c-0.6,0-1.2,0.1-1.8,1.2c-0.6,1.1-1.5,3.5-2,8.6c-0.3,2.8-0.4,5.2-0.2,7
				c0.1,1.6,0.5,2.8,1.1,3.6c0.5,0.7,1.1,1.1,2.1,1.3c0.3,0.1,0.6,0.1,0.9,0.1l0,0c0.6,0,0.9-0.2,1.1-0.3c0.6-0.5,1.2-1.5,1.6-2.8
				c0.5-1.7,0.9-4,1.2-6.8c0.3-2.7,0.3-5,0.2-6.8c-0.1-1.5-0.5-2.7-1.1-3.6c-0.5-0.7-1.2-1.1-2.2-1.3
				C301.9,142.7,301.6,142.7,301.4,142.7z"/>
		</g>
		<g>
			<path fill="#4480C2" d="M164.9,223.9c0.9-8.6,1.3-12.9,2.2-21.6c-4.8,3.9-8,6.1-9.6,6.4c-0.7,0.2-1.4,0-1.9-0.4
				c-0.5-0.4-0.7-1-0.7-1.7c0.1-0.8,0.4-1.5,1-2c0.6-0.5,1.7-1.2,3.2-2.1c2.2-1.3,4.1-2.6,5.4-3.9c1.4-1.2,2.6-2.6,3.8-4
				c1.1-1.4,1.8-2.3,2.2-2.6c0.3-0.3,0.9-0.6,1.8-0.7c0.9-0.2,1.7,0,2.2,0.6c0.5,0.6,0.7,1.4,0.6,2.5c-1.1,10.9-1.7,16.3-2.8,27.2
				c-0.3,3.2-1.7,5-4.1,5.4c-1.1,0.2-1.9,0-2.5-0.5C165,226,164.7,225.1,164.9,223.9z"/>
			<path fill="#4480C2" d="M167.3,229.4c-1.3,0-2.4-0.4-3.2-1.2c-1.2-1-1.6-2.6-1.4-4.6l1.7-16.4c-3.7,2.7-5.3,3.4-6.4,3.6
				c-1.4,0.3-2.7,0-3.7-0.8c-1.1-0.9-1.7-2.2-1.5-3.6c0.1-1.4,0.8-2.6,1.8-3.5c0.7-0.6,1.8-1.3,3.4-2.3c2.1-1.3,3.9-2.5,5.1-3.6
				c1.3-1.2,2.5-2.4,3.5-3.7c1.6-2,2.1-2.5,2.3-2.8c0.7-0.7,1.7-1.1,3-1.4c1.8-0.3,3.2,0.2,4.2,1.3c0.9,1,1.3,2.5,1.1,4.3l-2.8,27.2
				c-0.6,5.6-4,7-6,7.4C168,229.4,167.6,229.4,167.3,229.4z M169.9,197.2l-2.8,26.9c0,0.5,0,0.7,0,0.8c0,0,0.1,0,0.2,0
				c0.1,0,0.3,0,0.4,0c0.6-0.1,2-0.3,2.3-3.4l2.8-27.2c0-0.3,0-0.6,0-0.7c-0.1,0-0.1,0-0.1,0c-0.5,0.1-0.6,0.2-0.6,0.2
				c0,0-0.5,0.5-1.9,2.4c-0.8,1.1-1.8,2.1-2.8,3.1L169.9,197.2z M161.7,203.7c-0.5,0.3-0.9,0.6-1.4,0.9c-1.6,1-2.4,1.5-2.8,1.8
				C158.1,206.1,159.4,205.4,161.7,203.7z"/>
		</g>
		<g>
			<path fill="#4480C2" d="M213.2,204.9c-0.3,2.6-0.7,4.8-1.2,6.7c-0.5,1.9-1.4,3.6-2.5,5.2c-1.4,1.9-3.1,3.4-5.1,4.6
				c-2,1.1-4.2,1.8-6.5,2c-2.7,0.2-5.1-0.2-7.1-1.4c-2-1.1-3.4-2.8-4.3-5.1c-0.4-1.2-0.7-2.6-0.8-4.2c-0.1-1.6,0-3.3,0.1-5.1
				c0.2-2.4,0.6-4.6,1.1-6.5c0.5-1.9,1.1-3.6,1.8-5.1c1.3-2.4,3-4.3,5.1-5.7c2.1-1.4,4.6-2.2,7.3-2.5c1.8-0.1,3.5,0,4.9,0.4
				c1.4,0.4,2.7,1.1,3.7,2.1c1,1,1.8,2.2,2.5,3.6C213.4,196.4,213.7,200.1,213.2,204.9z M205.9,204.8c0.3-2.9,0.3-5.2,0.1-7.1
				c-0.2-1.8-0.7-3.2-1.5-4c-0.8-0.9-2.1-1.3-3.7-1.1c-2.3,0.2-4.1,1.4-5.2,3.6c-1.1,2.2-1.9,5.5-2.4,9.9c-0.3,3-0.4,5.4-0.2,7.2
				c0.2,1.9,0.7,3.2,1.5,4.1c0.8,0.9,2,1.3,3.6,1.1c1.6-0.1,3-0.7,4-1.8c1-1.1,1.8-2.6,2.4-4.5C205.2,210.3,205.6,207.8,205.9,204.8
				z"/>
			<path fill="#4480C2" d="M196.5,225.6c-2.6,0-4.9-0.6-6.9-1.7c-2.5-1.4-4.2-3.5-5.3-6.3c-0.5-1.5-0.8-3.1-0.9-4.8
				c-0.1-1.7-0.1-3.5,0.2-5.5c0.3-2.5,0.6-4.8,1.1-6.8c0.5-2.1,1.2-4,2-5.6c1.5-2.8,3.4-5,5.9-6.6c2.4-1.6,5.3-2.6,8.4-2.8
				c2.1-0.2,4,0,5.7,0.5c1.8,0.5,3.3,1.4,4.6,2.6c1.2,1.2,2.3,2.6,3,4.4c1.2,2.9,1.6,6.9,1.1,12.1c-0.3,2.7-0.7,5.1-1.3,7.1
				c-0.6,2.1-1.6,4.1-2.8,5.8c-1.6,2.2-3.6,3.9-5.9,5.2c-2.3,1.3-4.8,2-7.5,2.3C197.5,225.6,197,225.6,196.5,225.6z M202.6,189.9
				c-0.4,0-0.8,0-1.2,0.1c-2.4,0.2-4.5,0.9-6.3,2.1c-1.8,1.2-3.3,2.8-4.4,4.9c-0.6,1.3-1.2,2.8-1.6,4.6c-0.5,1.8-0.8,3.9-1,6.2
				c-0.2,1.7-0.2,3.3-0.1,4.7c0.1,1.4,0.3,2.6,0.7,3.6c0.6,1.7,1.7,3,3.2,3.9c1.6,0.9,3.5,1.3,5.8,1.1c2-0.2,3.9-0.7,5.6-1.7
				c1.8-1,3.2-2.3,4.4-3.9c1-1.3,1.7-2.8,2.2-4.5c0.5-1.7,0.9-3.9,1.1-6.3c0.4-4.4,0.2-7.7-0.7-9.9c-0.5-1.2-1.2-2.1-1.9-2.9
				c-0.8-0.7-1.7-1.2-2.8-1.6C204.6,190.1,203.7,189.9,202.6,189.9z M197.6,220.8L197.6,220.8c-2.4,0-3.9-1-4.7-1.9
				c-1.2-1.3-1.9-3-2.1-5.4c-0.2-2-0.2-4.6,0.2-7.7c0.5-4.7,1.3-8.2,2.6-10.7c1.5-2.9,3.9-4.5,7-4.8c2.9-0.2,4.6,0.9,5.5,1.8
				c1.2,1.2,1.9,3,2.1,5.3c0.2,2,0.2,4.5-0.1,7.5c-0.3,3.2-0.8,5.8-1.4,7.8c-0.7,2.2-1.6,4-2.9,5.4c-1.4,1.5-3.2,2.3-5.4,2.5
				C198.1,220.7,197.9,220.8,197.6,220.8z M201.5,194.8c-0.1,0-0.3,0-0.4,0c-1.6,0.1-2.6,0.9-3.4,2.4c-1,1.9-1.7,5-2.1,9.1
				c-0.3,2.8-0.3,5.1-0.2,6.8c0.2,1.7,0.6,2.5,0.9,2.8c0.1,0.1,0.4,0.4,1.4,0.4c0.1,0,0.3,0,0.4,0c1.1-0.1,1.9-0.4,2.6-1.1
				c0.8-0.8,1.4-2,1.9-3.6c0.5-1.8,0.9-4.1,1.2-7c0.3-2.7,0.3-4.9,0.1-6.6c-0.1-1.3-0.5-2.2-0.9-2.8
				C202.8,195.1,202.5,194.8,201.5,194.8z"/>
		</g>
		<g>
			<path fill="#4480C2" d="M229.7,218.4c0.9-8.6,1.3-12.9,2.2-21.6c-4.8,3-8,4.6-9.5,4.6c-0.7,0-1.4-0.2-1.9-0.8
				c-0.5-0.5-0.7-1.1-0.7-1.8c0.1-0.8,0.4-1.4,1-1.8c0.6-0.4,1.7-0.9,3.2-1.5c2.2-0.9,4-1.9,5.4-2.9s2.6-2.1,3.7-3.3
				c1.1-1.2,1.8-2,2.2-2.2c0.3-0.3,0.9-0.4,1.7-0.4c0.9,0,1.7,0.4,2.1,1c0.5,0.7,0.7,1.6,0.6,2.7c-1.1,10.9-1.7,16.3-2.8,27.2
				c-0.3,3.2-1.7,4.7-4.1,4.7c-1.1,0-1.9-0.4-2.5-1C229.8,220.7,229.5,219.7,229.7,218.4z"/>
			<path fill="#4480C2" d="M233,224.6l-0.2,0c-2.1-0.1-3.4-1-4.1-1.8c-1-1.1-1.4-2.7-1.2-4.6l1.8-17.1c-4,2.3-5.7,2.6-6.8,2.6
				c0,0,0,0,0,0c-1.4,0-2.6-0.5-3.5-1.4c-1-1-1.5-2.3-1.3-3.6c0.2-1.5,0.9-2.7,2-3.5c0.7-0.5,1.9-1,3.5-1.7c2.1-0.9,3.8-1.7,5-2.6
				c1.3-0.9,2.4-1.9,3.4-3c1.6-1.7,2.1-2.2,2.4-2.4c0.7-0.6,1.7-0.9,3-0.9l0.2,0c1.6,0,3,0.7,3.9,1.9c0.8,1.1,1.2,2.6,1,4.3
				l-2.8,27.2C238.6,223.9,234.6,224.6,233,224.6z M234.6,192.5l-2.7,26.2c-0.1,0.7,0,1.1,0.1,1.2c0.1,0.1,0.2,0.3,0.9,0.3l0.1,2.2
				v-2.2c0.6,0,1.5,0,1.7-2.6l2.8-27.2c0.1-0.5,0-1-0.1-1.1c0-0.1-0.1-0.1-0.4-0.1c-0.2,0-0.3,0-0.4,0c-0.2,0.2-0.7,0.7-1.8,1.9
				c-1.2,1.3-2.6,2.5-4.1,3.6c-1.5,1.1-3.4,2.1-5.9,3.1c-1.8,0.7-2.5,1.1-2.8,1.3c0,0,0,0.1,0,0.1c0.1,0.1,0.2,0.1,0.3,0.1
				c0.4,0,2.1-0.3,8.4-4.3L234.6,192.5z"/>
		</g>
		<g>
			<path fill="#4480C2" d="M261.7,220.5c0.9-8.6,1.3-12.9,2.2-21.6c-4.7,2.6-7.9,3.9-9.4,3.7c-0.7-0.1-1.4-0.4-1.9-1
				c-0.5-0.6-0.7-1.2-0.7-1.9c0.1-0.8,0.4-1.4,1-1.7c0.6-0.3,1.6-0.7,3.1-1.2c2.2-0.7,4-1.5,5.4-2.4c1.4-0.9,2.6-1.9,3.7-3
				c1.1-1.1,1.8-1.8,2.1-2.1c0.3-0.2,0.9-0.3,1.7-0.2c0.9,0.1,1.6,0.5,2.1,1.3c0.5,0.7,0.7,1.7,0.6,2.8c-1.1,10.9-1.7,16.3-2.8,27.2
				c-0.3,3.2-1.7,4.6-4.1,4.3c-1.1-0.1-1.9-0.6-2.5-1.3C261.8,222.7,261.5,221.7,261.7,220.5z"/>
			<path fill="#4480C2" d="M265.4,227c-0.3,0-0.6,0-0.9-0.1c-1.6-0.2-3-0.9-3.9-2.1c-1-1.2-1.3-2.7-1.1-4.6l1.8-17.5
				c-3.3,1.6-5.5,2.2-7,2.1c-1.3-0.1-2.5-0.7-3.4-1.7c-0.9-1.1-1.4-2.3-1.2-3.6c0.2-1.5,0.9-2.7,2.2-3.4c0.8-0.4,1.9-0.9,3.5-1.4
				c2-0.7,3.7-1.4,4.9-2.1c1.2-0.8,2.3-1.7,3.3-2.7c1.6-1.6,2.1-2,2.4-2.3c0.8-0.6,1.8-0.9,3.4-0.7c1.6,0.2,2.8,1,3.7,2.2
				c0.8,1.2,1.1,2.6,0.9,4.3l-2.8,27.2C270.5,226.4,266.9,227,265.4,227z M266.6,194.9l-2.7,25.8c0,0.4-0.1,1,0.2,1.4
				c0.1,0.2,0.4,0.4,1,0.5c0.1,0,0.2,0,0.3,0c0.3,0,1,0,1.2-2.3l2.8-27.2c0-0.4,0-1-0.2-1.3c-0.1-0.1-0.2-0.2-0.5-0.3
				c-0.1,0-0.2,0-0.3,0c-0.3,0.2-0.7,0.7-1.7,1.6c-1.2,1.2-2.6,2.3-4.1,3.3c-1.5,1-3.4,1.8-5.9,2.6c-1.5,0.5-2.2,0.8-2.6,1l0,0.1
				c0,0,0,0.1,0.1,0.2c0.2,0.2,0.3,0.2,0.4,0.2c0,0,0,0,0,0c0.6,0,2.4-0.3,8.2-3.5L266.6,194.9z"/>
		</g>
		<g>
			<path fill="#4480C2" d="M308.4,215.2c-0.3,2.6-0.7,4.8-1.2,6.6c-0.5,1.8-1.3,3.3-2.4,4.6c-1.3,1.6-3,2.6-4.9,3.2
				c-1.9,0.6-4,0.6-6.3,0.1c-2.6-0.6-4.9-1.7-6.8-3.5c-1.9-1.8-3.3-3.9-4.1-6.5c-0.4-1.4-0.6-2.9-0.7-4.6c-0.1-1.6,0-3.4,0.2-5.2
				c0.2-2.4,0.6-4.5,1.1-6.4c0.5-1.9,1.1-3.4,1.8-4.7c1.2-2.1,2.9-3.6,5-4.4c2.1-0.8,4.4-0.9,7.1-0.4c1.8,0.4,3.3,1,4.7,1.9
				c1.4,0.9,2.5,1.9,3.5,3.2c1,1.3,1.8,2.8,2.3,4.5C308.6,206.6,308.9,210.4,308.4,215.2z M301.5,213c0.3-2.9,0.4-5.3,0.2-7.2
				c-0.2-1.9-0.7-3.5-1.5-4.6c-0.8-1.1-2-1.9-3.5-2.2c-2.3-0.5-3.9,0.2-5,2.2c-1.1,1.9-1.9,5.1-2.3,9.5c-0.3,3-0.4,5.4-0.2,7.4
				c0.2,2,0.7,3.5,1.5,4.7c0.8,1.2,1.9,1.9,3.5,2.2c1.6,0.3,2.8,0.1,3.8-0.7c1-0.8,1.8-2.1,2.3-3.9C300.7,218.4,301.2,216,301.5,213
				z"/>
			<path fill="#4480C2" d="M296.7,232.2c-1.1,0-2.3-0.1-3.5-0.4c-3-0.7-5.6-2-7.8-4c-2.2-2-3.8-4.6-4.7-7.5
				c-0.5-1.6-0.7-3.3-0.8-5.1c-0.1-1.7,0-3.6,0.2-5.6c0.3-2.5,0.6-4.7,1.1-6.7c0.5-2,1.2-3.8,2-5.3c1.5-2.6,3.6-4.3,6.1-5.3
				c2.5-1,5.3-1.1,8.4-0.5c2,0.4,3.8,1.2,5.4,2.2c1.6,1,3,2.3,4.1,3.8c1.1,1.5,2,3.2,2.7,5.1c1.1,3.2,1.4,7.5,0.9,12.5
				c-0.3,2.7-0.7,5.1-1.3,7c-0.6,2.1-1.6,3.9-2.8,5.4c-1.6,1.9-3.7,3.2-6,3.9C299.3,232.1,298,232.2,296.7,232.2z M293.9,195.9
				c-1.1,0-2.2,0.2-3.1,0.6c-1.6,0.6-2.9,1.8-3.9,3.4c-0.6,1.1-1.1,2.4-1.5,4.1c-0.4,1.7-0.8,3.8-1,6.1c-0.2,1.7-0.2,3.4-0.1,4.9
				c0.1,1.5,0.3,2.8,0.6,4.1c0.7,2.2,1.8,4,3.5,5.5c1.6,1.5,3.5,2.5,5.8,3c1.9,0.4,3.6,0.4,5.2-0.1c1.5-0.4,2.8-1.3,3.8-2.5
				c0.9-1,1.5-2.3,2-3.8c0.5-1.6,0.9-3.7,1.1-6.1c0.5-4.4,0.2-8-0.7-10.6c-0.5-1.5-1.2-2.8-2-3.9c-0.8-1.1-1.8-2-2.9-2.7
				c-1.2-0.7-2.5-1.3-4-1.6C295.6,196,294.7,195.9,293.9,195.9z M295.4,227.2L295.4,227.2c-0.6,0-1.2-0.1-1.8-0.2
				c-2.1-0.5-3.7-1.5-4.8-3.2c-1-1.5-1.6-3.4-1.8-5.8c-0.2-2.1-0.1-4.8,0.2-7.9c0.5-4.7,1.3-8.1,2.6-10.3c1.6-2.8,4.2-3.9,7.5-3.2
				c2.1,0.5,3.8,1.5,4.9,3.2c1,1.5,1.6,3.4,1.8,5.7c0.2,2.1,0.1,4.7-0.2,7.7c-0.3,3.2-0.8,5.7-1.4,7.7c-0.7,2.2-1.7,3.9-3,5
				C298.2,226.8,296.9,227.2,295.4,227.2z M295.4,201c-0.6,0-1.2,0.1-1.8,1.2c-0.6,1.1-1.5,3.5-2,8.6c-0.3,2.8-0.4,5.2-0.2,7
				c0.1,1.6,0.5,2.8,1.1,3.6c0.5,0.7,1.1,1.1,2.1,1.3c0.3,0.1,0.6,0.1,0.9,0.1l0,0c0.6,0,0.9-0.2,1.1-0.3c0.6-0.5,1.2-1.5,1.6-2.8
				c0.5-1.7,0.9-4,1.2-6.8c0.3-2.7,0.3-5,0.2-6.8c-0.1-1.5-0.5-2.7-1.1-3.6c-0.5-0.7-1.2-1.1-2.2-1.3C295.9,201,295.6,201,295.4,201
				z"/>
		</g>
		<g>
			<path fill="#4480C2" d="M158.9,282.2c0.9-8.6,1.3-12.9,2.2-21.6c-4.8,3.9-8,6.1-9.6,6.4c-0.7,0.2-1.4,0-1.9-0.4
				c-0.5-0.4-0.7-1-0.7-1.7c0.1-0.8,0.4-1.5,1-2c0.6-0.5,1.7-1.2,3.2-2.1c2.2-1.3,4.1-2.6,5.4-3.9c1.4-1.2,2.6-2.6,3.8-4
				c1.1-1.4,1.8-2.3,2.2-2.6c0.3-0.3,0.9-0.6,1.8-0.7c0.9-0.2,1.7,0,2.2,0.6c0.5,0.6,0.7,1.4,0.6,2.5c-1.1,10.9-1.7,16.3-2.8,27.2
				c-0.3,3.2-1.7,5-4.1,5.4c-1.1,0.2-1.9,0-2.5-0.5C159,284.3,158.7,283.4,158.9,282.2z"/>
			<path fill="#4480C2" d="M161.3,287.7c-1.3,0-2.4-0.4-3.2-1.2c-1.1-1-1.6-2.6-1.4-4.6l1.7-16.4c-3.7,2.7-5.3,3.4-6.4,3.6
				c-1.4,0.3-2.7,0-3.7-0.8c-1.1-0.9-1.7-2.2-1.5-3.6c0.1-1.4,0.8-2.6,1.8-3.5c0.7-0.6,1.8-1.3,3.4-2.3c2.1-1.3,3.9-2.5,5.1-3.6
				c1.3-1.2,2.5-2.4,3.5-3.7c1.6-2,2.1-2.5,2.3-2.8c0.7-0.7,1.7-1.1,3-1.4c1.8-0.3,3.2,0.2,4.2,1.3c0.9,1,1.3,2.5,1.1,4.3l-2.8,27.2
				c-0.6,5.6-4,7-6,7.4C162,287.7,161.6,287.7,161.3,287.7z M161.1,283.2c0.1,0,0.3,0,0.6,0c0.6-0.1,2-0.3,2.3-3.4l2.8-27.2
				c0-0.3,0-0.6,0-0.7c-0.1,0-0.1,0-0.1,0c-0.5,0.1-0.6,0.2-0.6,0.2c0,0-0.5,0.5-1.9,2.4c-0.8,1.1-1.8,2.1-2.8,3.1l2.5-2l-2.8,26.9
				C161.1,282.8,161.1,283.1,161.1,283.2C161.1,283.2,161.1,283.2,161.1,283.2z M155.7,261.9c-0.5,0.3-0.9,0.6-1.4,0.9
				c-1.6,1-2.4,1.6-2.8,1.8C152.1,264.4,153.4,263.7,155.7,261.9z"/>
		</g>
		<g>
			<path fill="#4480C2" d="M191.3,277.9c0.9-8.6,1.3-12.9,2.2-21.6c-4.8,3.5-8,5.3-9.6,5.5c-0.7,0.1-1.4-0.1-1.9-0.6
				c-0.5-0.5-0.7-1-0.7-1.7c0.1-0.8,0.4-1.4,1-1.9c0.6-0.4,1.7-1.1,3.2-1.8c2.2-1.1,4.1-2.2,5.5-3.4c1.4-1.1,2.6-2.3,3.8-3.6
				c1.1-1.3,1.8-2.1,2.2-2.4c0.3-0.3,0.9-0.5,1.7-0.6c0.9-0.1,1.7,0.2,2.2,0.8c0.5,0.6,0.7,1.5,0.6,2.6c-1.1,10.9-1.7,16.3-2.8,27.2
				c-0.3,3.2-1.7,4.8-4.1,5c-1.1,0.1-1.9-0.2-2.5-0.8C191.4,280.1,191.2,279.1,191.3,277.9z"/>
			<path fill="#4480C2" d="M194.2,283.7c-1.9,0-3.1-0.8-3.7-1.4c-1.1-1.1-1.5-2.6-1.3-4.6l1.7-16.8c-3.9,2.5-5.5,3-6.6,3.2
				c-1.4,0.2-2.6-0.2-3.6-1.1c-1.1-0.9-1.6-2.2-1.4-3.6c0.1-1.4,0.8-2.6,1.9-3.5c0.7-0.5,1.9-1.2,3.5-2c2.1-1.1,3.8-2.1,5.1-3.1
				c1.3-1,2.4-2.2,3.5-3.4c1.6-1.8,2.1-2.4,2.4-2.6c0.7-0.7,1.7-1.1,3.1-1.1c1.7-0.1,3.1,0.5,4.1,1.6c0.9,1.1,1.3,2.5,1.1,4.3
				l-2.8,27.2c-0.6,5.8-4.1,6.9-6.2,7C194.5,283.7,194.3,283.7,194.2,283.7z M196.3,251.6l-2.7,26.5c-0.1,0.8,0.1,1,0.1,1
				c0.1,0.1,0.4,0.1,0.5,0.1l0.2,0c0.7,0,1.8-0.1,2.1-3l2.8-27.2c0.1-0.6,0-0.9-0.1-1c0,0-0.1,0-0.2,0c-0.3,0-0.5,0.1-0.6,0.1
				c-0.2,0.2-0.7,0.8-1.9,2.1c-1.2,1.4-2.6,2.7-4.1,3.9c-1.5,1.2-3.4,2.4-5.8,3.6c-1.8,0.9-2.6,1.4-2.9,1.6c0,0-0.1,0.1-0.1,0.1
				l0.1,0c0.4,0,2.2-0.5,8.5-5.1L196.3,251.6z"/>
		</g>
		<g>
			<path fill="#4480C2" d="M239.4,263.4c-0.3,2.6-0.7,4.8-1.2,6.7c-0.5,1.8-1.4,3.5-2.5,5c-1.4,1.8-3.1,3.2-5.1,4.1
				c-2,0.9-4.2,1.4-6.5,1.4c-2.7,0-5-0.7-7-2.1c-2-1.3-3.4-3.2-4.2-5.6c-0.4-1.3-0.7-2.7-0.8-4.3c-0.1-1.6,0-3.3,0.1-5.1
				c0.2-2.4,0.6-4.5,1.1-6.5c0.5-1.9,1.1-3.6,1.8-5c1.3-2.3,3-4.1,5.1-5.3c2.1-1.2,4.5-1.8,7.3-1.8c1.8,0,3.4,0.3,4.9,0.9
				c1.4,0.6,2.6,1.4,3.7,2.5c1,1.1,1.8,2.4,2.4,3.9C239.6,254.9,239.9,258.7,239.4,263.4z M232.2,262.6c0.3-2.9,0.3-5.3,0.1-7.1
				c-0.2-1.9-0.7-3.3-1.5-4.2c-0.8-1-2-1.5-3.7-1.5c-2.3,0-4.1,1-5.2,3.1c-1.1,2.1-1.9,5.3-2.4,9.7c-0.3,3-0.4,5.4-0.2,7.3
				c0.2,1.9,0.7,3.3,1.5,4.3c0.8,1,2,1.5,3.6,1.5c1.6,0,2.9-0.4,4-1.4c1-1,1.8-2.4,2.4-4.3C231.5,268.1,231.9,265.7,232.2,262.6z"/>
			<path fill="#4480C2" d="M224.4,282.8l-0.3,0c-3.1-0.1-5.9-0.9-8.2-2.5c-2.4-1.6-4.1-3.9-5.1-6.7c-0.5-1.5-0.8-3.2-0.9-4.9
				c-0.1-1.7,0-3.5,0.2-5.5c0.3-2.5,0.6-4.8,1.1-6.8c0.5-2.1,1.2-3.9,2-5.5c1.5-2.7,3.5-4.7,6-6.2c2.4-1.4,5.1-2.1,8.1-2.1l0.3,0
				c2.1,0,4,0.4,5.7,1.1c1.7,0.7,3.2,1.7,4.4,3c1.2,1.3,2.2,2.8,2.9,4.6c1.2,3.1,1.5,7.1,1,12.3c-0.3,2.7-0.7,5.1-1.3,7.1
				c-0.6,2.1-1.6,4-2.8,5.7c-1.6,2.1-3.6,3.7-5.9,4.8C229.4,282.2,227,282.8,224.4,282.8z M227.3,247.2c-2.2,0-4.2,0.5-5.9,1.5
				c-1.7,1-3.2,2.5-4.2,4.4c-0.6,1.2-1.2,2.7-1.6,4.4c-0.5,1.8-0.8,3.9-1,6.1c-0.2,1.7-0.2,3.3-0.1,4.8c0.1,1.4,0.3,2.7,0.7,3.8
				c0.7,1.9,1.8,3.3,3.4,4.4c1.6,1.1,3.5,1.7,5.8,1.7l0.2,0c1.9,0,3.7-0.4,5.3-1.1c1.7-0.8,3.1-1.9,4.3-3.5c0.9-1.2,1.6-2.7,2.1-4.2
				c0.5-1.7,0.9-3.8,1.1-6.3c0.5-4.4,0.2-7.8-0.7-10.1c-0.5-1.3-1.2-2.3-2-3.2c-0.8-0.8-1.7-1.5-2.9-1.9c-1.2-0.5-2.5-0.7-4.1-0.7
				L227.3,247.2z M224.7,278L224.7,278l-0.2,0c-2.8,0-4.4-1.3-5.3-2.3c-1.1-1.3-1.8-3.2-2-5.5c-0.2-2.1-0.2-4.6,0.2-7.8
				c0.5-4.7,1.3-8.2,2.6-10.6c1.5-2.8,3.9-4.3,7-4.3l0.2,0c2.8,0,4.5,1.3,5.3,2.3c1.1,1.3,1.8,3.1,2,5.4c0.2,2,0.2,4.6-0.1,7.6
				c-0.3,3.2-0.8,5.8-1.4,7.8c-0.7,2.2-1.7,4-3,5.2C228.7,277.3,226.9,278,224.7,278z M227.1,249.8v2.2c-1.4,0-2.4,0.6-3.1,1.9
				c-1,1.8-1.7,4.8-2.1,8.9c-0.3,2.8-0.3,5.1-0.2,6.8c0.1,1.4,0.5,2.5,1,3.1c0.2,0.3,0.7,0.7,1.9,0.7c0,0,0,0,0,0
				c1.4,0,2-0.5,2.4-0.8c0.7-0.7,1.3-1.8,1.8-3.3c0.5-1.7,0.9-4.1,1.2-7c0.3-2.7,0.3-5,0.1-6.7c-0.1-1.4-0.5-2.4-1-3
				c-0.1-0.2-0.6-0.7-2-0.7L227.1,249.8z"/>
		</g>
		<g>
			<path fill="#4480C2" d="M271.2,266.9c-0.3,2.6-0.7,4.8-1.2,6.6c-0.5,1.8-1.4,3.4-2.4,4.8c-1.4,1.7-3,2.9-5,3.7
				c-2,0.8-4.1,1-6.4,0.7c-2.6-0.3-5-1.2-6.9-2.8c-2-1.6-3.4-3.6-4.2-6.1c-0.4-1.4-0.7-2.8-0.7-4.4c-0.1-1.6,0-3.3,0.1-5.2
				c0.2-2.4,0.6-4.5,1.1-6.4c0.5-1.9,1.1-3.5,1.8-4.8c1.3-2.2,2.9-3.8,5-4.8c2.1-1,4.5-1.4,7.2-1.1c1.8,0.2,3.4,0.7,4.8,1.4
				c1.4,0.7,2.6,1.7,3.6,2.9c1,1.2,1.8,2.6,2.4,4.2C271.4,258.3,271.7,262.1,271.2,266.9z M264.1,265.4c0.3-2.9,0.3-5.3,0.2-7.2
				s-0.7-3.4-1.5-4.4c-0.8-1.1-2-1.7-3.6-1.9c-2.3-0.3-4,0.6-5.1,2.6c-1.1,2-1.9,5.2-2.3,9.6c-0.3,3-0.4,5.4-0.2,7.4
				c0.2,1.9,0.7,3.4,1.5,4.5c0.8,1.1,2,1.7,3.5,1.9c1.6,0.2,2.9-0.2,3.9-1.1c1-0.9,1.8-2.3,2.3-4.1
				C263.4,270.9,263.8,268.4,264.1,265.4z"/>
			<path fill="#4480C2" d="M257.9,285c-0.7,0-1.4,0-2-0.1c-3.1-0.4-5.8-1.5-8.1-3.3c-2.3-1.8-4-4.2-4.9-7.1c-0.5-1.6-0.8-3.2-0.9-5
				c-0.1-1.7,0-3.6,0.2-5.5c0.3-2.5,0.6-4.8,1.1-6.7c0.5-2.1,1.2-3.9,2-5.4c1.5-2.6,3.5-4.5,6-5.7c2.5-1.2,5.3-1.6,8.4-1.3
				c2,0.2,3.9,0.8,5.6,1.6c1.7,0.9,3.1,2,4.3,3.4c1.2,1.4,2.1,3,2.8,4.9c1.2,3.2,1.5,7.2,1,12.4c-0.3,2.7-0.7,5.1-1.3,7
				c-0.6,2.1-1.6,3.9-2.8,5.5c-1.6,2-3.6,3.5-6,4.4C261.6,284.7,259.8,285,257.9,285z M257.7,249.2c-1.6,0-3.1,0.3-4.4,0.9
				c-1.7,0.8-3,2.1-4.1,3.9c-0.6,1.1-1.2,2.6-1.6,4.3c-0.4,1.8-0.8,3.8-1,6.1c-0.2,1.7-0.2,3.4-0.1,4.8c0.1,1.4,0.3,2.7,0.7,3.9
				c0.7,2,1.8,3.6,3.4,4.9c1.6,1.3,3.5,2.1,5.8,2.3c1.9,0.2,3.7,0,5.4-0.6c1.6-0.6,3-1.6,4.1-3c0.9-1.1,1.6-2.5,2-4
				c0.5-1.7,0.9-3.8,1.1-6.2c0.5-4.4,0.2-7.9-0.7-10.4c-0.5-1.4-1.2-2.6-2-3.5c-0.8-0.9-1.8-1.7-2.9-2.3c-1.2-0.6-2.5-1-4-1.2
				C258.8,249.2,258.2,249.2,257.7,249.2z M257.4,280.1C257.4,280.1,257.4,280.1,257.4,280.1c-0.3,0-0.7,0-1.1-0.1
				c-2.2-0.3-3.9-1.2-5.1-2.7c-1.1-1.4-1.7-3.3-1.9-5.6c-0.2-2.1-0.1-4.7,0.2-7.8c0.5-4.7,1.3-8.1,2.6-10.4c1.6-2.8,4.1-4.1,7.3-3.8
				c2.2,0.3,3.9,1.2,5.1,2.7c1.1,1.4,1.7,3.3,1.9,5.6c0.2,2,0.2,4.6-0.2,7.6c-0.3,3.2-0.8,5.8-1.4,7.7c-0.7,2.2-1.7,3.9-3,5.1
				C260.7,279.6,259.2,280.1,257.4,280.1z M258.4,254.1c-1.1,0-1.8,0.5-2.4,1.5c-1,1.7-1.7,4.7-2.1,8.7c-0.3,2.8-0.3,5.1-0.2,6.9
				c0.1,1.5,0.5,2.6,1.1,3.4c0.3,0.4,0.8,0.8,2,1c0.2,0,0.4,0,0.5,0c0.9,0,1.4-0.3,1.6-0.5c0.7-0.6,1.3-1.6,1.7-3.1
				c0.5-1.7,0.9-4,1.2-6.9c0.3-2.7,0.3-5,0.2-6.7c-0.1-1.5-0.5-2.6-1-3.3c-0.3-0.4-0.8-0.9-2.1-1
				C258.8,254.1,258.6,254.1,258.4,254.1z"/>
		</g>
		<g>
			<path fill="#4480C2" d="M287.2,284c0.9-8.6,1.3-12.9,2.2-21.6c-4.7,2.1-7.8,3.1-9.3,2.8c-0.7-0.1-1.3-0.5-1.8-1.1
				c-0.5-0.6-0.7-1.3-0.6-2c0.1-0.8,0.4-1.4,1-1.6c0.6-0.3,1.6-0.6,3.1-0.9c2.2-0.5,3.9-1.1,5.3-1.9c1.3-0.7,2.6-1.6,3.6-2.6
				c1.1-1,1.8-1.6,2.1-1.9c0.3-0.2,0.9-0.2,1.7-0.1c0.9,0.2,1.6,0.7,2.1,1.5c0.5,0.8,0.7,1.7,0.5,2.9c-1.1,10.9-1.7,16.3-2.8,27.2
				c-0.3,3.2-1.7,4.5-4,3.9c-1-0.2-1.8-0.7-2.4-1.5C287.3,286.3,287.1,285.2,287.2,284z"/>
			<path fill="#4480C2" d="M291.2,290.9c-0.5,0-1-0.1-1.5-0.2c-1.6-0.4-2.8-1.2-3.7-2.4c-0.9-1.2-1.2-2.8-1.1-4.6l1.8-17.8
				c-3.4,1.3-5.6,1.8-7.1,1.5c-1.2-0.2-2.3-0.9-3.2-1.9c-0.9-1.1-1.3-2.3-1.1-3.6c0.2-1.6,1-2.8,2.3-3.4c0.8-0.4,1.9-0.7,3.5-1.1
				c2-0.5,3.6-1,4.7-1.6c1.2-0.6,2.2-1.4,3.2-2.3c1.5-1.5,2.1-1.9,2.4-2.1c0.9-0.6,2-0.7,3.4-0.4c1.5,0.3,2.7,1.2,3.5,2.5
				c0.7,1.2,1,2.6,0.9,4.3l-2.8,27.2C295.9,290.3,292.6,290.9,291.2,290.9z M292,258.7l-2.6,25.5c-0.1,0.7,0,1.2,0.2,1.5
				c0.2,0.2,0.4,0.5,1.1,0.7c0.2,0,0.3,0.1,0.5,0.1c0.5,0,0.8-1.6,0.8-2l2.8-27.2c0.1-0.6,0-1.1-0.2-1.5c-0.2-0.3-0.3-0.4-0.7-0.5
				c-0.1,0-0.1,0-0.2,0c-0.3,0.2-0.7,0.6-1.5,1.4c-1.2,1.2-2.6,2.2-4.1,3c-1.5,0.8-3.4,1.5-5.8,2.1c-1.3,0.3-2,0.5-2.3,0.7
				c0,0.1,0.1,0.2,0.2,0.3c0.2,0.3,0.4,0.3,0.5,0.3c0.9,0,2.8-0.3,7.9-2.7L292,258.7z"/>
		</g>
		<g>
			<path fill="#4480C2" d="M168.8,324.3c-0.3,2.6-0.7,4.8-1.2,6.8c-0.5,1.9-1.4,3.7-2.5,5.4c-1.4,2-3.1,3.7-5.1,5
				c-2,1.3-4.2,2.2-6.6,2.6c-2.7,0.5-5.1,0.3-7.1-0.7c-2-0.9-3.4-2.5-4.3-4.6c-0.4-1.2-0.7-2.6-0.8-4.1c-0.1-1.5,0-3.2,0.1-5.1
				c0.2-2.4,0.6-4.6,1.1-6.5c0.5-2,1.1-3.7,1.8-5.2c1.3-2.5,3-4.6,5.1-6.2c2.1-1.6,4.6-2.7,7.3-3.2c1.8-0.3,3.5-0.3,4.9-0.1
				c1.4,0.3,2.7,0.9,3.7,1.7c1,0.8,1.9,2,2.5,3.4C168.9,316,169.2,319.6,168.8,324.3z M161.5,325c0.3-2.9,0.3-5.2,0.1-7
				c-0.2-1.8-0.7-3.1-1.5-3.8c-0.8-0.8-2.1-1-3.7-0.7c-2.3,0.4-4.1,1.8-5.2,4.1c-1.1,2.3-1.9,5.6-2.4,10c-0.3,3-0.4,5.4-0.2,7.2
				c0.2,1.8,0.7,3.1,1.5,3.9c0.8,0.8,2,1,3.6,0.8c1.6-0.3,3-1,4-2.2c1-1.2,1.8-2.7,2.4-4.7C160.7,330.5,161.2,328,161.5,325z"/>
			<path fill="#4480C2" d="M150.7,346.6c-1.9,0-3.7-0.4-5.3-1.1c-2.5-1.2-4.4-3.2-5.4-5.9c-0.5-1.4-0.8-3-0.9-4.8
				c-0.1-1.6-0.1-3.5,0.2-5.4c0.3-2.5,0.6-4.8,1.1-6.8c0.5-2.1,1.2-4,2-5.7c1.5-2.8,3.4-5.2,5.8-7c2.4-1.8,5.2-3,8.3-3.6
				c2.1-0.4,4-0.4,5.7-0.1c1.8,0.4,3.4,1.1,4.7,2.2c1.3,1.1,2.3,2.5,3.1,4.2c1.3,2.8,1.6,6.7,1.1,11.9c-0.3,2.7-0.7,5.1-1.3,7.1
				c-0.6,2.1-1.5,4.1-2.8,6c-1.6,2.3-3.5,4.2-5.8,5.7c-2.3,1.5-4.7,2.5-7.4,2.9C152.7,346.5,151.6,346.6,150.7,346.6z M159.6,310.5
				c-0.7,0-1.5,0.1-2.4,0.2c-2.4,0.4-4.5,1.4-6.4,2.7c-1.8,1.4-3.3,3.2-4.5,5.4c-0.7,1.3-1.2,2.9-1.7,4.7c-0.5,1.9-0.8,4-1,6.2
				c-0.2,1.7-0.2,3.3-0.1,4.7c0.1,1.3,0.3,2.5,0.6,3.5c0.6,1.5,1.6,2.7,3.1,3.3c1.6,0.7,3.5,0.9,5.7,0.5c2-0.4,4-1.1,5.7-2.3
				c1.8-1.2,3.3-2.6,4.5-4.4c1-1.4,1.7-3,2.2-4.7c0.5-1.8,0.9-3.9,1.1-6.4c0.4-4.4,0.2-7.6-0.7-9.6c-0.5-1.1-1.1-1.9-1.9-2.5
				c-0.7-0.6-1.6-1-2.7-1.2C160.7,310.6,160.2,310.5,159.6,310.5z M152.6,341.6L152.6,341.6c-2,0-3.3-0.8-4-1.5
				c-1.2-1.2-1.9-2.9-2.2-5.3c-0.2-2-0.2-4.5,0.2-7.7c0.5-4.7,1.3-8.2,2.6-10.8c1.4-2.9,3.8-4.7,6.8-5.3c0.6-0.1,1.1-0.2,1.6-0.2
				c2,0,3.3,0.8,4,1.5c1.2,1.2,2,2.9,2.2,5.2c0.2,2,0.2,4.4-0.1,7.5c-0.3,3.2-0.8,5.8-1.4,7.9c-0.7,2.2-1.6,4.1-2.9,5.5
				c-1.4,1.5-3.1,2.5-5.3,2.9C153.6,341.6,153.1,341.6,152.6,341.6z M157.6,315.5c-0.2,0-0.5,0-0.8,0.1c-1.6,0.3-2.8,1.2-3.6,2.9
				c-1,2-1.7,5.1-2.2,9.2c-0.3,2.8-0.3,5.1-0.2,6.7c0.2,1.7,0.6,2.3,0.9,2.5c0.1,0.1,0.3,0.2,0.9,0.2c0.2,0,0.5,0,0.8-0.1
				c1.1-0.2,2-0.7,2.7-1.5c0.8-0.9,1.5-2.2,1.9-3.8c0.5-1.8,0.9-4.2,1.2-7.1c0.3-2.7,0.3-4.9,0.1-6.5c-0.2-1.6-0.6-2.2-0.9-2.5
				C158.4,315.6,158.1,315.5,157.6,315.5z"/>
		</g>
		<g>
			<path fill="#4480C2" d="M185.3,336.1c0.9-8.6,1.3-12.9,2.2-21.6c-4.8,3.5-8,5.3-9.6,5.5c-0.7,0.1-1.4-0.1-1.9-0.6
				c-0.5-0.5-0.7-1-0.7-1.7c0.1-0.8,0.4-1.4,1-1.9c0.6-0.4,1.7-1.1,3.2-1.8c2.2-1.1,4.1-2.2,5.5-3.4c1.4-1.1,2.6-2.3,3.8-3.6
				c1.1-1.3,1.8-2.1,2.2-2.4c0.3-0.3,0.9-0.5,1.7-0.6c0.9-0.1,1.7,0.2,2.2,0.8c0.5,0.6,0.7,1.5,0.6,2.6c-1.1,10.9-1.7,16.3-2.8,27.2
				c-0.3,3.2-1.7,4.8-4.1,5c-1.1,0.1-1.9-0.2-2.5-0.8C185.4,338.3,185.2,337.4,185.3,336.1z"/>
			<path fill="#4480C2" d="M188.2,342c-1.9,0-3.1-0.8-3.7-1.4c-1.1-1.1-1.5-2.6-1.3-4.6l1.7-16.8c-3.9,2.5-5.5,3-6.6,3.2
				c-1.4,0.2-2.7-0.2-3.6-1.1c-1.1-0.9-1.6-2.2-1.4-3.6c0.1-1.4,0.8-2.6,1.9-3.5c0.7-0.5,1.9-1.2,3.5-2c2.1-1.1,3.8-2.1,5.1-3.1
				c1.3-1,2.4-2.1,3.5-3.3c1.6-1.8,2.1-2.4,2.4-2.6c0.7-0.7,1.7-1,3.1-1.1c1.7-0.1,3.1,0.5,4.1,1.6c0.9,1.1,1.3,2.5,1.1,4.3
				l-2.8,27.2c-0.6,5.8-4.1,6.9-6.2,7C188.5,341.9,188.3,342,188.2,342z M190.3,309.8l-2.7,26.5c-0.1,0.8,0.1,1,0.1,1
				c0.1,0.1,0.4,0.1,0.5,0.1l0.2,0c0.7,0,1.8-0.1,2.1-3l2.8-27.2c0.1-0.6,0-0.9-0.1-1c0,0-0.1,0-0.2,0c-0.3,0-0.5,0.1-0.6,0.1
				c-0.2,0.2-0.7,0.8-1.9,2.1c-1.2,1.4-2.6,2.7-4.1,3.9c-1.5,1.2-3.4,2.4-5.8,3.6c-1.8,0.9-2.6,1.4-2.9,1.6c0,0-0.1,0.1-0.1,0.1
				l0.1,0c0.4,0,2.2-0.5,8.5-5.1L190.3,309.8z"/>
		</g>
		<g>
			<path fill="#4480C2" d="M233.4,321.7c-0.3,2.6-0.7,4.8-1.2,6.7c-0.5,1.8-1.4,3.5-2.5,5c-1.4,1.8-3.1,3.2-5.1,4.1
				c-2,0.9-4.2,1.4-6.5,1.4c-2.7,0-5-0.7-7-2.1c-2-1.3-3.4-3.2-4.2-5.6c-0.4-1.3-0.7-2.7-0.8-4.3c-0.1-1.6,0-3.3,0.1-5.1
				c0.2-2.4,0.6-4.5,1.1-6.5c0.5-1.9,1.1-3.6,1.8-5c1.3-2.3,3-4.1,5.1-5.3c2.1-1.2,4.5-1.8,7.3-1.8c1.8,0,3.4,0.3,4.9,0.9
				c1.4,0.6,2.6,1.4,3.7,2.5c1,1.1,1.8,2.4,2.4,3.9C233.6,313.2,233.9,316.9,233.4,321.7z M226.2,320.9c0.3-2.9,0.3-5.3,0.1-7.1
				c-0.2-1.9-0.7-3.3-1.5-4.2c-0.8-1-2-1.5-3.7-1.5c-2.3,0-4.1,1-5.2,3.1c-1.1,2.1-1.9,5.3-2.4,9.7c-0.3,3-0.4,5.4-0.2,7.3
				c0.2,1.9,0.7,3.3,1.5,4.3c0.8,1,2,1.5,3.6,1.5c1.6,0,2.9-0.4,4-1.4c1-1,1.8-2.4,2.4-4.3C225.5,326.4,225.9,324,226.2,320.9z"/>
			<path fill="#4480C2" d="M218.4,341.1l-0.3,0c-3.1-0.1-5.9-0.9-8.2-2.5c-2.4-1.6-4.1-3.9-5.1-6.7c-0.5-1.5-0.8-3.2-0.9-4.9
				c-0.1-1.7,0-3.6,0.2-5.5c0.3-2.5,0.6-4.8,1.1-6.8c0.5-2.1,1.2-3.9,2-5.5c1.5-2.7,3.5-4.7,5.9-6.2c2.4-1.4,5.1-2.1,8.1-2.1l0.3,0
				c2.1,0,4,0.4,5.7,1.1c1.7,0.7,3.2,1.7,4.4,3c1.2,1.3,2.2,2.8,2.9,4.6c1.2,3,1.5,7.1,1,12.2c-0.3,2.7-0.7,5.1-1.3,7.1
				c-0.6,2.1-1.6,4-2.8,5.7c-1.6,2.1-3.6,3.7-5.9,4.8C223.4,340.5,221,341.1,218.4,341.1z M221.3,305.5c-2.2,0-4.2,0.5-5.9,1.5
				c-1.8,1-3.1,2.4-4.2,4.4c-0.6,1.2-1.2,2.7-1.6,4.4c-0.5,1.8-0.8,3.9-1,6.1c-0.2,1.7-0.2,3.3-0.1,4.8c0.1,1.4,0.3,2.7,0.7,3.8
				c0.7,1.9,1.8,3.3,3.4,4.4c1.6,1.1,3.5,1.7,5.8,1.7l0.2,0c1.9,0,3.7-0.4,5.3-1.1c1.7-0.8,3.1-1.9,4.3-3.5c0.9-1.2,1.6-2.7,2.1-4.2
				c0.5-1.7,0.9-3.8,1.1-6.3c0.5-4.4,0.2-7.8-0.7-10.1c-0.5-1.3-1.2-2.4-2-3.2c-0.8-0.8-1.7-1.5-2.9-1.9c-1.2-0.5-2.5-0.7-4.1-0.7
				L221.3,305.5z M218.7,336.2L218.7,336.2l-0.2,0c-2.8,0-4.4-1.3-5.3-2.3c-1.1-1.3-1.8-3.2-2-5.5c-0.2-2.1-0.2-4.6,0.2-7.8
				c0.5-4.7,1.3-8.2,2.6-10.6c1.5-2.8,3.9-4.3,7-4.3l0.2,0c2.8,0,4.5,1.3,5.3,2.3c1.1,1.3,1.8,3.1,2,5.4c0.2,2,0.2,4.6-0.1,7.6
				c-0.3,3.2-0.8,5.8-1.4,7.8c-0.7,2.2-1.7,4-3,5.2C222.7,335.5,220.9,336.2,218.7,336.2z M221.1,308.1v2.2c-1.4,0-2.4,0.6-3.1,1.9
				c-1,1.8-1.7,4.8-2.1,8.9c-0.3,2.8-0.3,5.1-0.2,6.8c0.1,1.4,0.5,2.5,1,3.1c0.2,0.3,0.7,0.7,1.9,0.7c0,0,0,0,0,0
				c1.4,0,2-0.5,2.4-0.8c0.7-0.7,1.3-1.8,1.8-3.3c0.5-1.7,0.9-4.1,1.2-7c0.3-2.7,0.3-5,0.1-6.7c-0.1-1.4-0.5-2.4-1-3
				c-0.1-0.2-0.6-0.7-2-0.7L221.1,308.1z"/>
		</g>
		<g>
			<path fill="#4480C2" d="M265.2,325.2c-0.3,2.6-0.7,4.8-1.2,6.6c-0.5,1.8-1.4,3.4-2.4,4.8c-1.4,1.7-3,2.9-5,3.7
				c-2,0.8-4.1,1-6.4,0.7c-2.6-0.3-5-1.2-6.9-2.8c-2-1.6-3.4-3.6-4.2-6.1c-0.4-1.4-0.7-2.8-0.7-4.4c-0.1-1.6,0-3.3,0.1-5.2
				c0.2-2.4,0.6-4.5,1.1-6.4c0.5-1.9,1.1-3.5,1.8-4.8c1.3-2.2,2.9-3.8,5-4.8c2.1-1,4.5-1.4,7.2-1.1c1.8,0.2,3.4,0.7,4.8,1.4
				c1.4,0.7,2.6,1.7,3.6,2.9c1,1.2,1.8,2.6,2.4,4.2C265.4,316.6,265.7,320.4,265.2,325.2z M258.2,323.6c0.3-2.9,0.3-5.3,0.2-7.2
				c-0.2-1.9-0.7-3.4-1.5-4.4c-0.8-1.1-2-1.7-3.6-1.9c-2.3-0.3-4,0.6-5.1,2.6c-1.1,2-1.9,5.2-2.3,9.6c-0.3,3-0.4,5.4-0.2,7.4
				c0.2,1.9,0.7,3.4,1.5,4.5c0.8,1.1,2,1.7,3.5,1.9c1.6,0.2,2.9-0.2,3.9-1.1c1-0.9,1.8-2.3,2.3-4.1
				C257.4,329.1,257.8,326.7,258.2,323.6z"/>
			<path fill="#4480C2" d="M251.9,343.3c-0.7,0-1.4,0-2-0.1c-3.1-0.4-5.8-1.5-8.1-3.3c-2.3-1.8-4-4.2-4.9-7.1
				c-0.5-1.6-0.8-3.2-0.9-5c-0.1-1.7,0-3.6,0.2-5.5c0.3-2.5,0.6-4.8,1.1-6.7c0.5-2.1,1.2-3.9,2-5.4c1.5-2.6,3.5-4.5,6-5.7
				c2.5-1.2,5.3-1.6,8.4-1.3c2,0.2,3.9,0.8,5.6,1.6c1.7,0.9,3.1,2,4.3,3.4c1.2,1.4,2.1,3,2.8,4.9c1.2,3.2,1.5,7.2,1,12.4
				c-0.3,2.7-0.7,5.1-1.3,7c-0.6,2.1-1.6,3.9-2.8,5.5c-1.6,2-3.6,3.5-6,4.4C255.7,343,253.8,343.3,251.9,343.3z M251.7,307.5
				c-1.6,0-3.1,0.3-4.4,0.9c-1.7,0.8-3,2.1-4.1,3.9c-0.6,1.1-1.2,2.6-1.6,4.3c-0.4,1.8-0.8,3.8-1,6.1c-0.2,1.7-0.2,3.3-0.1,4.8
				c0.1,1.4,0.3,2.7,0.7,3.9c0.7,2,1.8,3.6,3.4,4.9c1.6,1.3,3.5,2.1,5.8,2.3c1.9,0.2,3.7,0,5.4-0.6c1.6-0.6,3-1.6,4.1-3
				c0.9-1.1,1.6-2.5,2-4c0.5-1.7,0.9-3.8,1.1-6.2c0.5-4.4,0.2-7.9-0.7-10.4c-0.5-1.4-1.2-2.6-2-3.5c-0.8-0.9-1.8-1.7-2.9-2.3
				c-1.2-0.6-2.5-1-4-1.2C252.8,307.5,252.2,307.5,251.7,307.5z M251.4,338.4c-0.3,0.1-0.7,0-1.1-0.1c-2.2-0.3-3.9-1.2-5.1-2.7
				c-1.1-1.4-1.7-3.3-1.9-5.6c-0.2-2.1-0.1-4.7,0.2-7.8c0.5-4.7,1.3-8.1,2.6-10.4c1.6-2.8,4.1-4.1,7.3-3.8c2.2,0.3,3.9,1.2,5.1,2.7
				c1.1,1.4,1.7,3.3,1.9,5.6c0.2,2.1,0.2,4.6-0.2,7.6c-0.3,3.2-0.8,5.8-1.4,7.7c-0.7,2.2-1.7,3.9-3,5.1
				C254.7,337.8,253.2,338.4,251.4,338.4z M252.4,312.4c-1.1,0-1.8,0.5-2.4,1.5c-1,1.7-1.7,4.7-2.1,8.7c-0.3,2.8-0.3,5.1-0.2,6.9
				c0.1,1.5,0.5,2.6,1.1,3.4c0.3,0.4,0.8,0.8,2,1c0.2,0,0.4,0,0.5,0c0.9,0,1.4-0.3,1.6-0.5c0.7-0.6,1.3-1.6,1.7-3.1
				c0.5-1.7,0.9-4,1.2-6.9c0.3-2.7,0.3-5,0.2-6.7c-0.1-1.5-0.5-2.6-1-3.3c-0.3-0.4-0.8-0.9-2.1-1
				C252.8,312.4,252.6,312.4,252.4,312.4z"/>
		</g>
		<g>
			<path fill="#4480C2" d="M281.2,342.2c0.9-8.6,1.3-12.9,2.2-21.6c-4.7,2.1-7.8,3.1-9.3,2.8c-0.7-0.1-1.3-0.5-1.8-1.1
				c-0.5-0.6-0.7-1.3-0.6-2c0.1-0.8,0.4-1.4,1-1.6c0.6-0.3,1.6-0.6,3.1-0.9c2.2-0.5,3.9-1.1,5.3-1.9c1.3-0.7,2.6-1.6,3.6-2.6
				c1.1-1,1.8-1.6,2.1-1.9c0.3-0.2,0.9-0.2,1.7-0.1c0.9,0.2,1.6,0.7,2.1,1.5c0.5,0.8,0.7,1.7,0.5,2.9c-1.1,10.9-1.7,16.3-2.8,27.2
				c-0.3,3.2-1.7,4.5-4,3.9c-1-0.2-1.8-0.7-2.4-1.5C281.3,344.5,281.1,343.5,281.2,342.2z"/>
			<path fill="#4480C2" d="M285.2,349.2c-0.5,0-1-0.1-1.5-0.2c-1.6-0.4-2.8-1.2-3.7-2.4c-0.9-1.2-1.2-2.8-1.1-4.6l1.8-17.8
				c-3.4,1.3-5.6,1.7-7.1,1.5c-1.2-0.2-2.3-0.9-3.2-2c-0.9-1.1-1.3-2.3-1.1-3.6c0.2-1.6,1-2.8,2.3-3.4c0.8-0.4,1.9-0.7,3.5-1.1
				c2-0.5,3.6-1,4.7-1.6c1.2-0.6,2.2-1.4,3.2-2.3c1.5-1.4,2.1-1.9,2.4-2.1c0.9-0.6,2-0.7,3.5-0.4c1.5,0.3,2.7,1.2,3.5,2.5
				c0.7,1.2,1,2.6,0.9,4.3l-2.8,27.2C289.9,348.6,286.6,349.2,285.2,349.2z M286,317l-2.6,25.5c-0.1,0.7,0,1.2,0.2,1.5
				c0.2,0.2,0.4,0.5,1.1,0.7c0.2,0,0.3,0.1,0.5,0.1c0.5,0,0.8-1.6,0.8-2l2.8-27.2c0.1-0.6,0-1.1-0.2-1.5c-0.2-0.3-0.3-0.4-0.7-0.5
				c-0.1,0-0.1,0-0.2,0c-0.3,0.2-0.7,0.6-1.5,1.4c-1.2,1.1-2.6,2.1-4.1,3c-1.5,0.8-3.4,1.5-5.8,2.1c-1.3,0.3-2,0.5-2.3,0.7
				c0,0.1,0.1,0.2,0.2,0.3c0.2,0.3,0.4,0.3,0.5,0.3l0.2,0c0.7,0,2.7-0.3,7.8-2.7L286,317z"/>
		</g>
	</g>
</g>
<g>
	<g>
		<g>
			<path fill="#4480C2" d="M386.2,91.2c-0.3,2.6-0.7,4.8-1.2,6.8c-0.5,1.9-1.4,3.7-2.5,5.4c-1.4,2-3.1,3.7-5.1,5
				c-2,1.3-4.2,2.2-6.6,2.6c-2.7,0.5-5.1,0.3-7.1-0.7c-2-0.9-3.4-2.5-4.3-4.6c-0.4-1.2-0.7-2.6-0.8-4.1s0-3.2,0.1-5.1
				c0.2-2.4,0.6-4.6,1.1-6.5c0.5-2,1.1-3.7,1.8-5.2c1.3-2.5,3-4.6,5.1-6.2c2.1-1.6,4.6-2.7,7.3-3.2c1.8-0.3,3.5-0.3,4.9-0.1
				c1.4,0.3,2.7,0.9,3.7,1.7c1,0.8,1.9,2,2.5,3.4C386.4,82.8,386.7,86.4,386.2,91.2z M379,91.8c0.3-2.9,0.3-5.2,0.1-7
				c-0.2-1.8-0.7-3.1-1.5-3.8c-0.8-0.8-2.1-1-3.7-0.7c-2.3,0.4-4.1,1.8-5.2,4.1c-1.1,2.3-1.9,5.6-2.4,10c-0.3,3-0.4,5.4-0.2,7.2
				c0.2,1.8,0.7,3.1,1.5,3.9c0.8,0.8,2,1,3.6,0.8c1.6-0.3,3-1,4-2.2c1-1.2,1.8-2.7,2.4-4.7C378.2,97.4,378.7,94.9,379,91.8z"/>
			<path fill="#4480C2" d="M368.1,113.5c-1.9,0-3.7-0.4-5.3-1.1c-2.5-1.2-4.4-3.2-5.4-5.9c-0.5-1.4-0.8-3-0.9-4.8
				c-0.1-1.6,0-3.5,0.2-5.4c0.3-2.5,0.6-4.8,1.1-6.8c0.5-2.1,1.2-4,2-5.7c1.5-2.8,3.4-5.2,5.8-7c2.4-1.8,5.2-3,8.3-3.6
				c2.1-0.4,4-0.4,5.7-0.1c1.8,0.4,3.4,1.1,4.7,2.2c1.3,1.1,2.3,2.5,3.1,4.2c1.3,2.8,1.6,6.7,1.1,11.9c-0.3,2.7-0.7,5.1-1.3,7.1
				c-0.6,2.1-1.6,4.2-2.8,6c-1.6,2.3-3.5,4.2-5.8,5.7c-2.3,1.5-4.7,2.5-7.4,2.9C370.2,113.4,369.1,113.5,368.1,113.5z M377,77.4
				c-0.7,0-1.5,0.1-2.4,0.2c-2.4,0.4-4.5,1.4-6.4,2.7c-1.8,1.4-3.3,3.2-4.5,5.4c-0.7,1.3-1.2,2.9-1.7,4.7c-0.5,1.9-0.8,4-1,6.2
				c-0.2,1.7-0.2,3.3-0.1,4.7c0.1,1.3,0.3,2.5,0.6,3.5c0.6,1.5,1.6,2.7,3.1,3.3c1.6,0.7,3.5,0.9,5.7,0.5c2-0.4,4-1.1,5.7-2.3
				c1.8-1.2,3.3-2.6,4.5-4.4c1-1.4,1.7-3,2.2-4.7c0.5-1.8,0.9-3.9,1.1-6.4c0.4-4.4,0.2-7.6-0.7-9.6c-0.5-1.1-1.1-1.9-1.9-2.5
				c-0.7-0.6-1.6-1-2.7-1.2C378.2,77.5,377.6,77.4,377,77.4z M370.1,108.5C370.1,108.5,370.1,108.5,370.1,108.5c-2,0-3.3-0.8-4-1.5
				c-1.2-1.2-1.9-2.9-2.2-5.3c-0.2-2-0.2-4.5,0.2-7.7c0.5-4.7,1.3-8.2,2.6-10.8c1.4-2.9,3.8-4.7,6.8-5.3c0.6-0.1,1.1-0.2,1.6-0.2
				c2,0,3.3,0.8,4,1.5c1.2,1.2,2,2.9,2.2,5.2c0.2,2,0.2,4.4-0.1,7.5c-0.3,3.2-0.8,5.8-1.4,7.9c-0.7,2.2-1.6,4.1-2.9,5.5
				c-1.4,1.5-3.1,2.5-5.3,2.9C371.1,108.5,370.6,108.5,370.1,108.5z M375.1,82.3c-0.2,0-0.5,0-0.8,0.1c-1.6,0.3-2.8,1.2-3.6,2.9
				c-1,2-1.7,5.1-2.1,9.2c-0.3,2.8-0.3,5.1-0.2,6.7c0.2,1.7,0.6,2.3,0.9,2.5c0.1,0.1,0.3,0.2,0.9,0.2h0c0.2,0,0.5,0,0.8-0.1
				c1.1-0.2,2-0.7,2.7-1.5c0.8-0.9,1.4-2.2,1.9-3.8c0.5-1.8,0.9-4.2,1.2-7.1c0.3-2.7,0.3-4.9,0.1-6.5c-0.2-1.6-0.6-2.2-0.9-2.5
				C375.9,82.4,375.5,82.3,375.1,82.3z"/>
		</g>
		<g>
			<path fill="#4480C2" d="M402.8,103c0.9-8.6,1.3-12.9,2.2-21.6c-4.8,3.5-8,5.3-9.6,5.5c-0.7,0.1-1.4-0.1-1.9-0.6
				c-0.5-0.5-0.7-1-0.7-1.7c0.1-0.8,0.4-1.4,1-1.9c0.6-0.4,1.7-1.1,3.2-1.8c2.2-1.1,4.1-2.2,5.5-3.4c1.4-1.1,2.6-2.3,3.8-3.6
				c1.1-1.3,1.8-2.1,2.2-2.4c0.3-0.3,0.9-0.5,1.7-0.6c0.9-0.1,1.7,0.2,2.2,0.8c0.5,0.6,0.7,1.5,0.6,2.6c-1.1,10.9-1.7,16.3-2.8,27.2
				c-0.3,3.2-1.7,4.8-4.1,5c-1.1,0.1-1.9-0.2-2.5-0.8C402.9,105.2,402.7,104.3,402.8,103z"/>
			<path fill="#4480C2" d="M405.6,108.8c-1.9,0-3.1-0.8-3.7-1.4c-1.1-1.1-1.5-2.6-1.3-4.6l1.7-16.8c-3.9,2.5-5.5,3-6.6,3.2
				c-1.4,0.2-2.6-0.2-3.6-1.1c-1.1-0.9-1.6-2.2-1.4-3.6c0.1-1.4,0.8-2.6,1.9-3.5c0.7-0.5,1.9-1.2,3.5-2c2.1-1.1,3.8-2.1,5.1-3.1
				c1.3-1,2.4-2.2,3.5-3.4c1.6-1.8,2.1-2.4,2.4-2.6c0.7-0.7,1.8-1.1,3.1-1.1c1.7-0.1,3.1,0.5,4.1,1.6c0.9,1.1,1.3,2.5,1.1,4.3
				l-2.8,27.2c-0.6,5.8-4.1,6.9-6.2,7C406,108.8,405.8,108.8,405.6,108.8z M407.8,76.7l-2.7,26.5c-0.1,0.8,0.1,1,0.1,1
				c0.1,0.1,0.4,0.1,0.5,0.1l0.2,0c0.7,0,1.8-0.1,2.1-3l2.8-27.2c0.1-0.6,0-0.9-0.1-1c0,0-0.1,0-0.2,0c-0.3,0-0.5,0.1-0.6,0.1
				c-0.2,0.2-0.7,0.8-1.9,2.1c-1.2,1.4-2.6,2.7-4.1,3.9c-1.5,1.2-3.4,2.4-5.8,3.6c-1.8,0.9-2.6,1.4-2.9,1.6c-0.1,0-0.1,0.1-0.1,0.3
				c0,0,0-0.1-0.1-0.2l0.4,2.3l-0.2-2.2c0.4,0,2.2-0.5,8.5-5.1L407.8,76.7z"/>
		</g>
		<g>
			<path fill="#4480C2" d="M450.9,88.6c-0.3,2.6-0.7,4.8-1.2,6.7s-1.4,3.5-2.5,5c-1.4,1.8-3.1,3.2-5.1,4.1c-2,0.9-4.2,1.4-6.5,1.4
				c-2.7,0-5-0.7-7-2.1c-2-1.3-3.4-3.2-4.2-5.6c-0.4-1.3-0.7-2.7-0.8-4.3c-0.1-1.6,0-3.3,0.1-5.1c0.2-2.4,0.6-4.5,1.1-6.5
				c0.5-1.9,1.1-3.6,1.8-5c1.3-2.3,3-4.1,5.1-5.3c2.1-1.2,4.5-1.8,7.3-1.8c1.8,0,3.4,0.3,4.9,0.9c1.4,0.6,2.6,1.4,3.7,2.5
				c1,1.1,1.8,2.4,2.4,3.9C451.1,80.1,451.4,83.8,450.9,88.6z M443.7,87.8c0.3-2.9,0.3-5.3,0.1-7.1c-0.2-1.9-0.7-3.3-1.5-4.2
				c-0.8-1-2-1.5-3.7-1.5c-2.3,0-4.1,1-5.2,3.1c-1.1,2.1-1.9,5.3-2.4,9.7c-0.3,3-0.4,5.4-0.2,7.3c0.2,1.9,0.7,3.3,1.5,4.3
				c0.8,1,2,1.5,3.6,1.5c1.6,0,2.9-0.4,4-1.4c1-1,1.8-2.4,2.4-4.3C443,93.3,443.4,90.8,443.7,87.8z"/>
			<path fill="#4480C2" d="M435.9,107.9l-0.3,0c-3.1-0.1-5.9-0.9-8.2-2.5c-2.4-1.6-4.1-3.9-5.1-6.7c-0.5-1.5-0.8-3.2-0.9-4.9
				c-0.1-1.7,0-3.6,0.2-5.5c0.3-2.5,0.6-4.8,1.1-6.8c0.5-2.1,1.2-3.9,2-5.5c1.5-2.7,3.5-4.7,6-6.2c2.4-1.4,5.1-2.1,8.1-2.1l0.3,0
				c2.1,0,4,0.4,5.7,1.1c1.7,0.7,3.2,1.7,4.4,3c1.2,1.3,2.2,2.8,2.9,4.6c1.2,3.1,1.5,7.1,1,12.2c-0.3,2.7-0.7,5.1-1.3,7.1
				c-0.6,2.1-1.6,4-2.8,5.7c-1.6,2.1-3.6,3.7-5.9,4.8C440.9,107.4,438.4,107.9,435.9,107.9z M438.8,72.3c-2.2,0-4.2,0.5-5.9,1.5
				c-1.7,1-3.2,2.5-4.2,4.4c-0.6,1.2-1.2,2.7-1.6,4.4c-0.5,1.8-0.8,3.9-1,6.1c-0.2,1.7-0.2,3.3-0.1,4.8c0.1,1.4,0.3,2.7,0.7,3.8
				c0.7,1.9,1.8,3.3,3.4,4.4c1.6,1.1,3.5,1.7,5.8,1.7l0.2,0c1.9,0,3.7-0.4,5.3-1.1c1.7-0.8,3.1-1.9,4.3-3.5c0.9-1.2,1.6-2.7,2.1-4.2
				c0.5-1.7,0.9-3.8,1.1-6.3c0.5-4.4,0.2-7.8-0.7-10.1c-0.5-1.3-1.2-2.3-2-3.2c-0.8-0.8-1.7-1.5-2.9-1.9c-1.2-0.5-2.5-0.7-4.1-0.7
				L438.8,72.3z M436.2,103.1C436.2,103.1,436.2,103.1,436.2,103.1l-0.2,0c-2.8,0-4.4-1.3-5.3-2.3c-1.1-1.3-1.8-3.2-2-5.5
				c-0.2-2.1-0.2-4.6,0.2-7.8c0.5-4.7,1.3-8.2,2.6-10.6c1.5-2.8,3.9-4.3,7-4.3l0.2,0c2.8,0,4.5,1.3,5.3,2.3c1.1,1.3,1.8,3.1,2,5.4
				c0.2,2,0.2,4.6-0.1,7.6c-0.3,3.2-0.8,5.8-1.4,7.8c-0.7,2.2-1.7,4-3,5.2C440.2,102.4,438.3,103.1,436.2,103.1z M438.5,74.9v2.2
				c-1.4,0-2.4,0.6-3.1,1.9c-1,1.8-1.7,4.8-2.1,8.9c-0.3,2.8-0.3,5.1-0.2,6.8c0.1,1.4,0.5,2.5,1,3.1c0.2,0.3,0.7,0.7,1.9,0.7
				c0,0,0,0,0,0c1.4,0,2-0.5,2.4-0.8c0.7-0.7,1.3-1.8,1.8-3.3c0.5-1.7,0.9-4.1,1.2-7c0.3-2.7,0.3-5,0.1-6.7c-0.1-1.4-0.5-2.4-1-3
				c-0.1-0.2-0.6-0.7-2-0.7L438.5,74.9z"/>
		</g>
		<g>
			<path fill="#4480C2" d="M482.7,92c-0.3,2.6-0.7,4.8-1.2,6.6c-0.5,1.8-1.4,3.4-2.4,4.8c-1.4,1.7-3,2.9-5,3.7c-2,0.8-4.1,1-6.4,0.7
				c-2.6-0.3-5-1.2-6.9-2.8c-2-1.6-3.4-3.6-4.2-6.1c-0.4-1.4-0.7-2.8-0.7-4.4c-0.1-1.6,0-3.3,0.1-5.2c0.2-2.4,0.6-4.5,1.1-6.4
				c0.5-1.9,1.1-3.5,1.8-4.8c1.3-2.2,2.9-3.8,5-4.8c2.1-1,4.5-1.4,7.2-1.1c1.8,0.2,3.4,0.7,4.8,1.4c1.4,0.7,2.6,1.7,3.6,2.9
				c1,1.2,1.8,2.6,2.4,4.2C482.9,83.5,483.2,87.3,482.7,92z M475.6,90.5c0.3-2.9,0.3-5.3,0.2-7.2c-0.2-1.9-0.7-3.4-1.5-4.4
				c-0.8-1.1-2-1.7-3.6-1.9c-2.3-0.3-4,0.6-5.1,2.6c-1.1,2-1.9,5.2-2.3,9.6c-0.3,3-0.4,5.4-0.2,7.4c0.2,1.9,0.7,3.4,1.5,4.5
				c0.8,1.1,2,1.7,3.5,1.9c1.6,0.2,2.9-0.2,3.9-1.1c1-0.9,1.8-2.3,2.3-4.1C474.9,96,475.3,93.6,475.6,90.5z"/>
			<path fill="#4480C2" d="M469.4,110.2c-0.7,0-1.4,0-2-0.1c-3.1-0.4-5.8-1.5-8.1-3.3c-2.3-1.8-4-4.2-4.9-7.1
				c-0.5-1.6-0.8-3.2-0.9-5c-0.1-1.7,0-3.6,0.2-5.5c0.3-2.5,0.6-4.7,1.1-6.7c0.5-2.1,1.2-3.9,2-5.4c1.5-2.6,3.5-4.5,6-5.7
				c2.5-1.2,5.3-1.6,8.4-1.3c2,0.2,3.9,0.8,5.6,1.6c1.7,0.9,3.1,2,4.3,3.4c1.2,1.4,2.1,3,2.8,4.9c1.2,3.2,1.5,7.2,1,12.4
				c-0.3,2.7-0.7,5.1-1.3,7c-0.6,2.1-1.6,3.9-2.8,5.5c-1.6,2-3.6,3.5-6,4.4C473.1,109.8,471.3,110.2,469.4,110.2z M469.2,74.3
				c-1.6,0-3.1,0.3-4.4,0.9c-1.7,0.8-3,2.1-4.1,3.9c-0.6,1.1-1.2,2.6-1.6,4.3c-0.4,1.8-0.8,3.8-1,6.1c-0.2,1.7-0.2,3.4-0.1,4.8
				c0.1,1.4,0.3,2.7,0.7,3.9c0.7,2,1.8,3.6,3.4,4.9c1.6,1.3,3.5,2.1,5.8,2.3c1.9,0.2,3.7,0,5.4-0.6c1.6-0.6,3-1.6,4.1-3
				c0.9-1.1,1.6-2.5,2-4c0.5-1.7,0.9-3.8,1.1-6.2c0.5-4.4,0.2-7.9-0.7-10.4c-0.5-1.4-1.2-2.6-2-3.5c-0.8-0.9-1.8-1.7-2.9-2.3
				c-1.2-0.6-2.5-1-4-1.2C470.3,74.4,469.7,74.3,469.2,74.3z M468.9,105.3C468.9,105.3,468.9,105.3,468.9,105.3
				c-0.3,0-0.7,0-1.1-0.1c-2.2-0.3-3.9-1.2-5.1-2.7c-1.1-1.4-1.7-3.3-1.9-5.6c-0.2-2.1-0.1-4.7,0.2-7.8c0.5-4.7,1.3-8.1,2.6-10.4
				c1.6-2.8,4.1-4.2,7.3-3.8c2.2,0.3,4,1.2,5.1,2.7c1.1,1.4,1.7,3.3,1.9,5.6c0.2,2,0.2,4.6-0.2,7.6c-0.3,3.2-0.8,5.8-1.4,7.7
				c-0.7,2.2-1.7,3.9-3,5.1C472.2,104.7,470.7,105.3,468.9,105.3z M469.9,79.2c-1.1,0-1.8,0.5-2.4,1.5c-1,1.7-1.7,4.7-2.1,8.7
				c-0.3,2.8-0.3,5.1-0.2,6.9c0.1,1.5,0.5,2.6,1.1,3.4c0.3,0.4,0.8,0.8,2,1c0.2,0,0.4,0,0.5,0c0.9,0,1.4-0.3,1.6-0.5
				c0.7-0.6,1.3-1.6,1.7-3.1c0.5-1.7,0.9-4,1.2-6.9c0.3-2.7,0.3-5,0.2-6.7c-0.1-1.5-0.5-2.6-1-3.3c-0.2-0.2-0.6-0.8-2.1-1
				C470.2,79.2,470.1,79.2,469.9,79.2z"/>
		</g>
		<g>
			<path fill="#4480C2" d="M498.7,109.1c0.9-8.6,1.3-12.9,2.2-21.6c-4.7,2.1-7.8,3.1-9.3,2.8c-0.7-0.1-1.3-0.5-1.8-1.1
				c-0.5-0.6-0.7-1.3-0.6-2c0.1-0.8,0.4-1.4,1-1.6c0.6-0.3,1.6-0.6,3.1-0.9c2.2-0.5,3.9-1.1,5.3-1.9c1.3-0.7,2.6-1.6,3.6-2.6
				c1.1-1,1.8-1.6,2.1-1.9c0.3-0.2,0.9-0.2,1.7-0.1c0.9,0.2,1.6,0.7,2.1,1.5c0.5,0.8,0.7,1.7,0.5,2.9c-1.1,10.9-1.7,16.3-2.8,27.2
				c-0.3,3.2-1.7,4.5-4,3.9c-1-0.2-1.8-0.7-2.4-1.5C498.8,111.4,498.5,110.4,498.7,109.1z"/>
			<path fill="#4480C2" d="M502.7,116.1c-0.5,0-1-0.1-1.5-0.2c-1.6-0.4-2.8-1.2-3.7-2.4c-0.9-1.2-1.2-2.8-1.1-4.6l0-0.2l1.8-17.6
				c-3.4,1.3-5.6,1.7-7.1,1.5c-1.2-0.2-2.3-0.9-3.2-2c-0.9-1.1-1.3-2.3-1.1-3.6c0.2-1.6,1-2.8,2.3-3.4c0.8-0.4,1.9-0.7,3.5-1.1
				c2-0.5,3.6-1,4.7-1.6c1.2-0.6,2.2-1.4,3.2-2.3c1.5-1.5,2.1-1.9,2.4-2.1c0.9-0.6,2-0.7,3.5-0.4c1.5,0.3,2.7,1.2,3.5,2.5
				c0.7,1.2,1,2.6,0.9,4.3l-2.8,27.2C507.4,115.5,504.1,116.1,502.7,116.1z M503.5,83.9l-2.6,25.5c-0.1,0.7,0,1.2,0.2,1.5
				c0.2,0.2,0.4,0.5,1.1,0.7c0.2,0,0.3,0.1,0.5,0.1c0.5,0,0.8-1.6,0.8-2l2.8-27.2c0.1-0.6,0-1.1-0.2-1.5c-0.2-0.3-0.3-0.4-0.7-0.5
				c-0.1,0-0.1,0-0.2,0c-0.3,0.2-0.7,0.6-1.5,1.4c-1.2,1.2-2.6,2.2-4.1,3c-1.5,0.8-3.4,1.5-5.8,2.1c-1.3,0.3-2,0.5-2.3,0.7
				c0,0.1,0.1,0.2,0.2,0.3c0.2,0.3,0.4,0.3,0.5,0.3c0.9,0,2.8-0.3,7.9-2.7L503.5,83.9z"/>
		</g>
		<g>
			<path fill="#4480C2" d="M380.2,149.5c-0.3,2.6-0.7,4.8-1.2,6.8c-0.5,1.9-1.4,3.7-2.5,5.4c-1.4,2-3.1,3.7-5.1,5
				c-2,1.3-4.2,2.2-6.6,2.6c-2.7,0.5-5.1,0.3-7.1-0.7c-2-0.9-3.4-2.5-4.3-4.6c-0.4-1.2-0.7-2.6-0.8-4.1c-0.1-1.5,0-3.2,0.1-5.1
				c0.2-2.4,0.6-4.6,1.1-6.5c0.5-2,1.1-3.7,1.8-5.2c1.3-2.5,3-4.6,5.1-6.2c2.1-1.6,4.6-2.7,7.3-3.2c1.8-0.3,3.5-0.3,4.9-0.1
				c1.4,0.3,2.7,0.9,3.7,1.7c1,0.8,1.9,2,2.5,3.4C380.4,141.1,380.7,144.7,380.2,149.5z M373,150.1c0.3-2.9,0.3-5.2,0.1-7
				c-0.2-1.8-0.7-3.1-1.5-3.8c-0.8-0.8-2.1-1-3.7-0.7c-2.3,0.4-4.1,1.8-5.2,4.1c-1.1,2.3-1.9,5.6-2.4,10c-0.3,3-0.4,5.4-0.2,7.2
				c0.2,1.8,0.7,3.1,1.5,3.9c0.8,0.8,2,1,3.6,0.8c1.6-0.3,3-1,4-2.2c1-1.2,1.8-2.7,2.4-4.7C372.2,155.7,372.7,153.2,373,150.1z"/>
			<path fill="#4480C2" d="M362.2,171.7c-1.9,0-3.7-0.4-5.3-1.1c-2.5-1.2-4.4-3.2-5.4-5.9c-0.5-1.4-0.8-3-0.9-4.8
				c-0.1-1.6,0-3.5,0.2-5.4c0.3-2.5,0.6-4.8,1.1-6.8c0.5-2.1,1.2-4,2-5.7c1.5-2.8,3.4-5.2,5.8-7c2.4-1.8,5.2-3,8.3-3.6
				c2.1-0.4,4-0.4,5.7-0.1c1.8,0.4,3.4,1.1,4.7,2.2c1.3,1.1,2.3,2.5,3.1,4.2c1.3,2.8,1.6,6.7,1.1,11.9c-0.3,2.7-0.7,5.1-1.3,7.1
				c-0.6,2.1-1.5,4.1-2.8,6c-1.6,2.3-3.5,4.2-5.8,5.7c-2.3,1.5-4.7,2.5-7.4,2.9C364.2,171.6,363.1,171.7,362.2,171.7z M371,135.7
				c-0.7,0-1.5,0.1-2.4,0.2c-2.4,0.4-4.5,1.4-6.4,2.7c-1.8,1.4-3.3,3.2-4.5,5.4c-0.7,1.3-1.2,2.9-1.7,4.7c-0.5,1.9-0.8,4-1,6.2
				c-0.2,1.7-0.2,3.3-0.1,4.7c0.1,1.3,0.3,2.5,0.6,3.5c0.6,1.5,1.6,2.7,3.1,3.3c1.6,0.7,3.5,0.9,5.7,0.5c2-0.4,4-1.1,5.7-2.3
				c1.8-1.2,3.3-2.6,4.5-4.4c1-1.4,1.7-3,2.2-4.7c0.5-1.8,0.9-3.9,1.1-6.4c0.4-4.4,0.2-7.6-0.7-9.6c-0.5-1.1-1.1-1.9-1.9-2.5
				c-0.7-0.6-1.6-1-2.7-1.2C372.2,135.7,371.6,135.7,371,135.7z M364.1,166.8C364.1,166.8,364.1,166.8,364.1,166.8
				c-2,0-3.3-0.8-4-1.5c-1.2-1.2-1.9-2.9-2.2-5.3c-0.2-2-0.2-4.5,0.2-7.7c0.5-4.7,1.3-8.2,2.6-10.8c1.4-2.9,3.8-4.7,6.8-5.3
				c0.6-0.1,1.1-0.2,1.6-0.2c2,0,3.3,0.8,4,1.5c1.2,1.2,2,2.9,2.2,5.2c0.2,2,0.2,4.4-0.1,7.5c-0.3,3.2-0.8,5.8-1.4,7.9
				c-0.7,2.2-1.6,4.1-2.9,5.5c-1.4,1.5-3.1,2.5-5.3,2.9C365.1,166.7,364.6,166.8,364.1,166.8z M369.1,140.6c-0.2,0-0.5,0-0.8,0.1
				c-1.6,0.3-2.8,1.2-3.6,2.9c-1,2-1.7,5.1-2.1,9.2c-0.3,2.8-0.3,5.1-0.2,6.7c0.2,1.7,0.6,2.3,0.9,2.5c0.1,0.1,0.3,0.2,0.9,0.2h0
				c0.2,0,0.5,0,0.8-0.1c1.1-0.2,2-0.7,2.7-1.5c0.8-0.9,1.5-2.2,1.9-3.8c0.5-1.8,0.9-4.2,1.2-7.1c0.3-2.7,0.3-4.9,0.1-6.5
				c-0.2-1.6-0.6-2.2-0.9-2.5C369.9,140.7,369.6,140.6,369.1,140.6z"/>
		</g>
		<g>
			<path fill="#4480C2" d="M396.8,161.3c0.9-8.6,1.3-12.9,2.2-21.6c-4.8,3.5-8,5.3-9.6,5.5c-0.7,0.1-1.4-0.1-1.9-0.6
				c-0.5-0.5-0.7-1-0.7-1.7c0.1-0.8,0.4-1.4,1-1.9c0.6-0.4,1.7-1.1,3.2-1.8c2.2-1.1,4.1-2.2,5.5-3.4c1.4-1.1,2.6-2.3,3.8-3.6
				c1.1-1.3,1.8-2.1,2.2-2.4c0.3-0.3,0.9-0.5,1.7-0.6c0.9-0.1,1.7,0.2,2.2,0.8c0.5,0.6,0.7,1.5,0.6,2.6c-1.1,10.9-1.7,16.3-2.8,27.2
				c-0.3,3.2-1.7,4.8-4.1,5c-1.1,0.1-1.9-0.2-2.5-0.8C396.9,163.5,396.7,162.6,396.8,161.3z"/>
			<path fill="#4480C2" d="M399.6,167.1c-1.9,0-3.1-0.8-3.7-1.4c-1.1-1.1-1.5-2.6-1.3-4.6l1.7-16.8c-3.9,2.5-5.5,3-6.6,3.2
				c-1.4,0.2-2.6-0.2-3.6-1.1c-1.1-0.9-1.6-2.2-1.4-3.6c0.1-1.4,0.8-2.6,1.9-3.5c0.7-0.5,1.9-1.2,3.5-2c2.1-1.1,3.8-2.1,5.1-3.1
				c1.3-1,2.4-2.2,3.5-3.4c1.6-1.8,2.1-2.4,2.4-2.6c0.7-0.7,1.8-1.1,3.1-1.1c1.7-0.1,3.1,0.5,4.1,1.6c0.9,1.1,1.3,2.5,1.1,4.3
				l-2.8,27.2c-0.6,5.8-4.1,6.9-6.2,7C400,167.1,399.8,167.1,399.6,167.1z M401.8,135l-2.7,26.5c-0.1,0.8,0.1,1,0.1,1
				c0.1,0.1,0.4,0.1,0.5,0.1l0.2,0c0.7,0,1.8-0.1,2.1-3l2.8-27.2c0.1-0.6,0-0.9-0.1-1c0,0-0.1,0-0.2,0c-0.3,0-0.5,0.1-0.6,0.1
				c-0.2,0.2-0.7,0.8-1.9,2.1c-1.2,1.4-2.6,2.7-4.1,3.9c-1.5,1.2-3.4,2.4-5.8,3.6c-1.8,0.9-2.6,1.4-2.9,1.6c0,0-0.1,0.1-0.1,0.1
				l0.1,0c0.4,0,2.2-0.5,8.5-5.1L401.8,135z"/>
		</g>
		<g>
			<path fill="#4480C2" d="M429.2,160.2c0.9-8.6,1.3-12.9,2.2-21.6c-4.8,3-8,4.6-9.5,4.6c-0.7,0-1.4-0.2-1.9-0.8
				c-0.5-0.5-0.7-1.1-0.7-1.8c0.1-0.8,0.4-1.4,1-1.8c0.6-0.4,1.7-0.9,3.1-1.5c2.2-0.9,4-1.9,5.4-2.9c1.4-1,2.6-2.1,3.7-3.3
				c1.1-1.2,1.8-2,2.2-2.2c0.3-0.3,0.9-0.4,1.7-0.4c0.9,0,1.7,0.4,2.1,1c0.5,0.7,0.7,1.6,0.6,2.7c-1.1,10.9-1.7,16.3-2.8,27.2
				c-0.3,3.2-1.7,4.7-4.1,4.7c-1.1,0-1.9-0.4-2.5-1C429.3,162.4,429,161.4,429.2,160.2z"/>
			<path fill="#4480C2" d="M432.5,166.3l-0.2,0c-2.1-0.1-3.4-1-4.1-1.8c-1-1.1-1.4-2.7-1.2-4.6l1.8-17.1c-4,2.3-5.7,2.6-6.8,2.6h0
				c-1.4,0-2.6-0.5-3.5-1.4c-1-1-1.5-2.3-1.3-3.6c0.2-1.5,0.9-2.7,2-3.5c0.7-0.5,1.9-1,3.5-1.7c2.1-0.9,3.8-1.7,5-2.6
				c1.2-0.9,2.4-1.9,3.4-3c1.6-1.7,2.1-2.2,2.4-2.4c0.7-0.6,1.7-0.9,3-0.9l0.2,0c1.6,0,3,0.7,3.9,1.9c0.8,1.1,1.2,2.6,1,4.3
				l-2.8,27.2C438.1,165.7,434.1,166.3,432.5,166.3z M434.1,134.2l-2.7,26.2c-0.1,0.7,0,1,0.1,1.2c0.1,0.1,0.2,0.3,0.9,0.3l0.1,2.2
				v-2.2c0.6,0,1.5,0,1.7-2.6L437,132c0.1-0.5,0-1-0.1-1.1c0-0.1-0.1-0.1-0.4-0.1c-0.2,0-0.3,0-0.4,0c-0.2,0.2-0.7,0.7-1.8,1.9
				c-1.2,1.3-2.6,2.5-4.1,3.6c-1.5,1.1-3.4,2.1-5.9,3.1c-1.8,0.7-2.5,1.1-2.8,1.3c0,0,0,0.1,0,0.1c0.1,0.1,0.2,0.1,0.3,0.1
				c0.4,0,2.1-0.3,8.4-4.3L434.1,134.2z"/>
		</g>
		<g>
			<path fill="#4480C2" d="M476.7,150.3c-0.3,2.6-0.7,4.8-1.2,6.6c-0.5,1.8-1.4,3.4-2.4,4.8c-1.4,1.7-3,2.9-5,3.7
				c-2,0.8-4.1,1-6.4,0.7c-2.6-0.3-5-1.2-6.9-2.8c-2-1.6-3.4-3.6-4.2-6.1c-0.4-1.4-0.7-2.8-0.7-4.4c-0.1-1.6,0-3.3,0.1-5.2
				c0.2-2.4,0.6-4.5,1.1-6.4c0.5-1.9,1.1-3.5,1.8-4.8c1.3-2.2,2.9-3.8,5-4.8c2.1-1,4.5-1.4,7.2-1.1c1.8,0.2,3.4,0.7,4.8,1.4
				c1.4,0.7,2.6,1.7,3.6,2.9c1,1.2,1.8,2.6,2.4,4.2C476.9,141.7,477.2,145.5,476.7,150.3z M469.6,148.8c0.3-2.9,0.3-5.3,0.2-7.2
				c-0.2-1.9-0.7-3.4-1.5-4.4c-0.8-1.1-2-1.7-3.6-1.9c-2.3-0.3-4,0.6-5.1,2.6c-1.1,2-1.9,5.2-2.3,9.6c-0.3,3-0.4,5.4-0.2,7.4
				c0.2,1.9,0.7,3.4,1.5,4.5c0.8,1.1,2,1.7,3.5,1.9c1.6,0.2,2.9-0.2,3.9-1.1c1-0.9,1.8-2.3,2.3-4.1
				C468.9,154.3,469.3,151.8,469.6,148.8z"/>
			<path fill="#4480C2" d="M463.4,168.4c-0.7,0-1.4,0-2-0.1c-3.1-0.4-5.8-1.5-8.1-3.3c-2.3-1.8-4-4.2-4.9-7.1
				c-0.5-1.6-0.8-3.2-0.9-5c-0.1-1.7,0-3.6,0.2-5.5c0.3-2.5,0.6-4.8,1.1-6.7c0.5-2.1,1.2-3.9,2-5.4c1.5-2.6,3.5-4.5,6-5.7
				c2.5-1.2,5.3-1.6,8.4-1.3c2,0.2,3.9,0.8,5.6,1.6c1.7,0.9,3.1,2,4.3,3.4c1.2,1.4,2.1,3,2.8,4.9c1.2,3.2,1.5,7.2,1,12.4
				c-0.3,2.7-0.7,5.1-1.3,7c-0.6,2.1-1.6,3.9-2.8,5.5c-1.6,2-3.6,3.5-6,4.4C467.1,168.1,465.3,168.4,463.4,168.4z M463.2,132.6
				c-1.6,0-3.1,0.3-4.4,0.9c-1.7,0.8-3,2.1-4.1,3.9c-0.6,1.1-1.2,2.6-1.6,4.3c-0.4,1.8-0.8,3.8-1,6.1c-0.2,1.7-0.2,3.3-0.1,4.8
				c0.1,1.4,0.3,2.7,0.7,3.9c0.7,2,1.8,3.6,3.4,4.9c1.6,1.3,3.5,2.1,5.8,2.3c1.9,0.2,3.7,0,5.4-0.6c1.6-0.6,3-1.6,4.1-3
				c0.9-1.1,1.6-2.5,2-4c0.5-1.7,0.9-3.8,1.1-6.2c0.5-4.4,0.2-7.9-0.7-10.4c-0.5-1.4-1.2-2.6-2-3.5c-0.8-0.9-1.8-1.7-2.9-2.3
				c-1.2-0.6-2.5-1-4-1.2C464.3,132.7,463.7,132.6,463.2,132.6z M462.9,163.6L462.9,163.6c-0.3,0-0.7,0-1.1-0.1
				c-2.2-0.3-3.9-1.2-5.1-2.7c-1.1-1.4-1.7-3.3-1.9-5.6c-0.2-2.1-0.1-4.7,0.2-7.8c0.5-4.7,1.3-8.2,2.6-10.4c1.6-2.8,4.1-4.2,7.3-3.8
				c2.2,0.3,3.9,1.2,5.1,2.7c1.1,1.4,1.7,3.3,1.9,5.6c0.2,2,0.2,4.6-0.2,7.6c-0.3,3.2-0.8,5.8-1.4,7.7c-0.7,2.2-1.7,3.9-3,5.1
				C466.2,163,464.7,163.6,462.9,163.6z M463.9,137.5c-1.1,0-1.8,0.5-2.4,1.5c-1,1.7-1.7,4.7-2.1,8.7c-0.3,2.8-0.3,5.1-0.2,6.9
				c0.1,1.5,0.5,2.6,1.1,3.4c0.3,0.4,0.8,0.8,2,1c1.2,0.1,1.9-0.2,2.2-0.5c0.7-0.6,1.3-1.6,1.7-3.1c0.5-1.7,0.9-4,1.2-6.9
				c0.3-2.7,0.3-5,0.2-6.7c-0.1-1.5-0.5-2.6-1-3.3c-0.2-0.2-0.6-0.8-2.1-1C464.3,137.5,464.1,137.5,463.9,137.5z"/>
		</g>
		<g>
			<path fill="#4480C2" d="M492.7,167.4c0.9-8.6,1.3-12.9,2.2-21.6c-4.7,2.1-7.8,3.1-9.3,2.8c-0.7-0.1-1.3-0.5-1.8-1.1
				c-0.5-0.6-0.7-1.3-0.6-2c0.1-0.8,0.4-1.4,1-1.6c0.6-0.3,1.6-0.6,3.1-0.9c2.2-0.5,3.9-1.1,5.3-1.9c1.3-0.7,2.6-1.6,3.6-2.6
				c1.1-1,1.8-1.6,2.1-1.9c0.3-0.2,0.9-0.2,1.7-0.1c0.9,0.2,1.6,0.7,2.1,1.5c0.5,0.8,0.7,1.7,0.5,2.9c-1.1,10.9-1.7,16.3-2.8,27.2
				c-0.3,3.2-1.7,4.5-4,3.9c-1-0.2-1.8-0.7-2.4-1.5C492.8,169.7,492.6,168.7,492.7,167.4z"/>
			<path fill="#4480C2" d="M496.7,174.4c-0.5,0-1-0.1-1.5-0.2c-1.6-0.4-2.8-1.2-3.7-2.4c-0.9-1.2-1.2-2.8-1.1-4.6l0-0.2l1.8-17.6
				c-3.4,1.3-5.6,1.7-7.1,1.5c-1.2-0.2-2.3-0.9-3.2-2c-0.9-1.1-1.3-2.3-1.1-3.6c0.2-1.6,1-2.8,2.3-3.4c0.8-0.4,1.9-0.7,3.5-1.1
				c2-0.5,3.6-1,4.7-1.6c1.2-0.6,2.2-1.4,3.2-2.3c1.5-1.5,2.1-1.9,2.4-2.1c0.9-0.6,2-0.7,3.5-0.4c1.5,0.3,2.7,1.2,3.5,2.5
				c0.7,1.2,1,2.6,0.9,4.3l-2.8,27.2C501.4,173.8,498.1,174.4,496.7,174.4z M497.5,142.1l-2.6,25.5c-0.1,0.7,0,1.2,0.2,1.5
				c0.2,0.2,0.4,0.5,1.1,0.7c0.2,0,0.3,0.1,0.5,0.1c0.5,0,0.8-1.6,0.8-2l2.8-27.2c0.1-0.6,0-1.1-0.2-1.5c-0.2-0.3-0.3-0.4-0.7-0.5
				c-0.1,0-0.1,0-0.2,0c-0.3,0.2-0.7,0.6-1.5,1.4c-1.2,1.1-2.6,2.2-4.1,3c-1.5,0.8-3.4,1.5-5.8,2.1c-1.3,0.3-2,0.5-2.3,0.7
				c0,0.1,0.1,0.2,0.2,0.3c0.2,0.3,0.4,0.3,0.5,0.3c0.9,0,2.8-0.3,7.9-2.7L497.5,142.1z"/>
		</g>
		<g>
			<path fill="#4480C2" d="M358.4,223.9c0.9-8.6,1.3-12.9,2.2-21.6c-4.8,3.9-8,6.1-9.6,6.4c-0.7,0.2-1.4,0-1.9-0.4
				c-0.5-0.4-0.7-1-0.7-1.6c0.1-0.8,0.4-1.5,1-2c0.6-0.5,1.7-1.2,3.2-2.1c2.2-1.3,4.1-2.6,5.5-3.9c1.4-1.2,2.6-2.6,3.8-4
				c1.1-1.4,1.8-2.3,2.2-2.6c0.3-0.3,0.9-0.6,1.8-0.7c0.9-0.2,1.7,0,2.2,0.6c0.5,0.6,0.7,1.4,0.6,2.5c-1.1,10.9-1.7,16.3-2.8,27.2
				c-0.3,3.2-1.7,5-4.1,5.4c-1.1,0.2-1.9,0-2.5-0.5C358.5,226,358.2,225.1,358.4,223.9z"/>
			<path fill="#4480C2" d="M360.8,229.4c-1.3,0-2.4-0.4-3.2-1.2c-1.2-1-1.6-2.6-1.4-4.6l1.7-16.4c-3.7,2.7-5.3,3.4-6.4,3.6
				c-1.4,0.3-2.7,0-3.7-0.8c-1.1-0.9-1.7-2.2-1.5-3.6c0.1-1.4,0.8-2.6,1.8-3.5c0.7-0.6,1.8-1.3,3.4-2.3c2.1-1.3,3.9-2.5,5.1-3.6
				c1.3-1.2,2.5-2.4,3.5-3.7c1.6-2,2.1-2.5,2.3-2.8c0.7-0.7,1.7-1.1,3-1.4c1.8-0.3,3.2,0.2,4.2,1.3c0.9,1.1,1.3,2.5,1.1,4.3
				l-2.8,27.2c-0.6,5.6-4,7-6,7.4C361.5,229.4,361.1,229.4,360.8,229.4z M363.4,197.2l-2.8,26.9c0,0.5,0,0.7,0,0.8c0,0,0.1,0,0.2,0
				c0.1,0,0.3,0,0.4,0c0.6-0.1,2-0.3,2.3-3.4l2.8-27.2c0-0.3,0-0.6,0-0.7c-0.1,0-0.1,0-0.1,0c-0.5,0.1-0.6,0.2-0.6,0.2
				c0,0-0.5,0.5-1.9,2.4c-0.8,1.1-1.8,2.1-2.7,3.1L363.4,197.2z M355.2,203.7c-0.5,0.3-0.9,0.6-1.4,0.9c-1.6,1-2.4,1.5-2.8,1.8
				C351.6,206.1,352.9,205.4,355.2,203.7z"/>
		</g>
		<g>
			<path fill="#4480C2" d="M406.7,204.9c-0.3,2.6-0.7,4.8-1.2,6.7c-0.5,1.9-1.4,3.6-2.5,5.2c-1.4,1.9-3.1,3.4-5.1,4.6
				c-2,1.1-4.2,1.8-6.5,2c-2.7,0.2-5.1-0.2-7.1-1.4c-2-1.1-3.4-2.8-4.3-5.1c-0.4-1.2-0.7-2.6-0.8-4.2c-0.1-1.6,0-3.3,0.1-5.1
				c0.2-2.4,0.6-4.6,1.1-6.5c0.5-1.9,1.1-3.6,1.8-5.1c1.3-2.4,3-4.3,5.1-5.7c2.1-1.4,4.6-2.2,7.3-2.5c1.8-0.1,3.5,0,4.9,0.4
				c1.4,0.4,2.7,1.1,3.7,2.1c1,1,1.8,2.2,2.5,3.6C406.9,196.4,407.2,200.1,406.7,204.9z M399.4,204.8c0.3-2.9,0.3-5.2,0.1-7.1
				c-0.2-1.8-0.7-3.2-1.5-4c-0.8-0.9-2.1-1.3-3.7-1.1c-2.3,0.2-4.1,1.4-5.2,3.6c-1.1,2.2-1.9,5.5-2.4,9.9c-0.3,3-0.4,5.4-0.2,7.2
				c0.2,1.9,0.7,3.2,1.5,4.1c0.8,0.9,2,1.3,3.6,1.1c1.6-0.1,3-0.7,4-1.8c1-1.1,1.8-2.6,2.4-4.5C398.7,210.3,399.1,207.8,399.4,204.8
				z"/>
			<path fill="#4480C2" d="M390,225.6c-2.6,0-4.9-0.6-6.9-1.7c-2.5-1.4-4.2-3.5-5.3-6.3c-0.5-1.5-0.8-3.1-0.9-4.8
				c-0.1-1.7,0-3.5,0.2-5.5c0.3-2.5,0.6-4.8,1.1-6.8c0.5-2.1,1.2-4,2-5.6c1.5-2.8,3.4-5,5.9-6.6c2.4-1.6,5.3-2.6,8.4-2.8
				c2.1-0.2,4,0,5.7,0.5c1.8,0.5,3.3,1.4,4.6,2.6c1.2,1.2,2.3,2.6,3,4.4c1.2,2.9,1.6,6.9,1.1,12.1c-0.3,2.7-0.7,5.1-1.3,7.1
				c-0.6,2.1-1.6,4.1-2.8,5.8c-1.6,2.2-3.6,3.9-5.9,5.2c-2.3,1.3-4.8,2-7.5,2.3C391,225.6,390.5,225.6,390,225.6z M396.1,189.9
				c-0.4,0-0.8,0-1.2,0.1c-2.4,0.2-4.5,0.9-6.3,2.1c-1.8,1.2-3.3,2.8-4.4,4.9c-0.6,1.3-1.2,2.8-1.6,4.6c-0.5,1.8-0.8,3.9-1,6.2
				c-0.2,1.7-0.2,3.3-0.1,4.7c0.1,1.4,0.3,2.6,0.7,3.6c0.6,1.7,1.7,3,3.2,3.9c1.6,0.9,3.5,1.3,5.8,1.1c2-0.2,3.9-0.7,5.6-1.7
				c1.8-1,3.2-2.3,4.4-3.9c0.9-1.3,1.7-2.8,2.1-4.5c0.5-1.7,0.9-3.9,1.1-6.3c0.5-4.4,0.2-7.7-0.7-9.9c-0.5-1.2-1.2-2.1-1.9-2.9
				c-0.8-0.7-1.7-1.2-2.8-1.6C398.1,190.1,397.2,189.9,396.1,189.9z M391.1,220.8L391.1,220.8c-2.4,0-3.9-1-4.7-1.9
				c-1.2-1.3-1.9-3-2.1-5.4c-0.2-2-0.2-4.6,0.2-7.7c0.5-4.7,1.3-8.2,2.6-10.7c1.5-2.9,3.9-4.5,7-4.8c2.9-0.2,4.6,0.9,5.5,1.8
				c1.2,1.2,1.9,3,2.1,5.3c0.2,2,0.2,4.5-0.1,7.5c-0.3,3.2-0.8,5.8-1.4,7.8c-0.7,2.2-1.6,4-2.9,5.4c-1.4,1.5-3.2,2.3-5.4,2.5
				C391.7,220.7,391.4,220.8,391.1,220.8z M395,194.8c-0.1,0-0.3,0-0.4,0c-1.6,0.1-2.6,0.9-3.4,2.4c-1,1.9-1.7,5-2.1,9.1
				c-0.3,2.8-0.3,5.1-0.2,6.8c0.2,1.7,0.6,2.5,0.9,2.8c0.1,0.1,0.4,0.4,1.4,0.4c0.1,0,0.3,0,0.4,0c1.1-0.1,1.9-0.4,2.6-1.1
				c0.8-0.8,1.4-2,1.9-3.6c0.5-1.8,0.9-4.1,1.2-7c0.3-2.7,0.3-4.9,0.1-6.6c-0.1-1.3-0.5-2.2-0.9-2.7
				C396.3,195.1,396,194.8,395,194.8z"/>
		</g>
		<g>
			<path fill="#4480C2" d="M423.2,218.4c0.9-8.6,1.3-12.9,2.2-21.6c-4.8,3-8,4.6-9.5,4.6c-0.7,0-1.4-0.2-1.9-0.8
				c-0.5-0.5-0.7-1.1-0.7-1.8c0.1-0.8,0.4-1.4,1-1.8c0.6-0.4,1.7-0.9,3.1-1.5c2.2-0.9,4-1.9,5.4-2.9c1.4-1,2.6-2.1,3.7-3.3
				c1.1-1.2,1.8-2,2.2-2.2c0.3-0.3,0.9-0.4,1.7-0.4c0.9,0,1.7,0.4,2.1,1c0.5,0.7,0.7,1.6,0.6,2.7c-1.1,10.9-1.7,16.3-2.8,27.2
				c-0.3,3.2-1.7,4.7-4.1,4.7c-1.1,0-1.9-0.4-2.5-1C423.3,220.7,423,219.7,423.2,218.4z"/>
			<path fill="#4480C2" d="M426.5,224.6l-0.2,0c-2.1-0.1-3.4-1-4.1-1.8c-1-1.1-1.4-2.7-1.2-4.6l1.8-17.1c-4,2.3-5.7,2.6-6.8,2.6h0
				c-1.4,0-2.6-0.5-3.5-1.4c-1-1-1.5-2.3-1.3-3.6c0.2-1.5,0.9-2.7,2.1-3.5c0.7-0.5,1.9-1,3.5-1.7c2.1-0.9,3.8-1.7,5-2.6
				c1.3-0.9,2.4-1.9,3.4-3c1.6-1.7,2.1-2.2,2.4-2.4c0.7-0.6,1.7-0.9,3-0.9l0.2,0c1.6,0,3,0.7,3.9,1.9c0.8,1.1,1.2,2.6,1,4.3
				l-2.8,27.2C432.1,223.9,428.1,224.6,426.5,224.6z M428.1,192.5l-2.7,26.2c-0.1,0.7,0,1.1,0.1,1.2c0.1,0.1,0.2,0.3,0.9,0.3
				l0.1,2.2v-2.2c0.6,0,1.5,0,1.7-2.6l2.8-27.2c0.1-0.5,0-1-0.1-1.1c0-0.1-0.1-0.1-0.4-0.1c-0.2,0-0.3,0-0.4,0
				c-0.2,0.2-0.7,0.7-1.8,1.9c-1.2,1.3-2.6,2.5-4.1,3.6c-1.5,1.1-3.4,2.1-5.9,3.1c-1.8,0.7-2.5,1.1-2.8,1.3c0,0,0,0.1,0,0.1
				c0.1,0.1,0.2,0.1,0.3,0.1c0.4,0,2.1-0.3,8.4-4.3L428.1,192.5z"/>
		</g>
		<g>
			<path fill="#4480C2" d="M455.2,220.5c0.9-8.6,1.3-12.9,2.2-21.6c-4.7,2.6-7.9,3.9-9.4,3.7c-0.7-0.1-1.4-0.4-1.9-1
				c-0.5-0.6-0.7-1.2-0.7-1.9c0.1-0.8,0.4-1.4,1-1.7c0.6-0.3,1.6-0.7,3.1-1.2c2.2-0.7,4-1.5,5.4-2.4c1.4-0.9,2.6-1.9,3.7-3
				c1.1-1.1,1.8-1.8,2.1-2.1c0.3-0.2,0.9-0.3,1.7-0.2c0.9,0.1,1.6,0.5,2.1,1.3c0.5,0.7,0.7,1.7,0.6,2.8c-1.1,10.9-1.7,16.3-2.8,27.2
				c-0.3,3.2-1.7,4.6-4.1,4.3c-1.1-0.1-1.9-0.6-2.5-1.3C455.3,222.7,455.1,221.7,455.2,220.5z"/>
			<path fill="#4480C2" d="M458.9,227c-0.3,0-0.6,0-0.9-0.1c-1.6-0.2-3-0.9-3.9-2.1c-1-1.2-1.3-2.7-1.1-4.6l1.8-17.5
				c-3.3,1.6-5.5,2.2-7,2.1c-1.3-0.1-2.5-0.7-3.4-1.7c-0.9-1.1-1.4-2.3-1.2-3.6c0.2-1.5,0.9-2.8,2.2-3.4c0.8-0.4,1.9-0.9,3.5-1.4
				c2-0.7,3.7-1.4,4.9-2.1c1.2-0.8,2.3-1.7,3.3-2.7c1.6-1.6,2.1-2.1,2.4-2.3c0.8-0.6,1.8-0.9,3.4-0.7c1.6,0.2,2.8,1,3.7,2.2
				c0.8,1.2,1.1,2.6,0.9,4.3l-2.8,27.2C464,226.4,460.4,227,458.9,227z M460.1,194.9l-2.7,25.8c-0.1,0.6,0,1.1,0.2,1.4
				c0.1,0.2,0.4,0.4,1,0.5c0.1,0,0.2,0,0.3,0c0.3,0,1,0,1.2-2.3l2.8-27.2c0-0.4,0-1-0.2-1.3c-0.1-0.1-0.2-0.2-0.5-0.3
				c-0.1,0-0.2,0-0.3,0c-0.3,0.2-0.7,0.7-1.7,1.6c-1.2,1.2-2.6,2.3-4.1,3.3c-1.5,1-3.4,1.8-5.9,2.6c-1.5,0.5-2.2,0.8-2.6,1l0,0.1
				c0,0,0,0.1,0.1,0.2c0.2,0.2,0.3,0.2,0.4,0.2c0,0,0,0,0,0c0.6,0,2.4-0.3,8.2-3.5L460.1,194.9z"/>
		</g>
		<g>
			<path fill="#4480C2" d="M501.9,215.2c-0.3,2.6-0.7,4.8-1.2,6.6c-0.5,1.8-1.3,3.3-2.4,4.6c-1.3,1.6-3,2.6-4.9,3.2
				c-1.9,0.6-4,0.6-6.3,0.1c-2.6-0.6-4.9-1.7-6.8-3.5c-1.9-1.8-3.3-3.9-4.1-6.5c-0.4-1.4-0.6-2.9-0.7-4.6c-0.1-1.6,0-3.4,0.2-5.2
				c0.2-2.4,0.6-4.5,1.1-6.4c0.5-1.9,1.1-3.4,1.8-4.7c1.2-2.1,2.9-3.6,5-4.4c2.1-0.8,4.4-0.9,7.1-0.4c1.8,0.4,3.3,1,4.7,1.9
				c1.4,0.9,2.5,1.9,3.5,3.2c1,1.3,1.8,2.8,2.3,4.5C502.1,206.6,502.4,210.4,501.9,215.2z M495,213c0.3-2.9,0.4-5.3,0.2-7.2
				c-0.2-1.9-0.7-3.5-1.5-4.6c-0.8-1.1-2-1.9-3.5-2.2c-2.3-0.5-3.9,0.2-5,2.2c-1.1,1.9-1.9,5.1-2.3,9.5c-0.3,3-0.4,5.4-0.2,7.4
				c0.2,2,0.7,3.5,1.5,4.7c0.8,1.2,1.9,1.9,3.5,2.2c1.6,0.3,2.8,0.1,3.8-0.7c1-0.8,1.8-2.1,2.3-3.9C494.3,218.4,494.7,216,495,213z"
				/>
			<path fill="#4480C2" d="M490.2,232.2c-1.1,0-2.3-0.1-3.5-0.4c-3-0.7-5.6-2-7.8-4c-2.2-2-3.8-4.6-4.7-7.5
				c-0.5-1.6-0.7-3.3-0.8-5.1c-0.1-1.7,0-3.6,0.2-5.6c0.3-2.5,0.6-4.7,1.1-6.7c0.5-2,1.2-3.8,2-5.3c1.5-2.6,3.6-4.3,6.1-5.3
				c2.5-1,5.3-1.1,8.4-0.5c2,0.4,3.8,1.2,5.4,2.2c1.6,1,3,2.3,4.1,3.8c1.1,1.5,2,3.2,2.7,5.1c1.1,3.2,1.4,7.5,0.9,12.5
				c-0.3,2.7-0.7,5.1-1.3,7c-0.6,2.1-1.6,3.9-2.8,5.4c-1.6,1.9-3.7,3.2-6,3.9C492.8,232.1,491.5,232.2,490.2,232.2z M487.4,195.9
				c-1.1,0-2.2,0.2-3.1,0.6c-1.6,0.6-2.9,1.8-3.9,3.4c-0.6,1.1-1.1,2.4-1.5,4.1c-0.4,1.7-0.8,3.8-1,6.1c-0.2,1.7-0.2,3.4-0.1,4.9
				c0.1,1.5,0.3,2.8,0.6,4.1c0.7,2.2,1.8,4,3.5,5.5c1.6,1.5,3.5,2.5,5.8,3c1.9,0.4,3.6,0.4,5.2-0.1c1.5-0.4,2.8-1.3,3.8-2.5
				c0.9-1,1.5-2.3,2-3.8c0.5-1.6,0.9-3.7,1.1-6.1c0.5-4.4,0.2-8-0.7-10.6c-0.5-1.5-1.2-2.8-2-3.9c-0.8-1.1-1.8-2-2.9-2.7
				c-1.2-0.7-2.5-1.3-4-1.6C489.2,196,488.3,195.9,487.4,195.9z M488.9,227.2L488.9,227.2c-0.6,0-1.2-0.1-1.8-0.2
				c-2.1-0.5-3.7-1.5-4.8-3.2c-1-1.5-1.6-3.4-1.8-5.8c-0.2-2.1-0.1-4.8,0.2-7.9c0.5-4.7,1.3-8.1,2.6-10.3c1.6-2.8,4.2-3.9,7.5-3.2
				c2.1,0.5,3.8,1.5,4.9,3.2c1,1.5,1.6,3.4,1.8,5.7c0.2,2.1,0.1,4.7-0.2,7.7c-0.3,3.2-0.8,5.7-1.4,7.7c-0.7,2.2-1.7,3.9-3,5
				C491.7,226.8,490.4,227.2,488.9,227.2z M488.9,201c-0.6,0-1.2,0.1-1.8,1.2c-0.6,1.1-1.5,3.5-2,8.6c-0.3,2.8-0.4,5.2-0.2,7
				c0.1,1.6,0.5,2.8,1.1,3.6c0.5,0.7,1.1,1.1,2.1,1.3c0.3,0.1,0.6,0.1,0.9,0.1l0,0c0.6,0,0.9-0.2,1.1-0.3c0.6-0.5,1.2-1.5,1.6-2.8
				c0.5-1.6,0.9-4,1.2-6.8c0.3-2.7,0.3-5,0.2-6.8c-0.1-1.5-0.5-2.7-1.1-3.6c-0.5-0.7-1.2-1.1-2.2-1.3C489.4,201,489.1,201,488.9,201
				z"/>
		</g>
		<g>
			<path fill="#4480C2" d="M352.4,282.2c0.9-8.6,1.3-12.9,2.2-21.6c-4.8,3.9-8,6.1-9.6,6.4c-0.7,0.2-1.4,0-1.9-0.4
				c-0.5-0.4-0.7-1-0.7-1.6c0.1-0.8,0.4-1.5,1-2c0.6-0.5,1.7-1.2,3.2-2.1c2.2-1.3,4.1-2.6,5.5-3.9c1.4-1.2,2.6-2.6,3.8-4
				c1.1-1.4,1.8-2.3,2.2-2.6c0.3-0.3,0.9-0.6,1.8-0.7c0.9-0.2,1.7,0,2.2,0.6c0.5,0.6,0.7,1.4,0.6,2.5c-1.1,10.9-1.7,16.3-2.8,27.2
				c-0.3,3.2-1.7,5-4.1,5.4c-1.1,0.2-1.9,0-2.5-0.5C352.5,284.3,352.3,283.4,352.4,282.2z"/>
			<path fill="#4480C2" d="M354.8,287.7c-1.3,0-2.4-0.4-3.2-1.2c-1.2-1-1.6-2.6-1.4-4.6l1.7-16.4c-3.7,2.7-5.3,3.4-6.4,3.6
				c-1.4,0.3-2.7,0-3.7-0.8c-1.1-0.9-1.7-2.2-1.5-3.6c0.1-1.4,0.8-2.6,1.8-3.5c0.7-0.6,1.8-1.3,3.4-2.3c2.1-1.3,3.9-2.5,5.1-3.6
				c1.3-1.2,2.5-2.4,3.5-3.7c1.6-2,2.1-2.5,2.3-2.8c0.7-0.7,1.6-1.1,3-1.4c1.8-0.3,3.2,0.2,4.2,1.3c0.9,1,1.3,2.5,1.1,4.3l-2.8,27.2
				c-0.6,5.6-4,7-6,7.4C355.5,287.7,355.2,287.7,354.8,287.7z M357.4,255.5l-2.8,26.9c0,0.5,0,0.7,0,0.8c0,0,0.1,0,0.2,0
				c0.1,0,0.3,0,0.4,0c0.6-0.1,2-0.3,2.3-3.4l2.8-27.2c0-0.3,0-0.6,0-0.7c-0.1,0-0.1,0-0.1,0c-0.5,0.1-0.6,0.2-0.6,0.2
				c0,0-0.5,0.5-1.9,2.4c-0.8,1.1-1.8,2.1-2.8,3.1L357.4,255.5z M349.2,261.9c-0.5,0.3-0.9,0.6-1.4,0.9c-1.6,1-2.4,1.5-2.8,1.8
				C345.7,264.4,346.9,263.7,349.2,261.9z"/>
		</g>
		<g>
			<path fill="#4480C2" d="M384.8,277.9c0.9-8.6,1.3-12.9,2.2-21.6c-4.8,3.5-8,5.3-9.6,5.5c-0.7,0.1-1.4-0.1-1.9-0.6
				c-0.5-0.5-0.7-1-0.7-1.7c0.1-0.8,0.4-1.4,1-1.9c0.6-0.4,1.7-1.1,3.2-1.8c2.2-1.1,4.1-2.2,5.5-3.4c1.4-1.1,2.6-2.3,3.8-3.6
				c1.1-1.3,1.8-2.1,2.2-2.4c0.3-0.3,0.9-0.5,1.7-0.6c0.9-0.1,1.7,0.2,2.2,0.8c0.5,0.6,0.7,1.5,0.6,2.6c-1.1,10.9-1.7,16.3-2.8,27.2
				c-0.3,3.2-1.7,4.8-4.1,5c-1.1,0.1-1.9-0.2-2.5-0.8C384.9,280.1,384.7,279.1,384.8,277.9z"/>
			<path fill="#4480C2" d="M387.7,283.7c-1.9,0-3.1-0.8-3.7-1.4c-1.1-1.1-1.5-2.6-1.3-4.6l1.7-16.8c-3.9,2.5-5.5,3-6.6,3.2
				c-1.4,0.2-2.7-0.2-3.6-1.1c-1.1-0.9-1.6-2.2-1.4-3.6c0.1-1.4,0.8-2.6,1.9-3.5c0.7-0.5,1.9-1.2,3.5-2c2.1-1.1,3.8-2.1,5.1-3.1
				c1.3-1,2.4-2.1,3.5-3.4c1.6-1.8,2.1-2.4,2.4-2.6c0.7-0.7,1.7-1.1,3.1-1.2c1.7-0.1,3.1,0.5,4.1,1.6c0.9,1.1,1.3,2.5,1.1,4.3
				l-2.8,27.2c-0.6,5.8-4.1,6.9-6.2,7C388,283.7,387.8,283.7,387.7,283.7z M389.8,251.6l-2.7,26.5c-0.1,0.8,0.1,1,0.1,1
				c0.1,0.1,0.4,0.1,0.5,0.1l0.2,0c0.7,0,1.8-0.1,2.1-3l2.8-27.2c0.1-0.6,0-0.9-0.1-1c0,0-0.1,0-0.2,0c-0.3,0-0.5,0.1-0.6,0.1
				c-0.2,0.2-0.7,0.8-1.9,2.1c-1.2,1.4-2.6,2.7-4.1,3.9c-1.5,1.2-3.4,2.4-5.8,3.6c-1.8,0.9-2.6,1.4-2.9,1.6c-0.1,0-0.1,0.1-0.1,0.3
				c0,0,0-0.1-0.1-0.2l0.4,2.3l-0.2-2.2c0.4,0,2.2-0.5,8.5-5.1L389.8,251.6z"/>
		</g>
		<g>
			<path fill="#4480C2" d="M432.9,263.4c-0.3,2.6-0.7,4.8-1.2,6.7c-0.5,1.8-1.4,3.5-2.5,5c-1.4,1.8-3.1,3.2-5.1,4.1
				c-2,0.9-4.2,1.4-6.5,1.4c-2.7,0-5-0.7-7-2.1c-2-1.3-3.4-3.2-4.2-5.6c-0.4-1.3-0.7-2.7-0.8-4.3c-0.1-1.6,0-3.3,0.1-5.1
				c0.2-2.4,0.6-4.5,1.1-6.5c0.5-1.9,1.1-3.6,1.8-5c1.3-2.3,3-4.1,5.1-5.3c2.1-1.2,4.5-1.8,7.3-1.8c1.8,0,3.4,0.3,4.9,0.9
				c1.4,0.6,2.6,1.4,3.7,2.5c1,1.1,1.8,2.4,2.4,3.9C433.1,254.9,433.4,258.7,432.9,263.4z M425.7,262.6c0.3-2.9,0.3-5.3,0.1-7.1
				c-0.2-1.9-0.7-3.3-1.5-4.2c-0.8-1-2-1.5-3.7-1.5c-2.3,0-4.1,1-5.2,3.1c-1.1,2.1-1.9,5.3-2.4,9.7c-0.3,3-0.4,5.4-0.2,7.3
				c0.2,1.9,0.7,3.3,1.5,4.3c0.8,1,2,1.5,3.6,1.5c1.6,0,2.9-0.4,4-1.4c1-1,1.8-2.4,2.4-4.3C425,268.1,425.4,265.7,425.7,262.6z"/>
			<path fill="#4480C2" d="M417.9,282.8l-0.3,0c-3.1,0-5.9-0.9-8.2-2.5c-2.4-1.6-4.1-3.9-5.1-6.7c-0.5-1.5-0.8-3.2-0.9-4.9
				c-0.1-1.7,0-3.6,0.2-5.5c0.3-2.5,0.6-4.8,1.1-6.8c0.5-2.1,1.2-3.9,2-5.5c1.5-2.7,3.5-4.7,6-6.2c2.4-1.4,5.1-2.1,8.1-2.1l0.3,0
				c2.1,0,4,0.4,5.7,1.1c1.7,0.7,3.2,1.7,4.4,3c1.2,1.3,2.2,2.8,2.9,4.6c1.2,3,1.5,7.1,1,12.2c-0.3,2.7-0.7,5.1-1.3,7.1
				c-0.6,2.1-1.6,4-2.8,5.7c-1.6,2.1-3.6,3.7-5.9,4.8C422.9,282.2,420.5,282.8,417.9,282.8z M420.8,247.2c-2.2,0-4.2,0.5-5.9,1.5
				c-1.8,1-3.2,2.4-4.2,4.4c-0.6,1.2-1.2,2.7-1.6,4.4c-0.5,1.8-0.8,3.9-1,6.1c-0.2,1.7-0.2,3.3-0.1,4.8c0.1,1.4,0.3,2.7,0.7,3.8
				c0.7,1.9,1.8,3.3,3.4,4.4c1.6,1.1,3.5,1.7,5.8,1.7l0.2,0c1.9,0,3.7-0.4,5.3-1.1c1.7-0.8,3.1-1.9,4.3-3.5c0.9-1.2,1.6-2.7,2.1-4.2
				c0.5-1.7,0.9-3.8,1.1-6.3c0.5-4.4,0.2-7.8-0.7-10.1c-0.5-1.3-1.2-2.3-2-3.2c-0.8-0.8-1.7-1.5-2.9-1.9c-1.2-0.5-2.5-0.7-4.1-0.7
				L420.8,247.2z M418.2,278L418.2,278l-0.2,0c-2.8,0-4.4-1.3-5.3-2.3c-1.1-1.3-1.8-3.1-2-5.5c-0.2-2.1-0.2-4.6,0.2-7.8
				c0.5-4.7,1.3-8.2,2.6-10.6c1.5-2.8,3.9-4.3,7-4.3l0.2,0c2.8,0,4.5,1.3,5.3,2.3c1.1,1.3,1.8,3.1,2,5.4c0.2,2,0.2,4.6-0.1,7.6
				c-0.3,3.2-0.8,5.8-1.4,7.8c-0.7,2.2-1.7,4-3,5.2C422.2,277.3,420.4,278,418.2,278z M420.6,249.8v2.2c-1.4,0-2.4,0.6-3.1,1.9
				c-1,1.8-1.7,4.8-2.1,8.9c-0.3,2.8-0.3,5.1-0.2,6.8c0.1,1.4,0.5,2.5,1,3.1c0.2,0.3,0.7,0.7,1.9,0.7c0,0,0,0,0,0
				c1.4,0,2-0.5,2.4-0.8c0.7-0.7,1.3-1.8,1.8-3.3c0.5-1.7,0.9-4.1,1.2-7c0.3-2.7,0.3-5,0.1-6.7c-0.1-1.4-0.5-2.4-1-3
				c-0.1-0.2-0.6-0.7-2-0.7L420.6,249.8z"/>
		</g>
		<g>
			<path fill="#4480C2" d="M464.7,266.9c-0.3,2.6-0.7,4.8-1.2,6.6c-0.5,1.8-1.4,3.4-2.4,4.8c-1.4,1.7-3,2.9-5,3.7
				c-2,0.8-4.1,1-6.4,0.7c-2.6-0.3-5-1.2-6.9-2.8c-2-1.6-3.4-3.6-4.2-6.1c-0.4-1.4-0.7-2.8-0.7-4.4c-0.1-1.6,0-3.3,0.1-5.2
				c0.2-2.4,0.6-4.5,1.1-6.4c0.5-1.9,1.1-3.5,1.8-4.8c1.3-2.2,2.9-3.8,5-4.8c2.1-1,4.5-1.4,7.2-1.1c1.8,0.2,3.4,0.7,4.8,1.4
				c1.4,0.7,2.6,1.7,3.6,2.9c1,1.2,1.8,2.6,2.4,4.2C464.9,258.3,465.2,262.1,464.7,266.9z M457.7,265.4c0.3-2.9,0.3-5.3,0.2-7.2
				c-0.2-1.9-0.7-3.4-1.5-4.4c-0.8-1.1-2-1.7-3.6-1.9c-2.3-0.3-4,0.6-5.1,2.6c-1.1,2-1.9,5.2-2.3,9.6c-0.3,3-0.4,5.4-0.2,7.4
				c0.2,1.9,0.7,3.4,1.5,4.5c0.8,1.1,2,1.7,3.5,1.9c1.6,0.2,2.9-0.2,3.9-1.1c1-0.9,1.8-2.3,2.3-4.1
				C456.9,270.9,457.3,268.4,457.7,265.4z"/>
			<path fill="#4480C2" d="M451.4,285c-0.7,0-1.4,0-2-0.1c-3.1-0.4-5.8-1.5-8.1-3.3c-2.3-1.8-4-4.2-4.9-7.1c-0.5-1.6-0.8-3.2-0.9-5
				c-0.1-1.7,0-3.6,0.2-5.5c0.3-2.5,0.6-4.8,1.1-6.7c0.5-2.1,1.2-3.9,2-5.4c1.5-2.6,3.5-4.5,6-5.7c2.5-1.2,5.3-1.6,8.4-1.3
				c2,0.2,3.9,0.8,5.6,1.6c1.7,0.9,3.1,2,4.3,3.4c1.2,1.4,2.1,3,2.8,4.9c1.2,3.2,1.5,7.2,1,12.4c-0.3,2.7-0.7,5.1-1.3,7
				c-0.6,2.1-1.6,3.9-2.8,5.5c-1.6,2-3.6,3.5-6,4.4C455.2,284.7,453.3,285,451.4,285z M451.2,249.2c-1.6,0-3.1,0.3-4.4,0.9
				c-1.7,0.8-3,2.1-4.1,3.9c-0.6,1.1-1.2,2.6-1.6,4.3c-0.4,1.8-0.8,3.8-1,6.1c-0.2,1.7-0.2,3.3-0.1,4.8c0.1,1.4,0.3,2.7,0.7,3.9
				c0.7,2,1.8,3.6,3.4,4.9c1.6,1.3,3.5,2.1,5.8,2.3c1.9,0.2,3.7,0,5.4-0.6c1.6-0.6,3-1.6,4.1-3c0.9-1.1,1.6-2.5,2-4
				c0.5-1.7,0.9-3.8,1.1-6.2c0.5-4.4,0.2-7.9-0.7-10.4c-0.5-1.4-1.2-2.6-2-3.5c-0.8-1-1.8-1.7-2.9-2.3c-1.2-0.6-2.5-1-4-1.2
				C452.3,249.2,451.8,249.2,451.2,249.2z M450.9,280.1L450.9,280.1c-0.3,0-0.7,0-1.1-0.1c-2.2-0.3-3.9-1.2-5.1-2.7
				c-1.1-1.4-1.7-3.3-1.9-5.6c-0.2-2.1-0.1-4.7,0.2-7.8c0.5-4.7,1.3-8.1,2.6-10.4c1.6-2.8,4.1-4.1,7.3-3.8c2.2,0.3,3.9,1.2,5.1,2.7
				c1.1,1.4,1.7,3.3,1.9,5.6c0.2,2,0.2,4.6-0.2,7.6c-0.3,3.2-0.8,5.8-1.4,7.7c-0.7,2.2-1.7,3.9-3,5.1
				C454.2,279.6,452.7,280.1,450.9,280.1z M451.9,254.1c-1.1,0-1.8,0.5-2.4,1.5c-1,1.7-1.7,4.7-2.1,8.7c-0.3,2.8-0.3,5.1-0.2,6.9
				c0.1,1.5,0.5,2.6,1.1,3.4c0.3,0.4,0.8,0.8,2,1c1.2,0.1,1.9-0.2,2.2-0.5c0.7-0.6,1.3-1.6,1.7-3.1c0.5-1.7,0.9-4,1.2-6.9
				c0.3-2.7,0.3-5,0.2-6.7c-0.1-1.5-0.5-2.6-1.1-3.3c-0.3-0.4-0.8-0.9-2.1-1C452.3,254.1,452.1,254.1,451.9,254.1z"/>
		</g>
		<g>
			<path fill="#4480C2" d="M480.7,284c0.9-8.6,1.3-12.9,2.2-21.6c-4.7,2.1-7.8,3.1-9.3,2.8c-0.7-0.1-1.3-0.5-1.8-1.1
				c-0.5-0.6-0.7-1.3-0.6-2c0.1-0.8,0.4-1.4,1-1.6c0.6-0.3,1.6-0.6,3.1-0.9c2.2-0.5,3.9-1.1,5.3-1.9c1.3-0.7,2.6-1.6,3.6-2.6
				c1.1-1,1.8-1.6,2.1-1.9c0.3-0.2,0.9-0.2,1.7-0.1c0.9,0.2,1.6,0.7,2.1,1.5c0.5,0.8,0.7,1.7,0.5,2.9c-1.1,10.9-1.7,16.3-2.8,27.2
				c-0.3,3.2-1.7,4.5-4,3.9c-1-0.2-1.8-0.7-2.4-1.5C480.8,286.3,480.6,285.2,480.7,284z"/>
			<path fill="#4480C2" d="M484.7,290.9c-0.5,0-1-0.1-1.5-0.2c-1.6-0.4-2.8-1.2-3.7-2.4c-0.9-1.2-1.2-2.8-1.1-4.6l1.8-17.8
				c-3.4,1.3-5.6,1.7-7.1,1.5c-1.2-0.2-2.3-0.9-3.2-2c-0.9-1.1-1.3-2.3-1.1-3.6c0.2-2.1,1.5-3.1,2.3-3.4c0.8-0.4,1.9-0.7,3.5-1.1
				c2-0.5,3.6-1,4.7-1.6c1.2-0.6,2.2-1.4,3.2-2.3c1.5-1.5,2.1-1.9,2.4-2.1c0.9-0.6,2-0.7,3.5-0.4c1.5,0.3,2.7,1.2,3.5,2.5
				c0.7,1.2,1,2.6,0.9,4.3l-2.8,27.2C489.4,290.3,486.1,290.9,484.7,290.9z M485.5,258.7l-2.6,25.5c-0.1,0.7,0,1.2,0.2,1.5
				c0.2,0.2,0.4,0.5,1.1,0.7c0.2,0,0.3,0.1,0.5,0.1c0.5,0,0.8-1.6,0.8-2l2.8-27.2c0.1-0.6,0-1.1-0.2-1.5c-0.2-0.3-0.3-0.4-0.7-0.5
				c-0.1,0-0.1,0-0.2,0c-0.3,0.2-0.7,0.6-1.5,1.4c-1.2,1.2-2.6,2.2-4.1,3c-1.5,0.8-3.4,1.5-5.8,2.1c-1.3,0.3-2,0.5-2.3,0.7
				c0,0.1,0.1,0.2,0.2,0.3c0.2,0.3,0.4,0.3,0.5,0.3c0.9,0,2.8-0.3,7.9-2.7L485.5,258.7z"/>
		</g>
		<g>
			<path fill="#4480C2" d="M346.4,340.4c0.9-8.6,1.3-12.9,2.2-21.6c-4.8,3.9-8,6.1-9.6,6.4c-0.7,0.2-1.4,0-1.9-0.4
				c-0.5-0.4-0.7-1-0.7-1.6c0.1-0.8,0.4-1.5,1-2c0.6-0.5,1.7-1.2,3.2-2.1c2.2-1.3,4.1-2.6,5.5-3.9c1.4-1.2,2.6-2.6,3.8-4
				c1.1-1.4,1.8-2.3,2.2-2.6c0.3-0.3,0.9-0.6,1.8-0.7c0.9-0.2,1.7,0,2.2,0.6c0.5,0.6,0.7,1.4,0.6,2.5c-1.1,10.9-1.7,16.3-2.8,27.2
				c-0.3,3.2-1.7,5-4.1,5.4c-1.1,0.2-1.9,0-2.5-0.5C346.5,342.6,346.3,341.7,346.4,340.4z"/>
			<path fill="#4480C2" d="M348.8,346c-1.3,0-2.4-0.4-3.2-1.2c-1.2-1-1.6-2.6-1.4-4.6l1.7-16.4c-3.7,2.7-5.3,3.4-6.4,3.6
				c-1.4,0.3-2.7,0-3.7-0.8c-1.1-0.9-1.7-2.2-1.5-3.6c0.1-1.4,0.8-2.6,1.8-3.5c0.7-0.6,1.8-1.3,3.4-2.3c2.1-1.3,3.9-2.5,5.1-3.6
				c1.3-1.2,2.5-2.4,3.5-3.7c1.6-2,2.1-2.5,2.3-2.8c0.7-0.7,1.6-1.1,3-1.4c1.8-0.3,3.2,0.2,4.2,1.3c0.9,1,1.3,2.5,1.1,4.3l-2.8,27.2
				c-0.6,5.6-4,7-6,7.4C349.6,345.9,349.2,346,348.8,346z M351.4,313.7l-2.8,26.9c0,0.5,0,0.7,0,0.8c0,0,0.1,0,0.2,0
				c0.1,0,0.3,0,0.4,0c0.6-0.1,2-0.3,2.3-3.4l2.8-27.2c0-0.3,0-0.6,0-0.7c-0.1,0-0.1,0-0.1,0c-0.5,0.1-0.6,0.2-0.6,0.2
				c0,0-0.5,0.5-1.9,2.4c-0.8,1.1-1.8,2.1-2.8,3.1L351.4,313.7z M343.2,320.2c-0.5,0.3-0.9,0.6-1.4,0.9c-1.6,1-2.4,1.5-2.8,1.8
				C339.6,322.6,340.9,321.9,343.2,320.2z"/>
		</g>
		<g>
			<path fill="#4480C2" d="M394.7,321.4c-0.3,2.6-0.7,4.8-1.2,6.7c-0.5,1.9-1.4,3.6-2.5,5.2c-1.4,1.9-3.1,3.4-5.1,4.6
				c-2,1.1-4.2,1.8-6.5,2c-2.7,0.2-5.1-0.2-7.1-1.4c-2-1.1-3.4-2.8-4.3-5.1c-0.4-1.2-0.7-2.6-0.8-4.2c-0.1-1.6,0-3.3,0.1-5.1
				c0.2-2.4,0.6-4.6,1.1-6.5c0.5-1.9,1.1-3.6,1.8-5.1c1.3-2.4,3-4.3,5.1-5.7c2.1-1.4,4.6-2.2,7.3-2.5c1.8-0.1,3.5,0,4.9,0.4
				c1.4,0.4,2.7,1.1,3.7,2.1c1,1,1.8,2.2,2.5,3.6C394.9,313,395.2,316.7,394.7,321.4z M387.5,321.3c0.3-2.9,0.3-5.2,0.1-7.1
				c-0.2-1.8-0.7-3.2-1.5-4c-0.8-0.9-2.1-1.3-3.7-1.1c-2.3,0.2-4.1,1.4-5.2,3.6c-1.1,2.2-1.9,5.5-2.4,9.9c-0.3,3-0.4,5.4-0.2,7.2
				c0.2,1.9,0.7,3.2,1.5,4.1c0.8,0.9,2,1.3,3.6,1.1c1.6-0.1,3-0.7,4-1.8c1-1.1,1.8-2.6,2.4-4.5C386.7,326.9,387.1,324.4,387.5,321.3
				z"/>
			<path fill="#4480C2" d="M378,342.2c-2.6,0-4.9-0.6-6.9-1.7c-2.5-1.4-4.2-3.5-5.3-6.3c-0.5-1.5-0.8-3.1-0.9-4.8
				c-0.1-1.7,0-3.5,0.2-5.5c0.3-2.5,0.6-4.8,1.1-6.8c0.5-2.1,1.2-4,2-5.6c1.5-2.8,3.4-5,5.9-6.6c2.4-1.6,5.3-2.6,8.4-2.8
				c2.1-0.2,4,0,5.7,0.5c1.8,0.5,3.3,1.4,4.6,2.6c1.2,1.2,2.2,2.6,3,4.4c1.2,2.9,1.6,6.9,1.1,12.1c-0.3,2.7-0.7,5.1-1.3,7.1
				c-0.6,2.1-1.6,4.1-2.8,5.8c-1.6,2.2-3.6,3.9-5.9,5.2c-2.3,1.3-4.8,2-7.5,2.3C379,342.1,378.5,342.2,378,342.2z M384.1,306.5
				c-0.4,0-0.8,0-1.2,0c-2.4,0.2-4.5,0.9-6.3,2.1c-1.8,1.2-3.3,2.8-4.4,4.9c-0.6,1.3-1.2,2.8-1.6,4.6c-0.5,1.8-0.8,3.9-1,6.2
				c-0.2,1.7-0.2,3.3-0.1,4.7c0.1,1.4,0.3,2.6,0.7,3.6c0.6,1.7,1.7,3,3.2,3.9c1.6,0.9,3.5,1.3,5.8,1.1c2-0.2,3.9-0.7,5.6-1.7
				c1.8-1,3.2-2.3,4.4-3.9c0.9-1.3,1.7-2.8,2.2-4.5c0.5-1.7,0.9-3.9,1.1-6.3c0.5-4.4,0.2-7.7-0.7-9.9c-0.5-1.2-1.2-2.1-1.9-2.9
				c-0.8-0.7-1.7-1.2-2.8-1.6C386.2,306.6,385.2,306.5,384.1,306.5z M379.2,337.3L379.2,337.3c-2.4,0-3.9-1-4.7-1.9
				c-1.2-1.2-1.9-3.1-2.1-5.4c-0.2-2-0.2-4.6,0.2-7.7c0.5-4.7,1.3-8.2,2.6-10.7c1.5-2.9,3.9-4.5,7-4.8c2.9-0.2,4.6,0.9,5.5,1.8
				c1.2,1.2,1.9,3,2.1,5.3c0.2,2,0.2,4.5-0.1,7.5c-0.3,3.2-0.8,5.8-1.4,7.8c-0.7,2.2-1.6,4-2.9,5.4c-1.4,1.5-3.2,2.3-5.4,2.5
				C379.7,337.3,379.4,337.3,379.2,337.3z M383,311.3c-0.1,0-0.3,0-0.4,0c-1.6,0.1-2.6,0.9-3.4,2.4c-1,1.9-1.7,5-2.1,9.1
				c-0.3,2.8-0.3,5.1-0.2,6.8c0.2,1.7,0.6,2.5,0.9,2.8c0.1,0.1,0.4,0.4,1.4,0.4c0.1,0,0.3,0,0.4,0c1.1-0.1,1.9-0.4,2.6-1.1
				c0.8-0.8,1.4-2,1.9-3.6c0.5-1.8,0.9-4.1,1.2-7c0.3-2.7,0.3-4.9,0.1-6.6c-0.2-1.6-0.6-2.4-0.9-2.8
				C384.3,311.7,384,311.3,383,311.3z"/>
		</g>
		<g>
			<path fill="#4480C2" d="M411.2,335c0.9-8.6,1.3-12.9,2.2-21.6c-4.8,3-8,4.6-9.5,4.6c-0.7,0-1.4-0.2-1.9-0.8
				c-0.5-0.5-0.7-1.1-0.7-1.8c0.1-0.8,0.4-1.4,1-1.8c0.6-0.4,1.7-0.9,3.1-1.5c2.2-0.9,4-1.9,5.4-2.9c1.4-1,2.6-2.1,3.7-3.3
				c1.1-1.2,1.8-2,2.2-2.2c0.3-0.3,0.9-0.4,1.7-0.4c0.9,0,1.7,0.4,2.1,1c0.5,0.7,0.7,1.6,0.6,2.7c-1.1,10.9-1.7,16.3-2.8,27.2
				c-0.3,3.2-1.7,4.7-4.1,4.7c-1.1,0-1.9-0.4-2.5-1C411.3,337.2,411.1,336.3,411.2,335z"/>
			<path fill="#4480C2" d="M414.5,341.2l-0.2,0c-2.1-0.1-3.4-1-4.1-1.8c-1-1.1-1.4-2.7-1.2-4.6l1.8-17.1c-4,2.3-5.7,2.6-6.8,2.6h0
				c-1.4,0-2.6-0.5-3.5-1.4c-1-1-1.5-2.3-1.3-3.6c0.1-1.5,0.9-2.7,2-3.4c0.7-0.5,1.9-1,3.5-1.7c2.1-0.9,3.8-1.7,5-2.6
				c1.3-0.9,2.4-1.9,3.4-3c1.6-1.7,2.1-2.2,2.4-2.4c0.7-0.6,1.7-0.9,3-0.9l0.2,0c1.6,0,3,0.7,3.9,1.9c0.8,1.1,1.2,2.6,1,4.3
				l-2.8,27.2C420.1,340.5,416.2,341.2,414.5,341.2z M416.1,309.1l-2.7,26.2c-0.1,0.7,0,1,0.1,1.2c0.1,0.1,0.2,0.3,0.9,0.3l0.1,2.2
				v-2.2c0.6,0,1.5,0,1.7-2.6l2.8-27.2c0.1-0.5,0-1-0.1-1.1c0-0.1-0.1-0.1-0.4-0.1c-0.2,0-0.3,0-0.4,0c-0.2,0.2-0.7,0.7-1.8,1.9
				c-1.2,1.3-2.6,2.5-4.1,3.6c-1.5,1.1-3.4,2.1-5.9,3.1c-1.8,0.7-2.5,1.1-2.8,1.3c0,0,0,0.1,0,0.1c0.1,0.1,0.2,0.1,0.3,0.1
				c0.4,0,2.1-0.3,8.4-4.3L416.1,309.1z"/>
		</g>
		<g>
			<path fill="#4480C2" d="M458.7,325.2c-0.3,2.6-0.7,4.8-1.2,6.6c-0.5,1.8-1.4,3.4-2.4,4.8c-1.4,1.7-3,2.9-5,3.7
				c-2,0.8-4.1,1-6.4,0.7c-2.6-0.3-5-1.2-6.9-2.8c-2-1.6-3.4-3.6-4.2-6.1c-0.4-1.4-0.7-2.8-0.7-4.4s0-3.3,0.1-5.2
				c0.2-2.4,0.6-4.5,1.1-6.4c0.5-1.9,1.1-3.5,1.8-4.8c1.3-2.2,2.9-3.8,5-4.8c2.1-1,4.5-1.4,7.2-1.1c1.8,0.2,3.4,0.7,4.8,1.4
				c1.4,0.7,2.6,1.7,3.6,2.9c1,1.2,1.8,2.6,2.4,4.2C458.9,316.6,459.2,320.4,458.7,325.2z M451.7,323.6c0.3-2.9,0.3-5.3,0.2-7.2
				c-0.2-1.9-0.7-3.4-1.5-4.4c-0.8-1.1-2-1.7-3.6-1.9c-2.3-0.3-4,0.6-5.1,2.6c-1.1,2-1.9,5.2-2.3,9.6c-0.3,3-0.4,5.4-0.2,7.4
				c0.2,1.9,0.7,3.4,1.5,4.5c0.8,1.1,2,1.7,3.5,1.9c1.6,0.2,2.9-0.2,3.9-1.1c1-0.9,1.8-2.3,2.3-4.1
				C450.9,329.1,451.4,326.7,451.7,323.6z"/>
			<path fill="#4480C2" d="M445.4,343.3c-0.7,0-1.4,0-2-0.1c-3.1-0.4-5.8-1.5-8-3.3c-2.3-1.8-4-4.2-4.9-7.1c-0.5-1.6-0.8-3.3-0.9-5
				c-0.1-1.7,0-3.6,0.2-5.5c0.3-2.5,0.6-4.8,1.1-6.7c0.5-2.1,1.2-3.9,2-5.4c1.5-2.6,3.5-4.5,6-5.7c2.5-1.2,5.3-1.6,8.4-1.3
				c2,0.2,3.9,0.8,5.6,1.6c1.7,0.9,3.1,2,4.3,3.4c1.2,1.4,2.1,3,2.8,4.9c1.2,3.2,1.5,7.2,1,12.4c-0.3,2.7-0.7,5.1-1.3,7
				c-0.6,2.1-1.6,3.9-2.8,5.5c-1.6,2-3.6,3.5-6,4.4C449.2,343,447.3,343.3,445.4,343.3z M445.2,307.5c-1.6,0-3.1,0.3-4.4,0.9
				c-1.7,0.8-3,2.1-4.1,3.9c-0.6,1.1-1.2,2.6-1.6,4.3c-0.4,1.8-0.8,3.8-1,6.1c-0.2,1.7-0.2,3.3-0.1,4.8c0.1,1.4,0.3,2.7,0.7,3.9
				c0.7,2,1.8,3.6,3.4,4.9c1.6,1.3,3.5,2.1,5.8,2.3c1.9,0.2,3.7,0,5.4-0.6c1.6-0.6,3-1.6,4.1-3c0.9-1.1,1.6-2.5,2-4
				c0.5-1.7,0.9-3.8,1.1-6.2c0.5-4.4,0.2-7.9-0.7-10.4c-0.5-1.4-1.2-2.6-2-3.5c-0.8-1-1.8-1.7-2.9-2.3c-1.2-0.6-2.5-1-4-1.2
				C446.3,307.5,445.8,307.5,445.2,307.5z M444.9,338.4L444.9,338.4c-0.3,0-0.7,0-1.1-0.1c-2.2-0.3-3.9-1.2-5.1-2.7
				c-1.1-1.4-1.7-3.3-1.9-5.6c-0.2-2.1-0.1-4.7,0.2-7.8c0.5-4.7,1.3-8.1,2.6-10.4c1.6-2.8,4.1-4.1,7.3-3.8c2.2,0.3,3.9,1.2,5.1,2.7
				c1.1,1.4,1.7,3.3,1.9,5.6c0.2,2.1,0.2,4.6-0.2,7.6c-0.3,3.2-0.8,5.8-1.4,7.7c-0.7,2.2-1.7,3.9-3,5.1
				C448.2,337.8,446.7,338.4,444.9,338.4z M445.9,312.4c-1.1,0-1.8,0.5-2.4,1.5c-1,1.7-1.7,4.7-2.1,8.7c-0.3,2.8-0.3,5.1-0.2,6.9
				c0.1,1.5,0.5,2.6,1.1,3.4c0.3,0.4,0.8,0.8,2,1c0.2,0,0.4,0,0.5,0c0.9,0,1.4-0.3,1.6-0.5c0.7-0.6,1.3-1.6,1.7-3.1
				c0.5-1.7,0.9-4,1.2-6.9c0.3-2.7,0.3-5,0.2-6.7c-0.1-1.5-0.5-2.6-1.1-3.3c-0.3-0.4-0.8-0.9-2.1-1
				C446.3,312.4,446.1,312.4,445.9,312.4z"/>
		</g>
		<g>
			<path fill="#4480C2" d="M489.9,331.8c-0.3,2.6-0.7,4.8-1.2,6.6c-0.5,1.8-1.3,3.3-2.4,4.6c-1.3,1.6-3,2.6-4.9,3.2
				c-1.9,0.6-4,0.6-6.3,0.1c-2.6-0.6-4.9-1.7-6.8-3.5c-1.9-1.8-3.3-3.9-4.1-6.5c-0.4-1.4-0.6-2.9-0.7-4.6c-0.1-1.6,0-3.4,0.2-5.2
				c0.2-2.4,0.6-4.5,1.1-6.4c0.5-1.9,1.1-3.4,1.8-4.7c1.2-2.1,2.9-3.6,5-4.4c2.1-0.8,4.4-0.9,7.1-0.4c1.8,0.4,3.3,1,4.7,1.9
				c1.4,0.9,2.5,1.9,3.5,3.2c1,1.3,1.8,2.8,2.3,4.5C490.2,323.1,490.4,327,489.9,331.8z M483,329.5c0.3-2.9,0.4-5.3,0.2-7.2
				c-0.2-1.9-0.7-3.5-1.5-4.6c-0.8-1.1-2-1.9-3.5-2.2c-2.3-0.5-3.9,0.2-5,2.2c-1.1,1.9-1.9,5.1-2.3,9.5c-0.3,3-0.4,5.4-0.2,7.4
				c0.2,2,0.7,3.5,1.5,4.7c0.8,1.2,1.9,1.9,3.5,2.2c1.6,0.3,2.8,0.1,3.8-0.7c1-0.8,1.8-2.1,2.3-3.9C482.3,335,482.7,332.6,483,329.5
				z"/>
			<path fill="#4480C2" d="M478.2,348.8c-1.1,0-2.3-0.1-3.5-0.4c-3-0.7-5.6-2-7.8-4c-2.2-2-3.8-4.6-4.7-7.5
				c-0.5-1.6-0.7-3.3-0.8-5.1c-0.1-1.7,0-3.6,0.2-5.6c0.3-2.5,0.6-4.7,1.1-6.7c0.5-2,1.2-3.8,2-5.3c1.5-2.6,3.6-4.3,6.1-5.3
				c2.5-1,5.3-1.1,8.4-0.5c2,0.4,3.8,1.2,5.4,2.2c1.6,1,3,2.3,4.1,3.8c1.1,1.5,2,3.2,2.7,5.1c1.1,3.2,1.4,7.5,0.9,12.5
				c-0.3,2.7-0.7,5.1-1.3,7c-0.6,2.1-1.6,3.9-2.8,5.4c-1.6,1.9-3.7,3.2-6,3.9C480.8,348.6,479.5,348.8,478.2,348.8z M475.4,312.5
				c-1.1,0-2.2,0.2-3.1,0.6c-1.6,0.6-2.9,1.8-3.9,3.4c-0.6,1.1-1.1,2.4-1.5,4.1c-0.4,1.7-0.8,3.8-1,6.1c-0.2,1.7-0.2,3.4-0.1,4.9
				c0.1,1.5,0.3,2.8,0.6,4.1c0.7,2.2,1.8,4,3.5,5.5c1.6,1.5,3.5,2.5,5.8,3c1.9,0.4,3.6,0.4,5.2-0.1c1.5-0.4,2.8-1.3,3.8-2.5
				c0.8-1,1.5-2.3,2-3.8c0.5-1.6,0.9-3.7,1.1-6.1c0.5-4.4,0.2-8-0.7-10.6c-0.5-1.5-1.2-2.8-2-3.9c-0.8-1.1-1.8-2-2.9-2.7
				c-1.2-0.7-2.5-1.3-4-1.6C477.2,312.6,476.3,312.5,475.4,312.5z M476.9,343.8L476.9,343.8c-0.6,0-1.2-0.1-1.8-0.2
				c-2.1-0.5-3.7-1.5-4.8-3.2c-1-1.5-1.6-3.4-1.8-5.8c-0.2-2.1-0.1-4.7,0.2-7.9c0.5-4.7,1.3-8.1,2.6-10.3c1.6-2.8,4.2-3.9,7.5-3.2
				c2.1,0.5,3.8,1.5,4.9,3.2c1,1.5,1.6,3.4,1.8,5.7c0.2,2.1,0.1,4.7-0.2,7.7c-0.3,3.2-0.8,5.7-1.4,7.7c-0.7,2.2-1.7,3.9-3,5
				C479.7,343.3,478.4,343.8,476.9,343.8z M476.9,317.5c-0.6,0-1.2,0.1-1.8,1.2c-0.6,1.1-1.5,3.5-2,8.6c-0.3,2.8-0.4,5.2-0.2,7
				c0.1,1.6,0.5,2.8,1.1,3.6c0.5,0.7,1.1,1.1,2.1,1.3c1,0.2,1.7,0,1.9-0.2c0.6-0.5,1.2-1.5,1.6-2.8c0.5-1.6,0.9-4,1.2-6.8
				c0.3-2.7,0.3-5,0.2-6.8c-0.1-1.5-0.5-2.7-1.1-3.6c-0.5-0.7-1.2-1.1-2.2-1.3C477.4,317.6,477.1,317.5,476.9,317.5z"/>
		</g>
	</g>
</g>
</svg>
