<?xml version="1.0" encoding="utf-8"?>
<!-- Generator: Adobe Illustrator 18.1.1, SVG Export Plug-In . SVG Version: 6.00 Build 0)  -->
<svg version="1.1" id="Layer_1" xmlns="http://www.w3.org/2000/svg" xmlns:xlink="http://www.w3.org/1999/xlink" x="0px" y="0px"
	 viewBox="0 0 652 425.2" enable-background="new 0 0 652 425.2" xml:space="preserve">
<g>
	<path fill="#939599" d="M395.1,333.4H218.4c-2.1,0-4-1-5.2-2.7s-1.5-3.8-0.9-5.7l8.1-24.1c1.1-3.3,4.7-5.1,8.1-4
		c3.3,1.1,5.1,4.7,4,8.1l-5.3,15.7h163.2l60.1-191.9h-22c-3.5,0-6.4-2.9-6.4-6.4s2.9-6.4,6.4-6.4h30.7c2,0,3.9,1,5.1,2.6
		s1.6,3.7,0.9,5.7l-64.1,204.6C400.4,331.6,397.9,333.4,395.1,333.4z"/>
</g>
<g>
	<path fill="#939599" d="M371.2,309.3H194.5c-2.1,0-4-1-5.2-2.7s-1.5-3.8-0.9-5.7l68.7-204.6c0.9-2.6,3.3-4.3,6-4.3h172.1
		c2,0,3.9,1,5.1,2.6s1.6,3.7,0.9,5.7l-64.1,204.6C376.5,307.5,374,309.3,371.2,309.3z M203.4,296.6h163.2l60.1-191.9H267.8
		L203.4,296.6z"/>
</g>
<g>
	<path fill="#E95B4D" d="M311.1,149.6c1.4-3.7,3.8-7.1,7-10.3c3.3-3.2,7.3-5.7,12.1-7.6c4.8-1.9,9.9-2.9,15.4-2.9
		c4.1,0,7.7,0.5,10.8,1.6c3.1,1.1,5.5,2.5,7.2,4.4c1.7,1.8,2.9,3.8,3.3,6c0.5,2.2,0.3,4.3-0.5,6.4c-0.6,1.7-1.9,3.2-3.9,4.5
		c-2,1.3-3.9,1.9-5.7,1.9c-1.8,0-3-0.4-3.6-1.3c-0.7-0.9-1.4-2.3-2.3-4.4c-0.9-2.1-2-3.6-3.3-4.7c-1.3-1.1-3.4-1.6-6.2-1.6
		c-3.2,0-6.1,0.8-8.6,2.3c-2.5,1.5-4.1,3.3-4.9,5.4c-0.8,2.1-0.7,4,0.3,5.5c1,1.5,3.1,3.3,6.2,5.4c3.1,2.1,5.1,3.5,6,4.3
		c2.8,2.2,5.4,4.1,7.6,5.8c2.3,1.7,4.2,3.5,5.8,5.5c1.6,2,2.6,4.3,3,6.9c0.4,2.6-0.1,5.7-1.5,9.2c-1.5,3.9-3.9,7.5-7.3,10.7
		c-3.4,3.2-7.5,5.9-12.4,8.2c3.8,4.7,4.5,10.2,2.1,16.6c-1.2,3-2.9,5.9-5.2,8.5c-2.3,2.7-5.1,5-8.3,7.1c-3.3,2-6.8,3.6-10.6,4.8
		c-3.8,1.1-7.8,1.7-11.8,1.7c-4.9,0-8.9-0.7-12.2-2c-3.2-1.3-5.7-3.1-7.5-5.4c-1.8-2.3-2.9-4.7-3.2-7.2c-0.3-2.5,0-4.9,0.8-7.2
		c0.8-2.1,2.3-3.9,4.4-5.5s4.3-2.4,6.6-2.4c0.9,0,1.7,0.2,2.5,0.5c0.8,0.4,1.3,0.8,1.5,1.3c1.1,2.6,1.7,4.9,1.9,6.9
		c0.3,5.6,3.5,8.3,9.7,8.3c3.4,0,6.5-0.9,9.2-2.7c2.8-1.8,4.6-3.9,5.5-6.4c0.6-1.7,0.7-3.2,0-4.7c-0.6-1.4-1.7-2.9-3.4-4.4
		c-1.6-1.5-4.1-3.6-7.6-6.4c-3.4-2.8-6.9-5.7-10.4-8.6c-1.3-1.2-2.6-2.4-4-3.7c-1.4-1.3-2.5-2.7-3.3-4.3c-0.8-1.5-1.3-3.3-1.3-5.4
		c0-2,0.5-4.4,1.5-7.2c2.9-7.6,9.7-13.7,20.3-18.4C309.4,160.3,308.9,155.3,311.1,149.6z M318.6,171.5c-6.1,3.1-9.8,6.4-11,9.7
		c-0.7,1.7-0.7,3.3,0,4.8c0.7,1.5,1.8,2.9,3.4,4.2c1.6,1.4,4,3.4,7.4,6c1,0.8,2.4,1.8,4.1,3.2c1.7,1.4,3.5,2.6,5.2,3.8
		c6.3-3.6,10-6.7,11.1-9.5c0.6-1.5,0.7-2.9,0.3-4.2c-0.4-1.3-1.1-2.5-2.2-3.7c-1.1-1.2-2.4-2.4-4.2-3.8s-3.9-3-6.7-5
		c-2.2-1.6-3.9-2.9-5-3.7C319.9,172.4,319.1,171.9,318.6,171.5z"/>
</g>
</svg>
