<?xml version="1.0" encoding="utf-8"?>
<!-- Generator: Adobe Illustrator 18.1.1, SVG Export Plug-In . SVG Version: 6.00 Build 0)  -->
<svg version="1.1" id="Layer_1" xmlns="http://www.w3.org/2000/svg" xmlns:xlink="http://www.w3.org/1999/xlink" x="0px" y="0px"
	 viewBox="104 0 388 425.2" enable-background="new 104 0 388 425.2" xml:space="preserve">
<g>
	<path fill="#E95B4D" d="M363.8,144.4h-95.9c-3.5,0-6.4-2.9-6.4-6.4c0-3.5,2.9-6.4,6.4-6.4h95.9c3.5,0,6.4,2.9,6.4,6.4
		C370.1,141.5,367.3,144.4,363.8,144.4z"/>
</g>
<g>
	<path fill="#E95B4D" d="M353.6,176.6h-95.9c-3.5,0-6.4-2.9-6.4-6.4c0-3.5,2.9-6.4,6.4-6.4h95.9c3.5,0,6.4,2.9,6.4,6.4
		C359.9,173.7,357.1,176.6,353.6,176.6z"/>
</g>
<g>
	<path fill="#E95B4D" d="M342.1,210.2h-95.9c-3.5,0-6.4-2.9-6.4-6.4c0-3.5,2.9-6.4,6.4-6.4h95.9c3.5,0,6.4,2.9,6.4,6.4
		C348.5,207.4,345.6,210.2,342.1,210.2z"/>
</g>
<g>
	<path fill="#939599" d="M372.1,334.4H195.4c-2.1,0-4-1-5.2-2.7c-1.2-1.7-1.5-3.8-0.9-5.7l8.1-24.1c1.1-3.3,4.7-5.1,8.1-4
		c3.3,1.1,5.1,4.7,4,8.1l-5.3,15.7h163.2l60.1-191.9h-22c-3.5,0-6.4-2.9-6.4-6.4s2.9-6.4,6.4-6.4h30.7c2,0,3.9,1,5.1,2.6
		c1.2,1.6,1.6,3.7,0.9,5.7l-64.1,204.6C377.4,332.6,374.9,334.4,372.1,334.4z"/>
</g>
<g>
	<path fill="#939599" d="M348.2,310.3H171.5c-2.1,0-4-1-5.2-2.7c-1.2-1.7-1.5-3.8-0.9-5.7l68.7-204.6c0.9-2.6,3.3-4.3,6-4.3h172.1
		c2,0,3.9,1,5.1,2.6c1.2,1.6,1.6,3.7,0.9,5.7l-64.1,204.6C353.5,308.5,351,310.3,348.2,310.3z M180.4,297.6h163.2l60.1-191.9H244.8
		L180.4,297.6z"/>
</g>
</svg>
