<?xml version="1.0" encoding="utf-8"?>
<!-- Generator: Adobe Illustrator 18.1.1, SVG Export Plug-In . SVG Version: 6.00 Build 0)  -->
<svg version="1.1" id="Layer_1" xmlns="http://www.w3.org/2000/svg" xmlns:xlink="http://www.w3.org/1999/xlink" x="0px" y="0px"
	 viewBox="0 0 652 425.2" enable-background="new 0 0 652 425.2" xml:space="preserve">
<g>
	<circle fill="#4480C2" cx="280.2" cy="215.6" r="15"/>
	<path fill="#4480C2" d="M280.2,239.4c-13.1,0-23.7-10.6-23.7-23.7s10.6-23.7,23.7-23.7s23.7,10.6,23.7,23.7
		C303.9,228.7,293.3,239.4,280.2,239.4z M280.2,209.3c-3.5,0-6.3,2.9-6.3,6.3c0,3.5,2.9,6.3,6.3,6.3c3.4,0,6.3-2.9,6.3-6.3
		C286.6,212.1,283.8,209.3,280.2,209.3z"/>
</g>
<g>
	<polygon fill="none" points="261.4,145.6 196,259 261.4,372.3 392.2,372.3 457.6,259 392.2,145.6 	"/>
	<path fill="#939599" d="M475.1,254.7l-70.4-122c-1.6-2.7-4.4-4.3-7.4-4.3H380V81.5c8.5-3.5,14.7-12.1,14.7-21.9
		C394.6,46.6,384,36,371,36s-23.7,10.6-23.7,23.7c0,10.1,6.5,18.8,15.5,22.2v46.5h-73.5V82.8c8.5-3.5,14.7-12.1,14.7-21.9
		c0-13.1-10.6-23.7-23.7-23.7s-23.7,10.6-23.7,23.7c0,10.1,6.5,18.8,15.5,22.2v45.3h-15.5c-3.1,0-6,1.7-7.4,4.3l-70.4,122
		c-1.6,2.7-1.6,6,0,8.7l70.4,122c1.6,2.7,4.4,4.3,7.4,4.3h140.8c3.1,0,6-1.7,7.4-4.3l70.4-122C476.7,260.7,476.7,257.2,475.1,254.7z
		 M392.2,372.3H261.4L196,259l65.4-113.3h130.9L457.8,259L392.2,372.3z"/>
</g>
<g>
	<circle fill="#4480C2" cx="371" cy="214.4" r="15"/>
	<path fill="#4480C2" d="M371,238.1c-13.1,0-23.7-10.6-23.7-23.7c0-13.1,10.6-23.7,23.7-23.7c13.1,0,23.7,10.6,23.7,23.7
		C394.6,227.5,384,238.1,371,238.1z M371,208c-3.5,0-6.3,2.9-6.3,6.3c0,3.5,2.9,6.3,6.3,6.3s6.3-2.9,6.3-6.3
		C377.3,210.8,374.5,208,371,208z"/>
</g>
<g>
	<path fill="#E95B4D" d="M372.2,327.9h-90.7c-4.8,0-8.7-3.9-8.7-8.7v-22.8c0-4.8,3.9-8.7,8.7-8.7c4.8,0,8.7,3.9,8.7,8.7v14.2h73.5
		v-14.2c0-4.8,3.9-8.7,8.7-8.7c4.8,0,8.7,3.9,8.7,8.7v22.8C380.8,324,376.9,327.9,372.2,327.9z"/>
</g>
</svg>
