<?xml version="1.0" encoding="utf-8"?>
<!-- Generator: Adobe Illustrator 18.1.1, SVG Export Plug-In . SVG Version: 6.00 Build 0)  -->
<svg version="1.1" id="Layer_1" xmlns="http://www.w3.org/2000/svg" xmlns:xlink="http://www.w3.org/1999/xlink" x="0px" y="0px"
	 viewBox="0 0 203.3 255.9" enable-background="new 0 0 203.3 255.9" xml:space="preserve">
<polyline fill="none" stroke="#939599" stroke-width="2.8346" stroke-linecap="round" stroke-linejoin="round" stroke-miterlimit="10" points="
	159.2,147 147.9,38.3 79,51 "/>
<ellipse fill="none" stroke="#939599" stroke-width="5.6693" stroke-linecap="round" stroke-linejoin="round" stroke-miterlimit="10" cx="121.3" cy="85.7" rx="7.5" ry="7.7"/>
<ellipse fill="none" stroke="#939599" stroke-width="5.6693" stroke-linecap="round" stroke-linejoin="round" stroke-miterlimit="10" cx="86.8" cy="91.6" rx="7" ry="7.2"/>
<polyline fill="none" stroke="#939599" stroke-width="5.6693" stroke-linecap="round" stroke-linejoin="round" stroke-miterlimit="10" points="
	89.8,155.2 85.3,207.9 67.4,214.4 64.3,224.4 98.5,219.4 100.5,155.2 "/>
<polyline fill="none" stroke="#939599" stroke-width="5.6693" stroke-linecap="round" stroke-linejoin="round" stroke-miterlimit="10" points="
	124,152.3 125.9,217.9 151.5,221.4 159.5,215.4 137.2,205.2 133,152.3 "/>
<path fill="none" stroke="#4480C2" stroke-width="5.6693" stroke-linecap="round" stroke-linejoin="round" stroke-miterlimit="10" d="
	M76.5,94.7c7.5,6,13.5,7.2,21.2-3.5"/>
<path fill="none" stroke="#4480C2" stroke-width="5.6693" stroke-linecap="round" stroke-linejoin="round" stroke-miterlimit="10" d="
	M110.2,89.5c8,5.3,14.4,6.4,22.6-3.2"/>
<path fill="none" stroke="#E85C4D" stroke-width="5.6693" stroke-linecap="round" stroke-linejoin="round" stroke-miterlimit="10" d="
	M92.6,133.6c0,0,7.5-1.6,16-2.4c8.6-0.7,15.4-0.3,15.4-0.3"/>
<polyline fill="none" stroke="#939599" stroke-width="2.8346" stroke-linecap="round" stroke-linejoin="round" stroke-miterlimit="10" points="
	163.2,144 151.9,35.3 75,50.2 "/>
<polygon fill="none" stroke="#939599" stroke-width="5.6693" stroke-linecap="round" stroke-linejoin="round" stroke-miterlimit="10" points="
	142.6,42.5 82.3,54.2 92.6,62.4 68.5,79.4 64,79.6 65.8,111.4 66.2,119.4 66.2,119.4 68.1,155.2 154.3,150 "/>
<polyline fill="none" stroke="#939599" stroke-width="5.6693" stroke-linecap="round" stroke-linejoin="round" stroke-miterlimit="10" points="
	154.3,150 168.4,143.9 157.6,30.5 76.2,47.5 73.4,48.1 90.3,60.8 "/>
<polyline fill="none" stroke="#939599" stroke-width="5.6693" stroke-linecap="round" stroke-linejoin="round" stroke-miterlimit="10" points="
	65.9,119.8 35.7,131.1 49.7,62.2 69.7,45.6 92.3,62.8 68.2,78.8 57.2,76.8 50.2,110.8 65.1,104.3 "/>
</svg>
